<?xml version="1.0" encoding="UTF-8" standalone="no"?>
<!-- Created with Inkscape (http://www.inkscape.org/) -->

<svg
   width="210.50555mm"
   height="32.401814mm"
   viewBox="0 0 210.50555 32.401814"
   version="1.1"
   id="svg5"
   xmlns="http://www.w3.org/2000/svg"
   xmlns:svg="http://www.w3.org/2000/svg">
  <defs
     id="defs2" />
  <g
     id="layer1"
     style="display:inline"
     transform="translate(-2.7606626,-4.6023403)">
    <g
       aria-label="GradeSystem."
       id="text113"
       style="font-size:36.2617px;font-family:Quantify;-inkscape-font-specification:Quantify;fill:#ffffff;stroke-width:0.449663">
      <path
         d="M 26.30952,4.6200462 V 13.08347 H 25.654402 Q 24.468106,9.6131123 22.095514,7.8071096 19.722923,6.001107 16.907683,6.001107 q -2.691298,0 -4.479595,1.5227081 -1.788296,1.5050022 -2.5319444,4.2140059 -0.7436482,2.709004 -0.7436482,5.559655 0,3.452652 0.8144718,6.055421 0.8144718,2.602768 2.6204748,3.824476 1.823708,1.221708 4.320241,1.221708 0.86759,0 1.770591,-0.177059 0.920707,-0.194765 1.876826,-0.548884 v -4.993066 q 0,-1.416472 -0.194765,-1.823708 -0.194765,-0.424942 -0.814472,-0.761354 -0.602,-0.336412 -1.46959,-0.336412 H 17.456566 V 19.103479 H 29.12476 v 0.655119 q -1.327943,0.08853 -1.859121,0.371824 -0.513471,0.265588 -0.796766,0.903001 -0.159353,0.336412 -0.159353,1.646649 v 4.993066 q -2.301768,1.026943 -4.798301,1.540414 -2.478827,0.531178 -5.152419,0.531178 -3.41724,0 -5.683596,-0.920708 -2.2486508,-0.938413 -3.9838298,-2.443415 -1.7174731,-1.522708 -2.691298,-3.41724 -1.2394136,-2.443415 -1.2394136,-5.471126 0,-5.418008 3.8067702,-9.1539541 3.8067702,-3.7359466 9.5788962,-3.7359466 1.788297,0 3.222475,0.2832945 0.77906,0.1416473 2.514239,0.8144718 1.752885,0.6551186 2.071592,0.6551186 0.495765,0 0.920707,-0.3541182 0.424942,-0.3718241 0.77906,-1.3810608 z"
         style="font-weight:bold;font-family:'Times New Roman';-inkscape-font-specification:'Times New Roman, Bold'"
         id="path557" />
      <path
         d="m 37.588183,12.623117 v 3.753652 q 1.64665,-2.567357 2.886063,-3.399534 1.239414,-0.849884 2.390298,-0.849884 0.991531,0 1.575826,0.619707 0.602001,0.602001 0.602001,1.717473 0,1.186296 -0.584295,1.841414 -0.566589,0.655119 -1.381061,0.655119 -0.938413,0 -1.628944,-0.602001 -0.69053,-0.602001 -0.814471,-0.672824 -0.17706,-0.106236 -0.407236,-0.106236 -0.513472,0 -0.973825,0.38953 -0.725943,0.602001 -1.097767,1.717473 -0.566589,1.717473 -0.566589,3.789065 v 3.80677 l 0.01771,0.991531 q 0,1.009236 0.123942,1.292531 0.21247,0.47806 0.619706,0.708236 0.424942,0.212471 1.416473,0.265589 v 0.637413 H 30.82453 v -0.637413 q 1.080061,-0.08853 1.451885,-0.584295 0.38953,-0.513471 0.38953,-2.673592 v -9.153955 q 0,-1.416472 -0.141647,-1.806002 -0.177059,-0.495766 -0.513472,-0.725942 -0.336412,-0.230177 -1.186296,-0.318707 v -0.655118 z"
         style="font-weight:bold;font-family:'Times New Roman';-inkscape-font-specification:'Times New Roman, Bold'"
         id="path559" />
      <path
         d="m 55.949211,26.734725 q -3.02771,2.673592 -5.435714,2.673592 -1.416473,0 -2.354886,-0.920707 -0.938413,-0.938413 -0.938413,-2.33718 0,-1.894532 1.628944,-3.399534 1.628943,-1.522708 7.100069,-4.036947 v -1.664355 q 0,-1.876827 -0.212471,-2.354886 Q 55.541975,14.198942 54.975386,13.844824 54.408797,13.473 53.70056,13.473 q -1.150884,0 -1.894532,0.513472 -0.460353,0.318706 -0.460353,0.743648 0,0.371824 0.495765,0.920707 0.672825,0.761354 0.672825,1.46959 0,0.86759 -0.655119,1.487297 -0.637413,0.602 -1.682061,0.602 -1.115472,0 -1.876826,-0.672824 -0.743649,-0.672825 -0.743649,-1.575826 0,-1.274825 1.009237,-2.425709 1.009237,-1.16859 2.81524,-1.788297 1.806002,-0.619707 3.753652,-0.619707 2.354886,0 3.718241,1.009237 1.381061,0.991531 1.788296,2.160121 0.247883,0.743648 0.247883,3.41724 v 6.427245 q 0,1.133178 0.08853,1.434178 0.08853,0.283295 0.265588,0.424942 0.177059,0.141647 0.407236,0.141647 0.460354,0 0.938413,-0.655118 l 0.531178,0.424941 q -0.885296,1.310238 -1.841415,1.912238 -0.938413,0.584295 -2.142415,0.584295 -1.416472,0 -2.213238,-0.655118 -0.796766,-0.672825 -0.973825,-2.018474 z m 0,-1.292531 v -5.541949 q -2.142415,1.257119 -3.187064,2.691298 -0.69053,0.956119 -0.69053,1.929944 0,0.814472 0.584295,1.434178 0.442648,0.47806 1.239413,0.47806 0.885296,0 2.053886,-0.991531 z"
         style="font-weight:bold;font-family:'Times New Roman';-inkscape-font-specification:'Times New Roman, Bold'"
         id="path561" />
      <path
         d="M 81.038481,5.1689293 V 24.220486 q 0,1.929944 0.106235,2.284063 0.141647,0.584294 0.531177,0.867589 0.407236,0.283295 1.398767,0.354118 v 0.584295 l -6.993834,1.363355 v -2.620474 q -1.257119,1.522708 -2.24865,2.071591 -0.973825,0.548883 -2.213238,0.548883 -3.169358,0 -5.010772,-2.832945 -1.487297,-2.301768 -1.487297,-5.648185 0,-2.673592 0.920707,-4.780595 0.920708,-2.124709 2.514239,-3.204769 1.611238,-1.080061 3.452652,-1.080061 1.186296,0 2.107004,0.460354 0.920707,0.460353 1.965355,1.611237 V 9.2058764 q 0,-1.8945322 -0.159353,-2.2840622 Q 75.709002,6.4083429 75.28406,6.1604602 74.859119,5.9125775 73.690529,5.9125775 V 5.1689293 Z M 76.080826,16.394475 q -1.310237,-2.514239 -3.204769,-2.514239 -0.655119,0 -1.08006,0.354118 -0.655119,0.548883 -1.080061,1.929944 -0.407236,1.381061 -0.407236,4.231712 0,3.133946 0.460354,4.638948 0.460354,1.505002 1.257119,2.177827 0.407236,0.336412 1.115473,0.336412 1.55812,0 2.93918,-2.443415 z"
         style="font-weight:bold;font-family:'Times New Roman';-inkscape-font-specification:'Times New Roman, Bold'"
         id="path563" />
      <path
         d="m 99.13392,20.307481 h -9.083131 q 0.159353,3.293299 1.752885,5.205537 1.221707,1.46959 2.93918,1.46959 1.062355,0 1.929944,-0.584295 0.86759,-0.602001 1.859121,-2.142415 l 0.602001,0.38953 q -1.345649,2.744416 -2.974593,3.8953 -1.628943,1.133178 -3.771358,1.133178 -3.682829,0 -5.577361,-2.832945 Q 85.2879,24.556899 85.2879,21.17507 q 0,-4.143182 2.230944,-6.586598 2.24865,-2.461121 5.258655,-2.461121 2.514239,0 4.355653,2.071591 1.85912,2.053886 2.000768,6.108539 z m -4.355654,-1.186296 q 0,-2.850651 -0.318706,-3.913006 -0.301,-1.062354 -0.956119,-1.611237 -0.371824,-0.318707 -0.991531,-0.318707 -0.920707,0 -1.505002,0.903002 -1.044649,1.575825 -1.044649,4.320241 v 0.619707 z"
         style="font-weight:bold;font-family:'Times New Roman';-inkscape-font-specification:'Times New Roman, Bold'"
         id="path565" />
      <path
         d="m 116.60965,4.6200462 v 8.3040708 h -0.65511 q -0.31871,-2.390298 -1.15089,-3.8067702 -0.81447,-1.4164726 -2.33718,-2.2486503 -1.52271,-0.8321777 -3.15165,-0.8321777 -1.84141,0 -3.04542,1.1331781 -1.204,1.1154722 -1.204,2.5496508 0,1.0977663 0.76136,2.0007673 1.09776,1.327943 5.22324,3.541182 3.36412,1.806003 4.58583,2.779827 1.23941,0.95612 1.89453,2.266357 0.67283,1.310237 0.67283,2.744415 0,2.72671 -2.12471,4.709772 -2.10701,1.965356 -5.43572,1.965356 -1.04465,0 -1.96535,-0.159353 -0.54889,-0.08853 -2.28407,-0.637413 -1.71747,-0.566589 -2.17782,-0.566589 -0.44265,0 -0.70824,0.265588 -0.24788,0.265589 -0.37182,1.097767 h -0.65512 v -8.233247 h 0.65512 q 0.46035,2.585062 1.23941,3.877593 0.77906,1.274826 2.37259,2.124709 1.61124,0.849884 3.52348,0.849884 2.21324,0 3.48806,-1.16859 1.29253,-1.16859 1.29253,-2.762122 0,-0.885295 -0.49576,-1.788296 -0.47806,-0.903002 -1.505,-1.682062 -0.69053,-0.531177 -3.77136,-2.24865 -3.08083,-1.735179 -4.39107,-2.762122 -1.29253,-1.026942 -1.96535,-2.266356 -0.67283,-1.239413 -0.67283,-2.72671 0,-2.5850622 1.98306,-4.4441826 1.98307,-1.8768262 5.04619,-1.8768262 1.91224,0 4.05465,0.9384131 0.99153,0.4426477 1.39877,0.4426477 0.46035,0 0.74365,-0.2655886 0.301,-0.2832945 0.47806,-1.1154722 z"
         style="font-family:'Times New Roman';-inkscape-font-specification:'Times New Roman, '"
         id="path567" />
      <path
         d="m 120.3633,12.959529 h 7.56042 v 0.655118 h -0.37182 q -0.79677,0 -1.204,0.354119 -0.38953,0.336412 -0.38953,0.849883 0,0.690531 0.58429,1.912238 l 3.94842,8.18013 3.62971,-8.95919 q 0.301,-0.725942 0.301,-1.434178 0,-0.318707 -0.12394,-0.47806 -0.14165,-0.194765 -0.44265,-0.301 -0.301,-0.123942 -1.06235,-0.123942 v -0.655118 h 5.27636 v 0.655118 q -0.65512,0.07082 -1.00924,0.283295 -0.35412,0.212471 -0.77906,0.796766 -0.15935,0.247883 -0.602,1.363355 l -6.6043,16.1832 q -0.95612,2.354886 -2.51424,3.558887 -1.54042,1.204002 -2.9746,1.204002 -1.04464,0 -1.71747,-0.602001 -0.67282,-0.602001 -0.67282,-1.381061 0,-0.743648 0.47806,-1.204001 0.49576,-0.442648 1.34565,-0.442648 0.58429,0 1.59353,0.38953 0.70823,0.265588 0.88529,0.265588 0.53118,0 1.15089,-0.548883 0.63741,-0.548883 1.27482,-2.124709 l 1.15089,-2.815239 -5.82525,-12.234783 q -0.26559,-0.548883 -0.84988,-1.363354 -0.44265,-0.619707 -0.72594,-0.832178 -0.40724,-0.283295 -1.31024,-0.495766 z"
         style="font-family:'Times New Roman';-inkscape-font-specification:'Times New Roman, '"
         id="path569" />
      <path
         d="m 149.89676,12.481469 v 5.524244 h -0.58429 q -0.67283,-2.602769 -1.73518,-3.541182 -1.04465,-0.938413 -2.67359,-0.938413 -1.23942,0 -2.00077,0.655119 -0.76135,0.655118 -0.76135,1.451884 0,0.991531 0.56659,1.699767 0.54888,0.725942 2.23094,1.540414 l 2.58506,1.25712 q 3.5943,1.752885 3.5943,4.621242 0,2.213238 -1.68206,3.576593 -1.66436,1.345649 -3.73595,1.345649 -1.48729,0 -3.39953,-0.531177 -0.5843,-0.177059 -0.95612,-0.177059 -0.40724,0 -0.63741,0.460353 h -0.5843 v -5.789832 h 0.5843 q 0.49576,2.478828 1.89453,3.735947 1.39877,1.257119 3.13395,1.257119 1.2217,0 1.98306,-0.708236 0.77906,-0.725942 0.77906,-1.735179 0,-1.221707 -0.86759,-2.053885 -0.84989,-0.832178 -3.41724,-2.107003 -2.56736,-1.274826 -3.36413,-2.301768 -0.79676,-1.009237 -0.79676,-2.549651 0,-2.000768 1.36335,-3.346417 1.38106,-1.345649 3.55889,-1.345649 0.95612,0 2.31948,0.407236 0.903,0.265589 1.204,0.265589 0.28329,0 0.44264,-0.123941 0.15936,-0.123942 0.37183,-0.548884 z"
         style="font-family:'Times New Roman';-inkscape-font-specification:'Times New Roman, '"
         id="path571" />
      <path
         d="m 158.23624,7.6300505 v 5.3294785 h 3.78906 v 1.239413 h -3.78906 v 10.51731 q 0,1.575826 0.44265,2.124709 0.46035,0.548883 1.16859,0.548883 0.58429,0 1.13318,-0.354118 0.54888,-0.371824 0.84988,-1.080061 h 0.69053 q -0.61971,1.735179 -1.75288,2.620475 -1.13318,0.867589 -2.33718,0.867589 -0.81448,0 -1.59354,-0.442647 -0.77906,-0.460354 -1.15088,-1.292532 -0.37182,-0.849883 -0.37182,-2.602768 v -10.90684 h -2.56736 v -0.584295 q 0.97382,-0.38953 1.98306,-1.310237 1.02694,-0.938413 1.82371,-2.213238 0.40724,-0.6728247 1.13318,-2.4611215 z"
         style="font-family:'Times New Roman';-inkscape-font-specification:'Times New Roman, '"
         id="path573" />
      <path
         d="m 166.32784,19.068067 q -0.0177,3.612005 1.75288,5.665891 1.7706,2.053885 4.16089,2.053885 1.59354,0 2.76213,-0.867589 1.18629,-0.885296 1.98306,-3.010005 l 0.54888,0.354118 q -0.37182,2.42571 -2.16012,4.426477 -1.7883,1.983062 -4.4796,1.983062 -2.92147,0 -5.01077,-2.266356 -2.07159,-2.284062 -2.07159,-6.126244 0,-4.160889 2.12471,-6.480363 2.14241,-2.33718 5.36489,-2.33718 2.72671,0 4.47959,1.806003 1.75289,1.788297 1.75289,4.798301 z m 0,-1.026943 h 7.50731 q -0.0885,-1.558119 -0.37183,-2.195532 -0.44265,-0.991531 -1.32794,-1.55812 -0.86759,-0.566589 -1.82371,-0.566589 -1.46959,0 -2.63818,1.150884 -1.15088,1.133178 -1.34565,3.169357 z"
         style="font-family:'Times New Roman';-inkscape-font-specification:'Times New Roman, '"
         id="path575" />
      <path
         d="m 184.5118,15.934121 q 1.77059,-1.77059 2.0893,-2.036179 0.79677,-0.672825 1.71747,-1.044649 0.92071,-0.371824 1.82371,-0.371824 1.52271,0 2.62048,0.885296 1.09776,0.885295 1.46959,2.567356 1.8237,-2.124709 3.08082,-2.779827 1.25712,-0.672825 2.58507,-0.672825 1.29253,0 2.28406,0.672825 1.00924,0.655118 1.59353,2.160121 0.38953,1.026942 0.38953,3.222475 v 6.976128 q 0,1.522708 0.23018,2.089297 0.17706,0.38953 0.65512,0.672824 0.47806,0.265589 1.55812,0.265589 v 0.637413 h -8.00307 v -0.637413 h 0.33641 q 1.04465,0 1.62894,-0.407236 0.40724,-0.283294 0.5843,-0.903001 0.0708,-0.301001 0.0708,-1.717473 V 18.53689 q 0,-1.983062 -0.47806,-2.797534 -0.69053,-1.133178 -2.21324,-1.133178 -0.93841,0 -1.89453,0.47806 -0.93841,0.460353 -2.28406,1.735179 l -0.0354,0.194765 0.0354,0.761354 v 7.737482 q 0,1.664355 0.17706,2.071591 0.19476,0.407236 0.70823,0.69053 0.51347,0.265589 1.75289,0.265589 v 0.637413 h -8.19784 v -0.637413 q 1.34565,0 1.84142,-0.318706 0.51347,-0.318707 0.70823,-0.956119 0.0885,-0.301001 0.0885,-1.752885 V 18.53689 q 0,-1.983062 -0.58429,-2.850651 -0.77906,-1.133178 -2.17783,-1.133178 -0.95612,0 -1.89453,0.513471 -1.46959,0.77906 -2.26636,1.752885 v 8.693601 q 0,1.593531 0.21247,2.071591 0.23018,0.478059 0.65512,0.725942 0.44265,0.230177 1.77059,0.230177 v 0.637413 h -8.02077 v -0.637413 q 1.11547,0 1.55812,-0.230177 0.44264,-0.247883 0.67282,-0.761354 0.23018,-0.531177 0.23018,-2.036179 V 19.31595 q 0,-2.673592 -0.15936,-3.452652 -0.12394,-0.584295 -0.38953,-0.796766 -0.26558,-0.230177 -0.72594,-0.230177 -0.49576,0 -1.18629,0.265589 l -0.26559,-0.637413 4.88683,-1.983062 h 0.76135 z"
         style="font-family:'Times New Roman';-inkscape-font-specification:'Times New Roman, '"
         id="path577" />
      <path
         d="m 211.30085,25.743194 q 0.83218,0 1.39877,0.584295 0.56659,0.56659 0.56659,1.381061 0,0.814472 -0.5843,1.398767 -0.56659,0.566589 -1.38106,0.566589 -0.81447,0 -1.39877,-0.566589 -0.56659,-0.584295 -0.56659,-1.398767 0,-0.832177 0.56659,-1.398766 0.5843,-0.56659 1.39877,-0.56659 z"
         style="font-family:'Times New Roman';-inkscape-font-specification:'Times New Roman, '"
         id="path579" />
    </g>
  </g>
</svg>
