<?xml version="1.0" encoding="UTF-8" standalone="no"?>
<!-- Created with Inkscape (http://www.inkscape.org/) -->

<svg
   width="337mm"
   height="125mm"
   viewBox="0 0 337 125"
   version="1.1"
   id="svg5"
   inkscape:version="1.1.2 (b8e25be833, 2022-02-05)"
   sodipodi:docname="gsicon-c-full.svg"
   xmlns:inkscape="http://www.inkscape.org/namespaces/inkscape"
   xmlns:sodipodi="http://sodipodi.sourceforge.net/DTD/sodipodi-0.dtd"
   xmlns="http://www.w3.org/2000/svg"
   xmlns:svg="http://www.w3.org/2000/svg">
  <sodipodi:namedview
     id="namedview7"
     pagecolor="#505050"
     bordercolor="#ffffff"
     borderopacity="1"
     inkscape:pageshadow="0"
     inkscape:pageopacity="0"
     inkscape:pagecheckerboard="1"
     inkscape:document-units="mm"
     showgrid="false"
     inkscape:zoom="0.733172"
     inkscape:cx="726.97812"
     inkscape:cy="234.59707"
     inkscape:window-width="1920"
     inkscape:window-height="1009"
     inkscape:window-x="-8"
     inkscape:window-y="-8"
     inkscape:window-maximized="1"
     inkscape:current-layer="text42421" />
  <defs
     id="defs2" />
  <g
     inkscape:label="圖層 1"
     inkscape:groupmode="layer"
     id="layer1">
    <path
       d="m 78.585051,73.845901 c 0,4.967817 -4.027311,8.994776 -8.995128,8.994776 -4.96817,0 -8.995481,-4.026959 -8.995481,-8.994776 0,-4.968522 4.027311,-8.995834 8.995481,-8.995834 4.967817,0 8.995128,4.027312 8.995128,8.995834"
       style="fill:#564ca9;fill-opacity:1;fill-rule:nonzero;stroke:none;stroke-width:0.0352778"
       id="path14" />
    <path
       d="m 42.101124,102.17989 c -0.564797,-3.383779 0.02152,-7.283067 0.712258,-10.323588 0.928511,-4.089436 2.312459,-8.070533 3.855509,-11.964848 0.72143,-1.819628 1.417461,-3.649133 2.142419,-5.46735 0.809273,-2.029883 1.647826,-4.049889 2.59962,-6.018036 0.850195,-1.757539 1.671814,-3.551767 2.503664,-5.310717 1.520825,-3.214865 3.224742,-6.39692 5.077178,-9.43222 2.423584,-3.969809 4.484864,-8.088843 7.169856,-11.912954 1.091848,-1.555045 2.035881,-3.151011 2.996848,-4.782609 0.605366,-1.027641 1.200502,-1.962855 1.894769,-2.949575 0.73272,-1.041047 1.46297,-2.124781 2.112786,-3.180644 0.764117,-1.239309 1.62807,-2.418292 2.366081,-3.659012 1.249892,-2.10185 2.7559,-3.984272 4.087284,-6.014156 1.528939,-2.332214 3.101269,-4.637617 4.756856,-6.882342 1.720497,-2.331861 3.447697,-4.6432613 5.319889,-6.9137392 0.663575,-0.8046861 1.326444,-1.6171334 1.975555,-2.4563918 0.809626,-1.0459862 1.685926,-2.2069779 2.535415,-3.2850669 -2.636662,1.6446501 -4.756151,4.2654364 -6.709481,6.6653838 -2.225676,2.7340281 -4.25697,5.6197501 -6.358468,8.4479701 -2.375605,3.198283 -4.712053,6.425495 -7.005108,9.68375 -4.006851,5.693129 -7.881409,11.479743 -11.607095,17.360902 -1.864784,2.943578 -3.69182,5.910792 -5.480756,8.901642 -2.570692,4.298245 -4.94912,8.709025 -7.19314,13.186481 -0.99448,1.982964 -1.881716,3.990623 -2.850444,5.974998 -2.996848,6.137981 -5.587295,12.510559 -7.857067,18.98823 -1.254126,3.578648 -2.966156,8.087431 -4.212626,12.662672"
       style="fill:#ea078a;fill-opacity:1;fill-rule:nonzero;stroke:none;stroke-width:0.0352778"
       id="path16" />
    <path
       d="m 42.951671,101.94536 c -0.671689,-4.599906 0.443795,-9.298201 1.718734,-13.696952 1.342319,-4.632678 3.214158,-9.111898 4.991453,-13.589707 3.653367,-9.204678 8.508647,-17.706623 13.41367,-26.275243 2.242256,-3.916539 4.835878,-7.602714 7.146925,-11.477626 2.327981,-3.902781 4.947709,-7.755114 7.515579,-11.505848 C 83.17716,17.455075 88.894982,9.828725 94.830822,2.2499995 95.401616,1.5215133 94.671366,0.27021048 93.761905,0.86499385 90.236244,3.1714551 87.643327,6.6255026 85.099093,9.9225639 81.999235,13.939292 79.032373,18.074553 76.067276,22.19147 70.006201,30.605574 64.250984,39.239105 58.813972,48.069486 53.356852,56.932675 48.576008,66.12042 44.272119,75.594974 40.23634,84.479682 36.691629,93.856799 34.08252,103.26397 c -0.304553,1.0983 1.397317,1.56394 1.700706,0.46923 2.570692,-9.26786 6.073423,-18.481287 10.011834,-27.247815 4.070351,-9.06004 8.650465,-17.853026 13.814073,-26.336627 5.173134,-8.499123 10.680701,-16.792223 16.436624,-24.906465 2.81305,-3.965928 5.715,-7.867298 8.595078,-11.784543 C 87.511388,9.5528527 90.534341,5.0820997 94.652316,2.3879356 94.296011,1.9261495 93.939705,1.4647161 93.583752,1.00293 90.79328,4.5652802 87.929077,8.0747138 85.208807,11.690686 c -3.0099,4.000853 -5.724172,8.194323 -8.615539,12.278079 -2.752725,3.887611 -5.404556,7.985125 -7.894109,12.047009 -2.587272,4.221339 -5.347759,8.321675 -7.802387,12.624859 -2.427111,4.2545 -4.998156,8.407048 -7.164917,12.805481 -2.156178,4.377267 -4.211461,8.814506 -6.011686,13.350171 -3.392312,8.5471 -7.846131,18.187812 -6.469592,27.618265 0.164041,1.12215 1.863372,0.64315 1.701094,-0.46919 v 0"
       style="fill:#eb048a;fill-opacity:1;fill-rule:nonzero;stroke:none;stroke-width:0.0352778"
       id="path18" />
    <path
       d="m 43.471313,17.791625 c -0.741539,-0.625475 -1.483431,-1.258358 -2.217209,-1.916994 -0.915458,-0.82162 -1.910644,-1.737078 -2.868436,-2.580922 2.700867,1.068563 5.077884,3.111853 7.266164,4.980517 2.493787,2.129366 4.83094,4.428772 7.225243,6.664678 2.706158,2.5273 5.380567,5.088114 8.019345,7.684559 4.612217,4.536016 9.116483,9.178925 13.497984,13.932606 2.192514,2.379839 4.355394,4.786489 6.485114,7.221714 3.062111,3.499203 5.96265,7.132462 8.751006,10.848623 1.234722,1.646061 2.375959,3.331281 3.587045,4.982281 3.748969,5.106812 7.157861,10.49514 10.288061,16.030576 3.45863,6.118508 9.20432,15.325337 9.29887,22.542117 0.0889,6.80268 -4.27108,8.51323 -9.30028,8.30544 -1.25766,-0.0518 -2.55623,-0.22323 -3.838579,-0.46743 -11.432117,-3.09837 -22.015451,-8.39004 -32.649938,-13.27189 -1.081616,-0.545 -2.162175,-1.09816 -3.240969,-1.65904 -1.0795,-0.56166 -2.157237,-1.131357 -3.233209,-1.70889 C 59.464142,98.823663 58.388169,98.269026 57.314667,97.70952 47.676424,92.984802 38.425532,87.940785 29.825903,82.078324 28.870651,81.428154 27.92309,80.766696 26.985089,80.093949 19.110947,74.449504 11.750168,68.908423 5.54142,61.378734 4.8606646,60.478092 4.2378001,59.544642 3.6907159,58.573445 2.4197527,56.318136 1.8300881,54.723933 1.4500265,52.2432 0.65076324,47.029144 8.5028132,47.961536 11.491794,48.194722 c 0.968057,0.07514 1.934069,0.178858 2.897328,0.305505 1.811409,0.237773 3.60606,0.566562 5.401911,0.924984 2.985241,0.595136 5.935204,1.354667 8.860508,2.193925 0.842257,0.2413 1.68215,0.490361 2.521409,0.743656 2.363999,0.712611 4.72881,1.414286 7.104415,2.242608 2.331156,0.8128 4.800601,1.518356 7.270045,2.576689 -2.822222,-0.705556 -5.644445,-1.058333 -8.441973,-1.248128 -0.553861,-0.0134 -1.10878,-0.01693 -1.662641,-0.01129 -0.554249,0.0049 -1.10864,0.0187 -1.661936,0.04198 -3.697253,0.153458 -7.817874,1.096081 -9.796464,4.554009 -2.364034,4.130322 -0.0041,7.698669 2.705101,10.986206 2.109505,2.55905 4.659136,4.706056 7.259496,6.746875 0.982275,0.77082 1.978519,1.525411 2.986758,2.264834 7.05979,5.177719 14.717537,9.641452 22.380224,14.145966 1.03752,0.595595 2.088445,1.175456 3.154186,1.744874 0.883003,0.486163 1.776237,0.967388 2.680406,1.438664 0.903111,0.469935 1.816806,0.929922 2.740731,1.376538 5.50545,2.658223 12.071703,4.817463 18.113729,5.703713 3.037417,0.44524 6.214886,0.50835 9.177867,-0.3955 3.775781,-1.15069 7.416446,-3.77296 7.394576,-8.063054 -0.0159,-3.17747 -1.17828,-6.637197 -2.30152,-9.297459 -1.509539,-3.57752 -3.423712,-6.981826 -5.46947,-10.280298 -0.957086,-1.541992 -1.891947,-3.096331 -2.851856,-4.6355 -1.071386,-1.718381 -2.168172,-3.424415 -3.361619,-5.063067 -1.066448,-1.463323 -2.111728,-2.964745 -3.161242,-4.433712 -1.917348,-2.682875 -3.999795,-5.305778 -6.195484,-7.770284 -2.874081,-3.224389 -5.435953,-6.643864 -8.52805,-9.691511 -1.256948,-1.239309 -2.383367,-2.540001 -3.532012,-3.871031 -0.723547,-0.838553 -1.422753,-1.59385 -2.222147,-2.380545 -0.843139,-0.829028 -1.690864,-1.697919 -2.459567,-2.554111 -0.90417,-1.005417 -1.890889,-1.939572 -2.770364,-2.950634 -1.490839,-1.71203 -3.182761,-3.182408 -4.737453,-4.815417 -1.785761,-1.876072 -3.606448,-3.722158 -5.494867,-5.498394 -1.96215,-1.844675 -3.927475,-3.670301 -6.020506,-5.43419"
       style="fill:#20aadd;fill-opacity:1;fill-rule:nonzero;stroke:none;stroke-width:0.0352778"
       id="path20" />
    <path
       d="m 44.094671,17.167914 c -1.728964,-1.462264 -3.391958,-2.995083 -5.085644,-4.497917 -0.355953,0.461787 -0.712259,0.92322 -1.068564,1.385006 4.798836,2.027414 8.681156,6.183489 12.405784,9.709503 4.133497,3.91407 8.272639,7.816145 12.30242,11.838518 7.943145,7.927623 15.700023,16.145581 22.707601,24.918813 6.842479,8.566503 12.867218,17.685456 18.315522,27.188585 2.2994,4.010695 4.61468,8.033068 6.3373,12.333498 1.50636,3.76054 3.01977,8.75591 0.97719,12.59198 -1.91241,3.59128 -7.10671,3.17966 -10.44399,2.64873 -2.548815,-0.40503 -5.09834,-1.41856 -7.530743,-2.26 -2.677584,-0.92671 -5.314245,-1.97087 -7.930445,-3.05813 C 75.11654,105.8263 65.609531,100.84497 55.957178,96.058238 46.073755,91.157096 36.420696,85.743685 27.430189,79.332302 23.210614,76.32346 19.046883,73.229951 15.12029,69.84399 11.319956,66.566331 7.3702201,62.915434 4.7319713,58.610839 3.4696794,56.551322 2.5698208,54.281903 2.2886993,51.87243 c -0.1772144,-1.519414 0.8903512,-2.284941 2.201972,-2.671233 2.7169535,-0.800453 5.9757387,-0.252589 8.7411637,0.04057 5.576253,0.59055 11.079022,2.020006 16.447171,3.595159 5.241502,1.538111 10.587673,3.090686 15.633807,5.195711 0.156281,-0.566914 0.312561,-1.13418 0.468842,-1.701094 -6.627637,-1.594203 -20.248211,-3.646312 -23.178595,5.065536 -1.457819,4.333523 1.177396,8.021109 3.863305,11.20634 3.25247,3.857272 7.540766,6.914092 11.622617,9.827684 8.729134,6.23182 18.151829,11.864199 27.705405,16.735426 4.473928,2.281341 9.166578,4.085481 14.018684,5.381241 4.666544,1.24601 9.613548,2.09267 14.408503,1.14472 3.328459,-0.65786 6.661146,-2.55361 8.351666,-5.56394 2.04117,-3.632937 0.33796,-8.604211 -1.02623,-12.159541 C 99.745369,83.272124 97.115763,78.978465 94.498152,74.706326 91.662171,70.077882 88.619463,65.626531 85.417652,61.242914 82.53334,57.29392 79.234162,53.685003 76.092676,49.944147 74.42439,47.957302 72.696837,46.04313 70.866273,44.204452 69.021598,42.351663 67.426337,40.271685 65.577781,38.42066 58.450611,31.28326 51.804277,23.71547 44.094671,17.167914 c -0.861483,-0.731661 -2.115255,0.510117 -1.247069,1.24707 8.019697,6.811081 15.11159,14.630048 22.402096,22.189371 7.655631,7.938206 15.003639,16.378415 21.389623,25.373543 3.244145,4.570236 6.243814,9.29252 9.074151,14.131926 2.704747,4.623858 5.349518,9.754659 5.924548,15.155334 0.55598,5.221392 -3.953226,7.949072 -8.490301,8.846182 -5.175603,1.02348 -10.944226,-0.60991 -15.867593,-2.12823 C 70.031601,99.747235 63.395145,96.041552 56.888864,92.212254 49.878463,88.08613 42.905457,83.876785 36.376599,79.010568 c -3.091392,-2.304344 -6.108207,-4.754033 -8.662812,-7.65422 -2.569775,-2.917472 -5.002001,-6.512983 -2.967884,-10.392481 1.595084,-3.042356 5.430837,-3.872442 8.550593,-4.092575 4.028369,-0.284339 8.101542,0.21978 12.016317,1.161344 1.138414,0.273756 1.489781,-1.275291 0.468842,-1.701094 C 40.731993,54.225106 35.387233,52.692992 30.147813,51.13583 24.99574,49.605127 19.72845,48.293147 14.389122,47.618283 10.49188,47.125452 0.7920123,45.369324 0.51130573,51.52318 0.32499481,55.60482 3.2117106,59.999725 5.7165741,62.952828 c 3.2666519,3.850923 7.0122699,7.26934 10.9208009,10.453865 8.150967,6.641748 16.949069,12.508442 26.098396,17.675579 4.811184,2.717059 9.772298,5.119546 14.670618,7.667943 4.601281,2.393945 9.185981,4.760035 13.890273,6.947255 4.806597,2.23449 9.62025,4.45311 14.523509,6.4692 4.931481,2.02777 10.229851,4.28526 15.539509,5.00916 3.0727,0.41879 6.76381,0.4141 9.33732,-1.58929 2.8314,-2.20349 3.24591,-5.94431 2.84763,-9.28797 -0.50342,-4.22371 -2.34069,-8.244668 -4.23157,-12.007396 -2.04576,-4.071162 -4.38609,-8.017616 -6.69008,-11.946503 C 94.548952,68.579634 84.49796,56.121992 73.654276,44.460922 68.130128,38.520143 62.402428,32.770218 56.5315,27.172693 53.630961,24.407268 50.729363,21.632317 47.754741,18.94662 c -2.69875,-2.435931 -5.541081,-4.985456 -8.92422,-6.414559 -0.845608,-0.357364 -1.88595,0.660048 -1.068564,1.385006 1.693333,1.502833 3.356681,3.036006 5.085645,4.497917 0.862894,0.729897 2.117019,-0.511528 1.247069,-1.24707"
       style="fill:#18abe3;fill-opacity:1;fill-rule:nonzero;stroke:none;stroke-width:0.0352778"
       id="path22" />
    <path
       d="m 37.652243,95.034053 c -2.4003,6.782157 -5.135739,15.223737 -4.134591,21.528967 1.974744,12.43334 14.9243,6.48863 21.800645,2.75774 10.87614,-5.90173 20.458996,-13.40238 30.274685,-20.902086 0.898525,-0.687246 1.789995,-1.378726 2.66947,-2.079731 8.437739,-7.406852 17.257188,-14.815186 25.361898,-22.501156 0.80081,-0.797983 1.60197,-1.599141 2.4056,-2.398536 3.12314,-3.15207 6.33871,-6.213475 9.41881,-9.409289 3.5119,-3.642784 6.92468,-7.550504 9.5504,-11.855804 1.97062,-3.230386 5.05107,-6.443134 5.33929,-10.401653 0.0811,-1.122539 0.18168,-2.27577 -0.0547,-3.38702 -0.22084,-1.039636 -0.55245,-1.66617 -1.35855,-2.314928 -0.34537,-0.277283 -0.73801,-0.487186 -1.14935,-0.645936 -0.78881,-0.304447 -1.64041,-0.414514 -2.47755,-0.486128 -1.15147,-0.09842 -2.31458,-0.03104 -3.45899,0.115711 -2.22638,0.286103 -4.4062,0.882297 -6.53591,1.577975 -4.203,1.372659 -8.18692,3.26637 -12.13803,5.225698 -6.85835,3.402895 -13.721646,7.077781 -20.345755,10.974212 5.744281,-3.378906 12.066055,-4.699353 18.652425,-4.222045 2.07574,0.150636 4.13949,0.718256 5.65114,1.839736 0.37748,0.280106 0.72143,0.595136 1.0213,0.946856 3.60292,6.021564 -1.68875,12.018787 -4.84117,16.515998 -0.36231,0.450145 -0.73378,0.899231 -1.10808,1.347611 -0.74824,0.897114 -1.50601,1.791759 -2.25213,2.691342 -0.43427,0.462492 -0.86572,0.913695 -1.28799,1.353256 -0.42228,0.439561 -0.83503,0.869597 -1.23402,1.287286 -2.7118,2.844095 -5.50192,5.614106 -8.354132,8.317795 -4.367037,4.138083 -8.851901,8.153753 -13.465529,12.016282 -0.893939,0.747183 -1.798461,1.484172 -2.712861,2.210541 -3.656542,2.905443 -7.446787,5.639473 -11.505143,8.126273 -0.65793,0.41342 -1.344436,0.78877 -2.037644,1.15288 -0.692856,0.36364 -1.392767,0.71575 -2.075039,1.08228 -1.227314,0.65857 -2.480028,1.26863 -3.762023,1.81296 -4.291189,1.82027 -8.9662,2.89098 -13.640506,2.37272 -0.529167,-0.0586 -1.056923,-0.14676 -1.573742,-0.27616 -6.602237,-1.64966 -6.949017,-8.67875 -6.06672,-14.488546"
       style="fill:#ea078a;fill-opacity:1;fill-rule:nonzero;stroke:none;stroke-width:0.0352778"
       id="path24" />
    <path
       d="m 36.801696,94.799527 c -1.665817,4.721578 -3.243228,9.498823 -4.013024,14.459623 -0.58868,3.79416 -0.628509,7.86557 1.082463,11.38837 2.703019,5.56645 9.541617,4.60127 14.348214,2.91042 7.832373,-2.75484 15.020221,-7.67994 21.764979,-12.39767 8.871304,-6.20572 17.36831,-12.890856 25.541113,-19.980314 8.537219,-7.404771 16.858189,-14.93693 24.905759,-22.87055 7.27146,-7.168444 14.09171,-14.63287 19.18053,-23.555679 1.72261,-3.021189 2.85538,-8.112478 0.30233,-10.981973 -1.29364,-1.45415 -3.50202,-1.650647 -5.30789,-1.755069 -2.76155,-0.159103 -5.63104,0.591255 -8.25359,1.361369 -5.1682,1.517298 -10.03971,3.921831 -14.84242,6.321426 -5.07295,2.534708 -10.07887,5.203119 -15.015991,7.993239 -1.380772,0.779992 -2.75202,1.575506 -4.119739,2.377722 -0.98037,0.575381 -0.09772,2.09162 0.890058,1.523295 4.665134,-2.683581 9.764182,-4.069998 15.140522,-4.192764 2.52059,-0.05786 5.11245,0.09772 7.39704,1.252714 2.64019,1.334911 2.9905,4.533194 2.39078,7.132461 -1.00048,4.334581 -4.58329,8.42257 -7.37165,11.747148 -3.38137,4.031545 -7.17338,7.742767 -10.956925,11.395782 -7.854597,7.582606 -16.088078,14.977216 -25.129421,21.126133 -4.2926,2.91952 -8.930922,5.58024 -13.837003,7.31862 -4.42842,1.56962 -10.761134,2.79965 -14.961307,0.0296 -3.780014,-2.49231 -3.423708,-8.376677 -2.858206,-12.24979 0.162278,-1.112343 -1.537052,-1.591345 -1.700741,-0.469229 -0.961673,6.588829 -0.106539,14.420499 7.727597,15.781159 9.831918,1.70752 19.83846,-4.2806 27.578758,-9.61182 8.774642,-6.044068 16.756592,-13.311291 24.427388,-20.677644 3.79237,-3.641372 7.5752,-7.367764 10.95693,-11.395781 2.67441,-3.184525 5.55202,-6.683376 7.14551,-10.561109 1.07845,-2.623609 1.48449,-5.586589 0.22472,-8.235951 -1.24001,-2.607733 -4.09504,-3.775428 -6.83859,-4.130675 -6.9783,-0.903464 -14.159799,0.728486 -20.22546,4.217811 0.296686,0.507648 0.593372,1.015648 0.890058,1.523295 4.894439,-2.870906 9.867192,-5.602112 14.903102,-8.215842 5.05319,-2.62255 10.15224,-5.252156 15.49294,-7.24394 2.51284,-0.936977 5.10152,-1.686983 7.74665,-2.134305 2.73649,-0.462845 7.18432,-0.757414 8.0264,2.62008 1.25024,5.016148 -2.77848,9.240309 -5.19607,13.109223 -2.90442,4.648554 -6.52321,8.719609 -10.34027,12.632621 -3.88373,3.981097 -7.8232,7.961489 -11.87238,11.773606 -4.1141,3.873147 -8.3506,7.615062 -12.606516,11.33087 -4.246386,3.707695 -8.407048,7.605537 -12.840406,11.086325 -7.066492,5.548136 -14.252929,11.016616 -21.739932,15.988026 -5.451123,3.6194 -11.226801,7.25509 -17.437807,9.44024 -4.487333,1.57841 -10.28947,2.27184 -12.378549,-3.07027 -1.411782,-3.611 -0.84956,-7.82849 -0.118216,-11.51819 0.819926,-4.13551 2.198828,-8.155097 3.599004,-12.123565 0.379588,-1.075549 -1.325034,-1.53416 -1.700742,-0.469088 v 0"
       style="fill:#eb048a;fill-opacity:1;fill-rule:nonzero;stroke:none;stroke-width:0.0352778"
       id="path26" />
    <text
       xml:space="preserve"
       style="font-style:normal;font-variant:normal;font-weight:bold;font-stretch:normal;font-size:70.5556px;line-height:0.7;font-family:'Louis George Café';-inkscape-font-specification:'Louis George Café Bold';letter-spacing:-4.99004px;baseline-shift:baseline;display:none;fill:#20aadd;fill-opacity:1;stroke:none;stroke-width:0.264583"
       x="82.640335"
       y="-23.45685"
       id="text3043"><tspan
         sodipodi:role="line"
         id="tspan3041"
         style="font-style:normal;font-variant:normal;font-weight:normal;font-stretch:normal;font-size:70.5556px;font-family:'Louis George Café';-inkscape-font-specification:'Louis George Café';baseline-shift:baseline;fill:#20aadd;fill-opacity:1;stroke-width:0.264583"
         x="0"
         y="0"
         dx="0 0 0 0 0 0"
         dy="0 0 0 0 0 -0.0099999998">Grade System</tspan></text>
    <g
       aria-label="System"
       id="text42421"
       style="font-size:63.5px;line-height:0.7;letter-spacing:-4.99004px;fill:#20aadd;stroke-width:0.264583">
      <path
         d="m 179.42448,64.837906 h 0.4961 q 3.1626,0 6.26318,1.64331 0.96118,0.558106 2.1084,1.457276 0.5271,0.434082 1.36426,1.27124 1.17822,1.364258 1.67431,2.201416 0.43409,0.651123 0.68213,1.240234 v 0.03101 l -3.93774,1.79834 q -0.40308,-0.930176 -1.61231,-2.294433 -2.85253,-3.007569 -6.75927,-3.007569 h -0.062 q -3.81373,0 -6.35621,2.294434 -0.93017,0.930176 -1.27124,1.488281 -1.33325,2.139404 -1.33325,4.650879 0,2.666504 1.5813,4.123779 1.17822,1.116211 2.79053,1.829346 2.79053,1.333252 8.86767,2.759521 1.5813,0.434082 2.66651,1.023194 1.33325,0.651123 2.69751,1.860351 1.0852,1.0542 1.39526,1.519287 0.55811,0.744141 0.86817,1.364258 1.48828,2.790528 1.48828,5.76709 v 0.09302 l 0.031,0.124023 -0.031,0.124024 v 0.09302 q 0,3.255612 -1.70533,6.449222 -2.20141,3.93774 -6.66626,5.70508 -2.60449,0.96118 -5.05395,0.96118 h -0.5271 q -3.06958,0 -6.26318,-1.51929 -1.0232,-0.5271 -2.20142,-1.39526 -1.73633,-1.33326 -3.10059,-3.1316 -0.99218,-1.39526 -1.64331,-2.69751 -0.5581,-1.17822 -0.5581,-1.24023 0.12402,-0.062 3.99975,-1.674316 0.65113,1.519286 1.5503,2.790526 0.34106,0.5271 1.36425,1.5813 1.27125,1.20923 2.17042,1.64331 2.32543,1.30225 4.89892,1.30225 h 0.15503 q 3.00757,0 5.64307,-1.76734 0.58911,-0.37207 1.39526,-1.20923 1.24023,-1.42627 1.76733,-3.1936 0.43409,-1.426269 0.43409,-2.759521 v -0.09302 q 0,-3.255615 -2.20142,-5.519043 -1.14722,-0.992187 -1.82935,-1.27124 -0.43408,-0.279053 -1.30224,-0.558105 -0.62012,-0.217041 -3.19361,-0.837159 -5.14697,-1.333252 -7.84448,-2.790527 -5.98413,-3.162598 -5.98413,-9.332764 v -0.248046 q 0,-3.906739 2.32544,-7.317383 0.37207,-0.558106 1.36426,-1.612305 1.14722,-1.085205 1.95337,-1.550293 1.30224,-0.868164 2.91455,-1.426269 2.35644,-0.744141 4.52685,-0.744141 z"
         style="font-family:'Louis George Café';-inkscape-font-specification:'Louis George Café'"
         id="path80" />
      <path
         d="m 196.29358,81.333023 q 0.12402,0 1.42626,3.255615 l 8.4336,20.091802 q 0.12402,-0.15503 3.62768,-8.278569 6.38721,-15.037842 6.48023,-15.068848 h 4.68188 v 0.03101 l -16.49511,38.447261 -1.89136,4.34082 h -4.68189 v -0.031 l 5.92212,-13.92163 -12.37133,-28.835451 0.031,-0.03101 z"
         style="font-family:'Louis George Café';-inkscape-font-specification:'Louis George Café'"
         id="path82" />
      <path
         d="m 231.08405,80.867935 h 0.43409 q 3.16259,0 6.01513,1.519287 0.93018,0.465088 1.98438,1.333252 0.96118,0.837158 1.51928,1.550293 0.46509,0.620117 0.46509,0.713135 -2.82153,1.612305 -3.7207,2.201416 h -0.031 q -0.5581,-0.837158 -1.67431,-1.612305 -2.01538,-1.364258 -4.80591,-1.364258 -3.25562,0 -5.302,1.612305 -1.39527,1.240235 -1.39527,2.728516 0,1.116211 0.89917,1.705322 0.34107,0.310059 0.96118,0.589111 1.36426,0.713135 4.65088,1.488282 1.5503,0.310058 3.93775,0.775146 1.51928,0.37207 2.54248,0.868164 0.93017,0.434082 1.89136,1.147217 0.27905,0.186035 1.14721,1.085205 1.86035,2.201416 1.86035,4.774907 v 0.18603 q 0,2.75952 -2.01538,5.20898 -0.80615,0.86817 -1.27124,1.20923 -0.99219,0.71314 -1.79834,1.11621 -2.97656,1.39527 -6.10815,1.39527 h -0.40308 q -3.44165,0 -6.60425,-1.67432 -3.03857,-1.73633 -4.71289,-4.74389 0.031,-0.062 1.79834,-1.0232 l 1.98438,-1.0852 q 1.42627,2.48047 4.15478,3.56567 1.70533,0.62012 3.59668,0.62012 2.72852,0 4.89893,-1.27124 0.43408,-0.21704 1.11621,-0.86817 1.02319,-1.20923 1.02319,-2.54248 0,-2.04638 -2.57348,-3.255612 -0.62012,-0.279053 -1.79834,-0.558106 -4.96094,-0.868164 -7.78247,-1.891357 -5.73609,-2.108399 -5.73609,-6.790283 v -0.09302 q 0,-2.821533 2.13941,-5.208984 1.02319,-1.023194 1.42627,-1.240235 1.36425,-0.992187 3.22461,-1.550293 2.04638,-0.620117 4.06176,-0.620117 z"
         style="font-family:'Louis George Café';-inkscape-font-specification:'Louis George Café'"
         id="path84" />
      <path
         d="m 245.96877,65.396011 h 4.30981 l 0.031,0.03101 v 15.906006 h 7.99951 l 0.031,0.03101 v 4.309814 l -0.031,0.03101 h -7.99951 v 17.022221 q 0,1.27124 0.65112,2.35644 0.65112,0.86817 1.76733,1.20923 0.4961,0.15503 0.86817,0.15503 h 0.18603 q 1.14722,0 3.22461,-0.80615 l 0.37207,-0.18604 q 1.5813,3.47266 1.76734,3.96875 -0.43409,0.24805 -1.76734,0.71314 -2.17041,0.65112 -3.41064,0.65112 h -0.5271 q -1.64331,0 -3.47266,-0.96118 -2.44946,-1.33325 -3.41064,-3.87573 -0.58911,-1.61231 -0.58911,-3.50367 V 85.704849 h -4.86792 l -0.031,-0.03101 v -4.309814 l 0.031,-0.03101 h 4.86792 z"
         style="font-family:'Louis George Café';-inkscape-font-specification:'Louis George Café'"
         id="path86" />
      <path
         d="m 272.38766,81.05397 q 6.38721,0 10.94507,5.643067 3.00757,4.433838 3.00757,8.650635 v 0.37207 q 0,1.426269 -0.18603,1.426269 h -23.53345 q 0,1.488282 1.24023,4.185789 1.86036,3.47266 5.36402,4.83692 1.70532,0.5581 3.06958,0.5581 4.2478,0 7.34839,-3.6897 1.0852,-1.48828 1.42627,-2.38745 h 0.062 q 2.51147,0.99219 3.93774,1.67432 -0.68213,1.95337 -3.03857,4.55786 -4.27881,4.18579 -9.70484,4.18579 -6.48022,0 -11.06909,-5.67407 -3.00757,-4.30981 -3.00757,-9.146729 v -0.279052 q 0,-6.201172 4.43384,-10.852051 4.15479,-4.061768 9.70483,-4.061768 z m -9.33276,11.813233 h 18.54151 q -1.30225,-4.061768 -4.40284,-5.984131 -2.26342,-1.457275 -4.92993,-1.457275 -4.52685,0 -7.72046,4.216796 -0.99219,1.457276 -1.48828,3.22461 z"
         style="font-family:'Louis George Café';-inkscape-font-specification:'Louis George Café'"
         id="path88" />
      <path
         d="m 301.31804,81.333023 h 0.5271 q 6.8833,0 10.32495,4.247803 3.41064,-4.247803 10.20093,-4.247803 h 0.86816 q 8.34058,0 11.47217,6.077149 0.99219,2.17041 0.99219,4.464843 v 18.820555 l -0.062,0.093 h -4.1858 l -0.093,-0.093 V 91.937027 q 0,-3.720703 -3.72071,-5.519043 -1.82934,-0.744141 -4.21679,-0.744141 h -1.0542 q -5.8291,0 -7.56543,3.937745 -0.46509,1.085205 -0.46509,2.883544 v 18.200438 l -0.093,0.093 h -4.18579 l -0.062,-0.093 V 92.154068 q 0,-4.557861 -4.68189,-6.077148 -1.0852,-0.403077 -4.2478,-0.403077 -3.87573,0 -5.79809,1.612305 -2.32544,1.519287 -2.32544,5.115967 v 18.293455 l -0.093,0.093 h -4.15479 l -0.093,-0.093 V 81.860123 l 0.093,-0.09302 h 4.15479 l 0.093,0.09302 v 2.883545 q 3.41064,-3.410645 8.37158,-3.410645 z"
         style="font-family:'Louis George Café';-inkscape-font-specification:'Louis George Café'"
         id="path90" />
    </g>
    <g
       aria-label="Grade
"
       id="text60172"
       style="font-size:63.5px;line-height:0.7;letter-spacing:-4.99004px;fill:#20aadd;stroke-width:0.264583">
      <path
         d="m 167.20557,15.956146 h 0.37207 q 8.03051,0 14.44873,6.418213 2.44946,2.728516 3.65869,5.115967 l 0.15503,0.403076 q -3.6897,1.922363 -3.87573,1.922363 h -0.031 q -0.68213,-1.705322 -3.03857,-4.402832 -5.02295,-5.115966 -11.41016,-5.115966 h -0.24805 q -6.97632,0 -12.30932,6.108154 -4.2168,5.488037 -4.2168,12.092285 v 0.310059 q 0,6.635254 4.2168,12.061279 5.27099,6.13916 12.43335,6.13916 6.04614,0 10.88305,-4.464844 2.54248,-2.635498 3.19361,-4.154785 0.86816,-1.302246 1.76733,-4.061767 0.27905,-0.930176 0.5271,-2.263428 h -12.43335 l -0.093,-0.09302 v -4.154785 l 0.093,-0.09302 h 17.05322 l 0.093,0.09302 q 0,3.534668 -0.93018,7.379395 -2.26342,7.503418 -7.99951,11.999267 -5.64306,4.154785 -12.15429,4.154785 -7.99952,0 -14.2627,-6.015136 -2.57349,-2.728516 -3.7207,-4.960938 -3.00757,-5.519043 -3.00757,-11.503174 v -0.37207 q 0,-8.867676 6.01514,-15.750977 2.6665,-2.759521 4.49585,-3.782714 4.96093,-3.007569 10.32495,-3.007569 z"
         style="font-family:'Louis George Café';-inkscape-font-specification:'Louis George Café'"
         id="path51" />
      <path
         d="m 203.91841,31.676117 q 3.31762,0 5.76709,1.457275 l -0.96118,4.619873 h -0.031 q -2.75952,-1.612304 -5.08496,-1.612304 -5.17798,0 -7.25537,4.774902 -0.46509,1.147217 -0.46509,2.356445 v 17.983399 l -0.093,0.09302 h -4.15478 l -0.093,-0.09302 V 32.358246 l 0.093,-0.09302 h 4.15478 l 0.093,0.09302 v 2.511474 h 0.031 q 1.36425,-1.891357 3.99975,-2.666503 2.04639,-0.5271 3.99976,-0.5271 z"
         style="font-family:'Louis George Café';-inkscape-font-specification:'Louis George Café'"
         id="path53" />
      <path
         d="m 223.29897,31.583099 q 6.10816,0 9.73584,5.02295 l 0.093,0.186035 h 0.031 V 31.95517 l 0.062,-0.09302 h 4.18579 l 0.093,0.09302 v 29.300537 l -0.093,0.09302 h -4.18579 l -0.062,-0.09302 v -4.774903 h -0.031 q -3.34863,5.146973 -10.10791,5.146973 v -0.03101 l -0.062,0.03101 q -6.01514,0 -10.54199,-4.836914 -3.78272,-4.526855 -3.78272,-9.983887 v -0.37207 q 0,-5.829102 4.18579,-10.417969 4.40283,-4.433838 10.47998,-4.433838 z m -10.32495,14.913819 v 0.155029 q 0,5.177979 4.15479,8.588623 2.60449,2.015381 5.79809,2.015381 6.72827,0 9.30176,-6.604248 0.68213,-1.922363 0.68213,-3.844727 v -0.682129 q 0,-2.697509 -1.70532,-5.643066 -2.91455,-4.49585 -7.78247,-4.49585 -6.57325,0 -9.54981,6.201172 -0.89917,2.201416 -0.89917,4.309815 z"
         style="font-family:'Louis George Café';-inkscape-font-specification:'Louis George Café'"
         id="path55" />
      <path
         d="m 264.7247,15.956146 h 4.18579 l 0.093,0.09302 v 45.237549 l -0.093,0.06201 h -4.18579 l -0.062,-0.06201 v -4.805909 h -0.031 q -3.34863,5.146973 -10.10791,5.146973 v -0.03101 l -0.062,0.03101 q -6.01514,0 -10.54199,-4.836914 -3.78272,-4.526855 -3.78272,-9.983887 v -0.37207 q 0,-5.829102 4.1858,-10.417969 4.40283,-4.433838 10.47998,-4.433838 6.10815,0 9.73584,5.02295 l 0.093,0.186035 h 0.031 v -20.74292 z m -20.24683,30.540772 v 0.155029 q 0,5.177979 4.15479,8.588623 2.60449,2.015381 5.7981,2.015381 6.72827,0 9.30175,-6.604248 0.68213,-1.922363 0.68213,-3.844727 v -0.682129 q 0,-2.697509 -1.70532,-5.643066 -2.91455,-4.49585 -7.78247,-4.49585 -6.57324,0 -9.54981,6.201172 -0.89917,2.201416 -0.89917,4.309815 z"
         style="font-family:'Louis George Café';-inkscape-font-specification:'Louis George Café'"
         id="path57" />
      <path
         d="m 284.94243,31.614105 q 6.38721,0 10.94507,5.643067 3.00757,4.433838 3.00757,8.650634 v 0.372071 q 0,1.426269 -0.18604,1.426269 h -23.53345 q 0,1.488281 1.24024,4.185791 1.86035,3.472657 5.36401,4.836914 1.70532,0.558106 3.06958,0.558106 4.2478,0 7.34839,-3.689697 1.0852,-1.488282 1.42627,-2.387452 h 0.062 q 2.51148,0.992188 3.93775,1.674317 -0.68213,1.953369 -3.03858,4.557861 -4.27881,4.185791 -9.70483,4.185791 -6.48023,0 -11.06909,-5.674072 -3.00757,-4.309815 -3.00757,-9.146729 v -0.279052 q 0,-6.201172 4.43383,-10.852051 4.15479,-4.061768 9.70484,-4.061768 z m -9.33277,11.813233 h 18.54151 q -1.30225,-4.061768 -4.40283,-5.984131 -2.26343,-1.457276 -4.92993,-1.457276 -4.52686,0 -7.72046,4.216797 -0.99219,1.457276 -1.48829,3.22461 z"
         style="font-family:'Louis George Café';-inkscape-font-specification:'Louis George Café'"
         id="path59" />
    </g>
  </g>
</svg>
