<?xml version="1.0" encoding="UTF-8" standalone="no"?>
<!-- Created with Inkscape (http://www.inkscape.org/) -->

<svg
   width="210mm"
   height="50mm"
   viewBox="0 0 210 50"
   version="1.1"
   id="svg5"
   sodipodi:docname="gsicon.svg"
   inkscape:version="1.1.1 (3bf5ae0d25, 2021-09-20)"
   xmlns:inkscape="http://www.inkscape.org/namespaces/inkscape"
   xmlns:sodipodi="http://sodipodi.sourceforge.net/DTD/sodipodi-0.dtd"
   xmlns="http://www.w3.org/2000/svg"
   xmlns:svg="http://www.w3.org/2000/svg">
  <sodipodi:namedview
     id="namedview7"
     pagecolor="#505050"
     bordercolor="#ffffff"
     borderopacity="1"
     inkscape:pageshadow="0"
     inkscape:pageopacity="0"
     inkscape:pagecheckerboard="1"
     inkscape:document-units="mm"
     showgrid="false"
     inkscape:snap-global="true"
     inkscape:lockguides="false"
     height="49mm"
     inkscape:zoom="1.0381216"
     inkscape:cx="433.95685"
     inkscape:cy="201.80679"
     inkscape:window-width="1920"
     inkscape:window-height="1009"
     inkscape:window-x="-8"
     inkscape:window-y="-8"
     inkscape:window-maximized="1"
     inkscape:current-layer="text759" />
  <defs
     id="defs2" />
  <g
     inkscape:label="Layer 1"
     inkscape:groupmode="layer"
     id="layer1">
    <g
       aria-label="Grade System"
       transform="scale(1.0406312,0.96095528)"
       id="text759"
       style="font-size:44.5693px;line-height:1.25;stroke-width:1.11424">
      <path
         d="M 25.501586,8.9001118 Q 26.15527,7.2361912 25.976992,6.4042309 25.858141,5.5128448 25.085606,5.4534191 q -0.772534,-0.1188515 -2.0799,0.5348316 -1.307367,0.5942574 -3.030713,1.9016236 -2.971287,2.2581777 -5.823722,5.4671677 -2.852435,3.20899 -5.0511876,6.952811 -2.1393264,3.684396 -3.3872669,7.66592 -1.1885147,3.922098 -0.8319603,7.606494 0.237703,2.377029 1.2479405,3.149564 1.0696632,0.772535 2.5553066,0.41598 1.5450687,-0.356554 3.2684157,-1.604495 1.782772,-1.188514 3.387267,-2.793009 1.604495,-1.663921 2.852435,-3.387267 1.24794,-1.723347 1.782772,-3.090138 0.297129,-0.713109 0.534832,-1.54507 0.297128,-0.891386 0.594257,-1.723346 0.356554,-0.950812 0.594257,-1.545069 0.237703,-0.653683 0.178278,-0.653683 0,-0.05943 -0.594258,0.178277 -0.534831,0.178277 -1.307366,0.534832 -3.387267,1.426217 -5.229465,1.485643 -1.842197,0.05943 -3.030712,-1.188515 -0.83196,-0.83196 -1.129089,-1.66392 -0.237703,-0.831961 0.178277,-1.069663 0.118852,-0.05943 0.772535,-0.05943 0.713108,-0.05943 1.604494,-0.118852 0.891386,0 1.723347,-0.05943 0.891386,-0.05943 1.901623,-0.178278 1.010238,-0.118851 2.258178,-0.297128 1.247941,-0.178277 2.911861,-0.475406 1.129089,-0.237703 2.37703,-0.356555 1.24794,-0.178277 2.377029,-0.237703 1.188515,-0.05943 2.079901,0 0.950812,0 1.307366,0.118852 1.545069,0.475406 1.961049,1.663921 0.237703,0.772534 0,1.188514 -0.534831,1.010238 -1.426217,0.237703 -0.475406,-0.41598 -0.356555,-0.83196 l 0.05943,-0.356555 -1.663921,0.05943 q -0.297128,0 -0.83196,0.05943 -0.475406,0 -0.950812,0.05943 -0.475406,0.05943 -0.891386,0.118851 -0.356554,0 -0.41598,0 -0.118851,0.05943 -0.41598,0.475406 -0.237703,0.41598 -0.41598,0.950812 -0.713109,1.782772 -1.188515,3.149564 -0.475406,1.366792 -0.891386,2.555306 -0.356554,1.188515 -0.713109,2.37703 -0.297128,1.188515 -0.653683,2.495881 -0.83196,2.852435 -1.188514,4.87291 -0.297129,2.079901 -0.356555,3.446693 -0.05943,1.366792 0.05943,2.020475 0.178277,0.713109 0.297129,0.83196 0.118851,0.05943 0.475405,-0.118851 0.356555,-0.178278 0.713109,-0.356555 0.772535,-0.178277 1.010238,0.178277 0.297128,0.41598 -0.356555,0.950812 -1.010237,0.83196 -2.198752,0.772535 -1.129089,0 -2.079901,-0.653683 -1.485643,-1.069664 -1.961049,-2.436456 -0.41598,-1.366792 -0.05943,-3.803247 0.05943,-0.713108 0.475406,-1.901623 -0.83196,0.891386 -1.901623,1.723346 -1.069664,0.83196 -2.317604,1.426218 -1.188515,0.594257 -2.4364551,0.83196 Q 8.2086974,41.643692 7.1390342,41.346563 6.1287967,41.049435 5.1185592,40.2769 4.1083217,39.563791 3.2763614,38.672405 0.83990622,36.354802 0.42392607,32.789257 0.06737165,29.164288 1.3747378,25.004486 2.7415298,20.785259 5.7128165,16.44718 8.6841033,12.049676 13.022182,8.2464287 q 2.495881,-2.0799008 5.28889,-3.6843956 2.79301,-1.6044949 4.872911,-2.0799008 1.366792,-0.2971286 2.911861,0.059426 1.604495,0.3565544 2.674158,1.3667919 0.950812,0.891386 0.891386,2.5553066 0,1.6044949 -0.653683,3.3872669 -0.594258,1.7233465 -1.604495,3.2684155 -1.010238,1.545069 -2.079901,2.258178 -1.24794,0.83196 -2.495881,0.594257 -1.24794,-0.297128 -1.901623,-1.426217 -0.178277,-0.713109 0.178277,-0.891386 0.41598,-0.178278 0.713109,0.237703 0.237703,0.297128 0.653683,-0.05943 0.475406,-0.41598 1.010237,-1.129089 0.534832,-0.772535 1.069664,-1.782772 0.534831,-1.0102377 0.950811,-2.0204752 z"
         style="font-family:Rockabilly;-inkscape-font-specification:Rockabilly;fill:#ffffff"
         id="path17933" />
      <path
         d="m 37.802656,18.467655 q 0.653683,0.118852 1.188514,0.475406 0.594258,0.297129 0.772535,0.713109 0.297129,0.41598 -0.05943,1.426218 -0.356554,0.950811 -0.772534,2.0799 -0.772535,1.545069 -0.950812,2.614733 -0.118852,1.069663 0.05943,1.307366 0.237703,0.713109 -1.247941,0.713109 -1.901623,0 -2.614732,-1.010238 -0.653683,-1.069663 0.118851,-2.793009 0.118852,-0.237703 0.356555,-0.831961 0.118851,-0.237703 0.178277,-0.475406 -0.475406,0.534832 -1.069663,1.485644 -0.534832,0.891386 -1.069664,1.961049 -0.534831,1.010238 -1.010237,2.020475 -0.41598,0.950812 -0.653683,1.545069 -0.653683,1.604495 -1.069663,2.911861 -0.415981,1.247941 -0.891386,2.198752 -0.475406,1.069664 -0.950812,1.247941 -0.41598,0.118851 -1.247941,0.41598 -0.594257,0.237703 -1.24794,0.178277 -0.713109,0 -1.069663,-0.297128 -0.41598,-0.237703 -0.594258,-1.663921 -0.05942,-0.475406 0.118852,-1.485643 0.118851,-1.069664 0.41598,-2.37703 0.237703,-1.307366 0.653683,-2.793009 0.356554,-1.485644 0.891386,-2.911861 0.237703,-0.772535 0.594257,-1.782773 0.356555,-1.069663 0.713109,-2.020475 0.41598,-1.010237 0.831961,-1.782772 0.475405,-0.772534 0.950811,-1.069663 0.297129,-0.178277 0.772535,-0.118851 0.475406,0.05942 0.950812,0.237703 0.534831,0.178277 0.891386,0.41598 0.356554,0.237703 0.475406,0.41598 0.05943,0.237703 -0.415981,1.485643 -0.475405,1.247941 -1.307366,3.030713 -0.475406,0.891386 -0.891386,2.020475 -0.356554,1.129089 -0.713109,2.139326 -0.297128,1.010238 -0.475406,1.842198 -0.178277,0.83196 -0.178277,1.129089 0,0.05943 0.356555,-0.772534 0.356554,-0.891386 0.713109,-1.604495 1.426217,-3.090139 2.911861,-5.407742 1.545069,-2.37703 2.793009,-3.446693 0.83196,-0.83196 1.426218,-1.129089 0.653683,-0.297129 1.366792,-0.237703 z"
         style="font-family:Rockabilly;-inkscape-font-specification:Rockabilly;fill:#ffffff"
         id="path17935" />
      <path
         d="m 51.945917,36.295376 q -1.366792,0.297129 -2.436455,-0.356555 -0.713109,-0.475405 -1.069663,-1.366792 -0.297129,-0.950811 -0.415981,-1.782772 -0.178277,-1.188514 0,-2.49588 0.05943,-0.356555 0.05943,-0.713109 0.05943,-0.356555 0.178277,-0.653683 -0.950811,1.426217 -2.258178,3.268415 -1.24794,1.782772 -2.198752,2.852435 -0.772534,0.891386 -1.901623,1.426218 -1.069663,0.594257 -2.079901,0.118852 -1.188515,-0.534832 -1.782772,-2.020476 -0.653683,-1.545069 -0.237703,-3.803247 0.297129,-1.723346 1.188515,-3.565544 0.83196,-1.901623 1.961049,-3.506118 1.129089,-1.663921 2.377029,-2.911861 1.247941,-1.247941 2.317604,-1.782772 0.653683,-0.297129 1.485643,-0.475406 0.891386,-0.178277 1.663921,0 0.83196,0.118851 1.426218,0.713109 0.594257,0.534831 0.772534,1.782772 l 0.831961,-1.901624 q 0.41598,-0.891386 1.307366,-0.713109 0.356554,0.118852 0.83196,0.297129 0.475406,0.178277 0.891386,0.475406 0.41598,0.237703 0.653683,0.594257 0.237703,0.356555 0.118852,0.772535 -0.05943,0.118851 -0.237703,0.653683 -0.178278,0.534832 -0.831961,1.901624 -0.713108,1.426217 -1.129089,2.555306 -0.356554,1.129089 -0.653683,2.020475 -0.237703,0.891386 -0.41598,1.663921 -0.118851,0.772534 -0.297128,1.545069 -0.05943,0.297129 -0.178278,0.891386 -0.05942,0.594257 -0.05942,1.129089 0,0.475406 0.118851,0.772534 0.118852,0.237703 0.475406,-0.05943 0.713109,-0.653683 2.020475,-2.436455 1.366792,-1.842198 2.436455,-3.743822 l 0.41598,-0.713109 1.366792,0.891386 q -0.356554,0.653684 -0.83196,1.604495 -0.475406,0.950812 -1.129089,2.020475 -0.594257,1.010238 -1.247941,2.020475 -0.653683,0.950812 -1.366791,1.663921 -1.010238,1.069663 -2.139327,1.366792 z m -9.924098,-4.04095 q -0.178277,1.129089 0,1.426217 0.237703,0.237703 1.188515,-1.069663 1.545069,-2.139326 2.614732,-3.862673 1.129089,-1.723346 1.96105,-3.030712 0.237702,-0.41598 0.594257,-1.188515 0.41598,-0.772534 0.653683,-1.545069 0.297129,-0.83196 0.356554,-1.485643 0.118852,-0.713109 -0.178277,-0.950812 -0.475406,-0.356554 -1.129089,0.178277 -0.653683,0.534832 -1.426217,1.604495 -0.772535,1.069663 -1.54507,2.495881 -0.772534,1.426218 -1.426217,2.852435 -0.653683,1.426218 -1.129089,2.674158 -0.41598,1.247941 -0.534832,1.901624 z"
         style="font-family:Rockabilly;-inkscape-font-specification:Rockabilly;fill:#ffffff"
         id="path17937" />
      <path
         d="m 68.347371,36.592505 q -0.475406,0.118851 -1.129089,-0.237703 -0.653683,-0.297129 -1.188514,-0.831961 -0.534832,-0.534831 -0.891387,-1.24794 -0.356554,-0.713109 -0.237702,-1.366792 0.178277,-1.426218 0.41598,-2.555307 0.237703,-1.188514 0.475406,-2.020475 v -0.05943 q -0.237703,0.297128 -0.356555,0.534831 -0.118851,0.237703 -0.05943,0.118852 -0.950811,1.426217 -2.258178,3.268415 -1.24794,1.782772 -2.198752,2.852435 -0.772534,0.891386 -1.901623,1.426218 -1.069664,0.594257 -2.079901,0.118852 -1.188515,-0.534832 -1.782772,-2.020476 -0.653683,-1.545069 -0.237703,-3.803247 0.297129,-1.723346 1.188515,-3.565544 0.83196,-1.901623 1.961049,-3.506118 1.129089,-1.663921 2.377029,-2.911861 1.247941,-1.247941 2.317604,-1.782772 0.653683,-0.297129 1.485643,-0.475406 0.831961,-0.178277 1.604495,0 0.772535,0.118851 1.366792,0.653683 0.653683,0.475406 0.831961,1.604495 2.198752,-5.883148 3.743821,-9.508118 1.604495,-3.6843954 2.495881,-5.7642962 0.178277,-0.3565544 0.534831,-1.2479404 0.356555,-0.891386 0.831961,-1.7233463 0.534831,-0.8913861 1.129089,-1.4856434 0.653683,-0.6536831 1.366792,-0.4754059 0.653683,0.11885148 1.545069,0.5942574 0.950811,0.4754058 1.188514,0.8319603 l 0.297129,0.4159801 -2.614732,4.932336 q -1.307366,2.3770295 -2.614733,5.1700394 -1.24794,2.793009 -2.436455,5.645445 -1.129089,2.852435 -2.079901,5.526593 -0.891386,2.674158 -1.485643,4.813484 -0.237703,0.950812 -0.475406,2.258178 -0.178277,1.247941 -0.237703,2.079901 0,1.188515 0.178277,0.950812 0.237703,-0.297129 1.069664,-1.129089 0.891386,-1.010238 1.961049,-2.377029 1.129089,-1.426218 1.961049,-2.79301 l 0.41598,-0.713109 1.366792,0.891386 q -0.356554,0.653683 -0.891386,1.604495 -0.534831,0.891386 -1.188514,1.901624 -0.653684,0.950811 -1.366792,1.901623 -0.713109,0.950812 -1.426218,1.663921 -0.653683,0.653683 -1.366792,1.188514 -0.653683,0.475406 -1.604495,0.653684 z m -9.210989,-4.338079 q -0.178277,1.129089 0,1.426217 0.237703,0.237703 1.188515,-1.069663 1.545069,-2.139326 2.614732,-3.862673 1.129089,-1.723346 1.96105,-3.030712 0.237702,-0.41598 0.594257,-1.188515 0.41598,-0.772534 0.653683,-1.545069 0.297129,-0.83196 0.356554,-1.485643 0.118852,-0.713109 -0.178277,-0.950812 -0.475406,-0.356554 -1.129089,0.178277 -0.653683,0.534832 -1.426217,1.604495 -0.772535,1.069663 -1.54507,2.495881 -0.772534,1.426218 -1.426217,2.852435 -0.653683,1.426218 -1.129089,2.674158 -0.41598,1.247941 -0.534832,1.901624 z"
         style="font-family:Rockabilly;-inkscape-font-specification:Rockabilly;fill:#ffffff"
         id="path17939" />
      <path
         d="m 84.035759,34.690881 q -1.069663,1.010237 -2.436455,1.545069 -1.366792,0.534832 -2.971287,0.534832 -2.614732,-0.05943 -3.803247,-1.426218 -1.188515,-1.366792 -1.426218,-3.20899 -0.297128,-1.842197 0.178277,-3.743821 0.475406,-1.961049 1.129089,-3.268415 1.307367,-2.495881 2.614733,-3.922099 1.366792,-1.426218 3.090138,-2.198752 1.010238,-0.41598 2.198752,-0.475406 1.188515,-0.05943 2.139327,0.237703 1.010237,0.237703 1.604495,0.772534 0.653683,0.534832 0.594257,1.307367 -0.118852,1.307366 -0.891386,2.852435 -0.713109,1.485643 -1.842198,2.852435 -1.069663,1.366792 -2.436455,2.436455 -1.307366,1.010238 -2.614732,1.426218 -0.415981,0.118851 -0.772535,0.237703 -0.356554,0.05943 -0.534832,0.118851 -0.237703,1.426218 0,2.436456 0.237703,1.010237 0.891386,1.426217 0.653684,0.356555 1.604495,0.05943 1.010238,-0.356554 2.317604,-1.545069 1.366792,-1.188515 2.495881,-2.733584 1.129089,-1.545069 1.961049,-2.971287 l 0.41598,-0.713109 1.366792,0.891386 q -0.594257,1.129089 -1.782772,3.149564 -1.129089,2.020475 -3.090138,3.922099 z m -5.883148,-5.764296 q -0.118851,0.356554 -0.05943,0.297128 0.05943,-0.05943 0.534832,-0.237703 0.891386,-0.41598 1.782772,-1.307366 0.950812,-0.950812 1.723346,-1.961049 0.772535,-1.069663 1.307367,-2.079901 0.594257,-1.010237 0.772534,-1.604495 0.118852,-0.297128 0.178277,-0.772534 0.05943,-0.475406 -0.178277,-0.594258 -0.237703,-0.118851 -0.713109,0.237703 -0.41598,0.297129 -0.475406,0.356555 -1.901623,1.723346 -3.149564,3.862673 -1.188514,2.139326 -1.723346,3.803247 z"
         style="font-family:Rockabilly;-inkscape-font-specification:Rockabilly;fill:#ffffff"
         id="path17941" />
      <path
         d="m 124.02914,10.861161 q -0.17828,0.653683 -0.71311,0.653683 -0.53483,-0.05943 -1.06966,-0.475406 -0.53484,-0.475406 -0.89139,-1.1290887 -0.29713,-0.7131089 -0.11885,-1.3667919 0.41598,-1.5450692 0.89138,-2.7335839 0.47541,-1.1885147 1.01024,-2.1393265 -0.4754,0.059426 -1.24794,0.2971287 -0.71311,0.237703 -1.54507,0.5348316 -0.89138,0.4159802 -2.25818,1.2479405 -1.36679,0.7725346 -2.61473,1.7233463 -1.24794,0.9508118 -2.19875,1.9610493 -0.89139,1.0102376 -0.89139,1.8421976 0,0.713109 1.01024,1.663921 1.01024,0.950812 3.44669,2.317603 2.73359,1.485644 4.27866,2.674159 1.54507,1.129089 2.3176,2.198752 0.77254,1.010237 0.95081,1.961049 0.17828,0.950812 0.17828,2.079901 0,1.604495 -0.71311,3.62497 -0.71311,1.961049 -2.02047,4.04095 -1.24794,2.020475 -3.03072,3.862672 -1.72334,1.842198 -3.80324,3.149564 -2.0799,1.307367 -4.39751,1.842198 -2.25818,0.534832 -4.63521,-0.05943 -2.67415,-0.653684 -4.75405,-2.555307 -2.020479,-1.901624 -2.317608,-5.407742 -0.178277,-2.258178 0.534832,-4.575782 0.772536,-2.377029 1.961046,-4.338078 1.24794,-1.96105 2.73359,-3.20899 1.54507,-1.247941 2.97128,-1.307366 1.3668,-0.05943 2.0799,0.475406 0.71311,0.534831 0.41598,1.545069 -0.2377,0.653683 -0.41598,0.594257 -0.17827,-0.05943 -0.4754,-0.237703 -0.2377,-0.237703 -0.65368,-0.237703 -0.35656,0 -1.01024,0.772535 -1.36679,1.723346 -1.96105,3.149564 -0.59426,1.426217 -1.12909,2.971287 -0.29713,1.129089 -0.47541,2.020475 -0.11885,0.891386 -0.11885,2.317603 0,0.950812 0.17828,1.961049 0.17828,0.950812 0.53483,1.723347 0.35656,0.772534 0.89139,1.307366 0.53483,0.534832 1.30736,0.594257 1.3668,0.118852 2.97129,-0.594257 1.6045,-0.713109 3.14956,-1.961049 1.54507,-1.247941 2.91187,-2.971287 1.42621,-1.723346 2.37702,-3.62497 1.01024,-1.961049 1.48565,-3.981524 0.4754,-2.079901 0.2377,-3.981524 -0.11885,-0.950812 -1.18851,-2.37703 -1.01024,-1.426218 -3.9221,-2.971287 -3.26842,-1.723346 -4.81349,-3.208989 -1.54507,-1.545069 -1.54507,-2.9118614 0,-1.3073662 1.24794,-2.7335838 1.24795,-1.4262177 3.14957,-2.6147324 1.90162,-1.1885147 4.10037,-1.9610493 2.25818,-0.7725345 4.21923,-0.7725345 1.24794,0 2.13933,0.1782772 0.89138,0.1188514 1.54507,0.4159801 1.24794,-1.12908895 2.91186,-1.0696632 0.95081,0.1188515 1.72334,0.7131088 0.83196,0.5942574 1.24794,1.129089 0.17828,0.2971287 0.11886,0.6536831 0,0.3565544 -0.17828,0.6536831 -0.11885,0.2971286 -0.35656,0.4159801 -0.17827,0.1188515 -0.41598,-0.1188515 -0.53483,-0.5942573 -1.36679,-0.2377029 -0.77253,0.3565544 -1.54507,1.2479404 -0.77253,0.8913861 -1.42621,2.0204751 -0.65369,1.1290889 -0.95082,2.020475 -0.0594,0.1188514 -0.11885,0.5348311 -0.0594,0.415981 0.0594,0.772535 z"
         style="font-family:Rockabilly;-inkscape-font-specification:Rockabilly;fill:#ffffff"
         id="path17943" />
      <path
         d="m 134.25031,27.381516 q 0.35655,-0.534832 0.71311,-1.129089 0.35655,-0.594258 0.65368,-1.129089 l 0.0594,-0.237703 q 1.01023,-2.079901 1.60449,-3.803247 0.65369,-1.782773 0.89139,-2.317604 0.17828,-0.41598 0.29713,-0.891386 0.17827,-0.475406 0.29713,-0.534832 0.29712,-0.297128 0.89138,-0.178277 0.65368,0.05943 1.24794,0.41598 0.59426,0.297129 1.01024,0.772535 0.47541,0.475406 0.47541,0.891386 0,0.178277 -0.11886,0.713109 -0.11885,0.534831 -0.29712,1.188514 -0.11886,0.653683 -0.29713,1.366792 -0.17828,0.653683 -0.29713,1.069663 -0.29713,1.010238 -0.83196,2.911861 -0.53483,1.901624 -1.18852,4.100376 -0.65368,2.198752 -1.30736,4.338079 -0.65369,2.079901 -1.06967,3.446693 0.0594,0 0.11885,-0.05943 0.0594,0 0.17828,0 1.6045,-0.41598 3.03071,-0.713109 1.48565,-0.237703 2.73359,-0.356554 0.77253,-0.118852 1.66392,-0.178278 0.95081,0 1.78277,0.05943 0.83196,0.05943 1.42622,0.118852 0.65368,0.118851 0.89138,0.178277 1.24795,0.534831 1.90163,1.010237 0.71311,0.534832 1.54507,1.485644 1.18851,1.545069 1.18851,2.436455 0.0594,0.891386 -1.30736,0.237703 -2.13933,-0.891386 -4.51636,-1.069663 -2.3176,-0.178278 -4.63521,-0.356555 -1.42621,-0.05943 -3.20899,0.05943 -1.78277,0.118851 -3.68439,0.41598 l -0.35656,0.05943 -0.2377,0.594257 q -0.53483,1.188515 -1.36679,2.555307 -0.77254,1.366792 -1.48565,2.436455 -1.60449,2.258178 -3.14956,3.090138 -1.48564,0.83196 -3.20899,0.950812 -2.73358,0.237703 -4.51635,-1.604495 -1.78278,-1.842198 -2.13933,-5.942574 0,-0.475405 -0.0594,-1.426217 -0.11885,-0.950812 0.29713,-2.020475 0.11885,-0.237703 0.41598,-0.356555 0.29713,-0.118851 0.65368,-0.118851 0.35656,0 0.65369,0.118851 0.2377,0.178278 0.35655,0.415981 0.11885,0.297128 1.01024,0.475405 0.89139,0.178278 2.43646,0.178278 0.59425,0 1.36679,-0.05943 0.77253,-0.05943 1.66392,-0.178277 0.89138,-0.118852 1.78277,-0.297129 0.89139,-0.178277 1.66392,-0.41598 0.11885,-0.05943 0.59426,-1.188515 0.53483,-1.129089 1.36679,-3.862673 l 1.90162,-6.180276 -1.01023,1.604495 q -0.53484,0.891386 -1.18852,1.782772 -0.59426,0.891386 -1.12909,1.66392 -0.53483,0.772535 -0.95081,1.366792 -0.41598,0.534832 -0.59426,0.772535 -1.01023,1.307366 -2.02047,1.307366 -0.89139,-0.05943 -1.96105,-0.891386 -1.06966,-0.83196 -1.66392,-1.961049 -0.59426,-1.188515 0,-3.565544 0.59426,-2.436456 1.96105,-6.715108 0.35655,-1.069664 0.53483,-1.842198 0.2377,-0.831961 0.35655,-1.426218 0.11885,-0.653683 0.11885,-1.188515 0.0594,-0.534831 0,-1.129089 0,-0.237703 0.77254,-0.178277 0.83196,0 1.78277,0.356555 0.95081,0.356554 1.6045,1.069663 0.7131,0.653683 0.35655,1.723346 -1.01024,3.387267 -1.90162,6.120851 -0.89139,2.733584 -1.36679,4.278653 -0.29713,1.069663 -0.17828,1.426218 0.17828,0.356554 1.36679,-0.950812 0.83196,-0.891386 1.78277,-2.317604 0.95081,-1.426218 1.8422,-2.793009 z m -8.26018,20.501878 q 1.72335,-0.653683 2.79301,-2.079901 1.06967,-1.366791 2.0799,-3.268415 -0.59425,0.237703 -1.66392,0.475406 -1.01024,0.237703 -2.25818,0.297129 -1.24794,0.118851 -2.49588,-0.118852 -1.30736,-0.237703 -2.37703,-0.950812 -0.2377,-0.178277 -0.4754,-0.534831 v 0.653683 q 0,0.653683 0.17828,1.782772 0.17827,1.129089 0.7131,2.079901 0.47541,1.010237 1.3668,1.545069 0.83196,0.594257 2.13932,0.118851 z"
         style="font-family:Rockabilly;-inkscape-font-specification:Rockabilly;fill:#ffffff"
         id="path17945" />
      <path
         d="m 142.74812,26.90611 q 0.2377,-0.415981 0.77253,-0.534832 0.59426,-0.178277 1.12909,-0.118851 0.53483,0.05942 0.83196,0.356554 0.29713,0.237703 0,0.594257 -0.11885,0.118852 -0.41598,0.41598 -0.29713,0.297129 -0.41598,0.415981 -0.65368,1.188514 -1.01024,2.436455 -0.35655,1.188514 -0.4754,2.198752 -0.0594,1.010237 0.11885,1.723346 0.17827,0.653683 0.65368,0.713109 1.06966,0.178277 2.3176,-0.653683 1.30737,-0.83196 2.25818,-1.961049 1.01024,-1.188515 1.48564,-2.436455 0.53484,-1.247941 0.0594,-1.901624 -0.29713,-0.356554 -1.12909,-0.772534 -0.77253,-0.415981 -1.78277,-0.831961 -0.95081,-0.41598 -1.90162,-0.891386 -0.95082,-0.475406 -1.54507,-0.950812 -1.01024,-0.950811 -0.83196,-2.139326 0.2377,-1.247941 1.18851,-2.317604 0.95081,-1.129089 2.37703,-2.020475 1.48564,-0.891386 2.91186,-1.188514 0.71311,-0.178278 1.66392,0 0.95081,0.118851 1.78277,0.475405 0.83196,0.356555 1.42622,0.891386 0.65369,0.534832 0.71311,1.188515 0.11885,1.010238 -0.41598,2.198752 -0.29713,1.010238 -0.65368,1.723347 -0.35656,0.653683 -0.83196,0.950811 -0.29713,0.118852 -0.89139,0.05943 -0.59426,-0.05943 -1.18851,-0.237703 -0.53484,-0.237703 -0.89139,-0.534831 -0.35655,-0.297129 -0.11885,-0.653683 0.11885,-0.118852 0.41598,-0.05943 0.29713,0 0.41598,-0.118852 0.41598,-0.475406 0.71311,-0.772534 0.29713,-0.297129 0.59426,-0.713109 0.2377,-0.475406 0.41598,-0.950812 0.17827,-0.534831 0.17827,-0.950812 0.0594,-0.41598 -0.0594,-0.594257 -0.0594,-0.237703 -0.35656,-0.178277 -0.53483,0.118851 -1.18851,0.594257 -0.65369,0.41598 -1.24794,1.010238 -0.59426,0.534831 -1.06967,1.129089 -0.4754,0.534831 -0.7131,0.950811 -0.35656,0.831961 0.11885,1.426218 0.4754,0.594257 1.30736,1.129089 0.89139,0.475406 1.8422,1.010238 0.95081,0.475405 1.54507,1.129089 1.18851,1.426217 1.12909,3.268415 -0.0594,1.782772 -1.24794,3.327841 -1.12909,1.545069 -3.32784,2.555307 -2.13933,0.950812 -5.17004,0.653683 -1.24794,-0.118852 -2.19875,-0.83196 -1.01024,-0.772535 -1.3668,-2.020475 -0.41598,-1.307367 0,-3.090139 0.41598,-1.782772 2.07991,-4.100375 z"
         style="font-family:Rockabilly;-inkscape-font-specification:Rockabilly;fill:#ffffff"
         id="path17947" />
      <path
         d="m 152.43444,8.9001118 q 2.73358,-0.2971287 5.46716,-0.8319603 2.73359,-0.5942574 5.82373,-1.1885147 0.41598,-0.8913861 0.89138,-1.9610493 0.53483,-1.129089 1.06967,-2.0799007 0.53483,-0.9508118 1.12908,-1.6044949 0.59426,-0.6536831 1.24795,-0.6536831 0.65368,0.0594257 1.54506,0.5942574 0.95082,0.4754058 1.18852,0.8319603 l 0.29713,0.4159801 -1.90163,3.8032471 q 1.66392,-0.1782772 3.80325,-0.3565544 2.13933,-0.1782772 3.74382,-0.1188515 2.19875,0.059426 3.38727,1.0696632 1.24794,0.9508118 1.01024,2.3176037 -0.17828,1.0102373 -0.65369,1.0102373 -0.17827,0 -0.2377,0.05943 -0.0594,0 -0.0594,-0.05943 0,-0.05943 0,-0.2377027 0,-0.237703 0,-0.7131089 -0.0594,-0.891386 -3.32785,-0.5942573 -3.20899,0.2377029 -8.61673,1.0102375 l -0.83196,0.1188515 q -1.12909,2.2581779 -2.19875,4.7540589 -1.06966,2.436455 -2.02048,4.87291 -0.89138,2.436455 -1.66392,4.754059 -0.7131,2.258178 -1.24794,4.100376 l -1.06966,4.397504 -0.17828,1.307366 v 0.118852 q 0.41598,-0.41598 1.06967,-1.129089 0.65368,-0.772535 1.36679,-1.663921 0.77253,-0.950811 1.42622,-1.901623 0.7131,-1.010238 1.24794,-1.901624 l 0.41598,-0.713109 1.36679,0.891386 q -0.35656,0.653684 -0.89139,1.604495 -0.4754,0.891386 -1.06966,1.901624 -0.59426,0.950812 -1.30737,1.961049 -0.65368,0.950812 -1.36679,1.663921 -0.53483,0.594257 -1.06966,1.010237 -0.47541,0.41598 -1.01024,0.534832 -0.71311,0.475406 -1.48564,0.41598 -0.77254,-0.05943 -1.42622,-0.534832 -0.65368,-0.475406 -1.06966,-1.24794 -0.41598,-0.83196 -0.29713,-1.901624 0.11885,-1.426217 0.41598,-2.614732 0.29713,-1.24794 0.53483,-2.079901 0.41598,-2.020475 1.30737,-4.575781 0.89138,-2.614733 2.13932,-6.180277 l 2.61473,-6.596256 q -1.54506,0.41598 -3.09013,0.713108 -1.48565,0.297129 -2.97129,0.41598 -1.78277,0.297129 -3.50612,0.118852 -1.78277,-0.237703 -3.50612,-1.188515 -1.48564,-0.83196 -1.60449,-1.6639203 -0.11885,-0.8319603 1.30736,-0.4754059 1.01024,0.2971286 3.86268,0 z"
         style="font-family:Rockabilly;-inkscape-font-specification:Rockabilly;fill:#ffffff"
         id="path17949" />
      <path
         d="m 173.76823,34.690881 q -1.06966,1.010237 -2.43645,1.545069 -1.36679,0.534832 -2.97129,0.534832 -2.61473,-0.05943 -3.80324,-1.426218 -1.18852,-1.366792 -1.42622,-3.20899 -0.29713,-1.842197 0.17827,-3.743821 0.47541,-1.961049 1.12909,-3.268415 1.30737,-2.495881 2.61474,-3.922099 1.36679,-1.426218 3.09013,-2.198752 1.01024,-0.41598 2.19876,-0.475406 1.18851,-0.05943 2.13932,0.237703 1.01024,0.237703 1.6045,0.772534 0.65368,0.534832 0.59426,1.307367 -0.11886,1.307366 -0.89139,2.852435 -0.71311,1.485643 -1.8422,2.852435 -1.06966,1.366792 -2.43645,2.436455 -1.30737,1.010238 -2.61474,1.426218 -0.41598,0.118851 -0.77253,0.237703 -0.35656,0.05943 -0.53483,0.118851 -0.23771,1.426218 0,2.436456 0.2377,1.010237 0.89138,1.426217 0.65369,0.356555 1.6045,0.05943 1.01024,-0.356554 2.3176,-1.545069 1.36679,-1.188515 2.49588,-2.733584 1.12909,-1.545069 1.96105,-2.971287 l 0.41598,-0.713109 1.36679,0.891386 q -0.59425,1.129089 -1.78277,3.149564 -1.12909,2.020475 -3.09014,3.922099 z m -5.88314,-5.764296 q -0.11886,0.356554 -0.0594,0.297128 0.0594,-0.05943 0.53483,-0.237703 0.89139,-0.41598 1.78277,-1.307366 0.95082,-0.950812 1.72335,-1.961049 0.77254,-1.069663 1.30737,-2.079901 0.59425,-1.010237 0.77253,-1.604495 0.11885,-0.297128 0.17828,-0.772534 0.0594,-0.475406 -0.17828,-0.594258 -0.2377,-0.118851 -0.71311,0.237703 -0.41598,0.297129 -0.4754,0.356555 -1.90163,1.723346 -3.14957,3.862673 -1.18851,2.139326 -1.72334,3.803247 z"
         style="font-family:Rockabilly;-inkscape-font-specification:Rockabilly;fill:#ffffff"
         id="path17951" />
      <path
         d="m 183.81112,35.938821 q -0.29713,-0.891386 -0.23771,-2.377029 0.11886,-1.545069 0.41599,-3.268415 0.29712,-1.782773 0.83196,-3.565545 0.59425,-1.782772 1.30736,-3.268415 0.0594,-0.118852 0.2377,-0.534832 0.17828,-0.41598 0.29713,-0.713108 0.17828,-0.356555 0.0594,-0.356555 -0.0594,0 -0.53483,0.713109 -1.18852,1.723346 -2.43646,3.803247 -1.24794,2.079901 -2.25818,4.159801 -0.65368,1.426218 -1.24794,2.733584 -0.53483,1.307366 -0.77253,2.139327 -0.17828,0.653683 -0.77254,0.891386 -0.53483,0.178277 -1.30736,0.356554 -0.47541,0.118852 -1.12909,0.118852 -0.65368,0 -0.77254,-0.594258 -0.11885,-0.178277 -0.11885,-0.653683 0,-0.475406 0.0594,-1.129089 0,-0.713109 0.11885,-1.485643 0.0594,-0.772535 0.17828,-1.485643 0.11885,-0.653684 0.41598,-1.723347 0.2377,-1.069663 0.53483,-2.198752 0.29713,-1.188515 0.53483,-2.139327 0.29713,-1.010237 0.47541,-1.485643 0.2377,-0.594257 0.53483,-1.426218 0.29713,-0.83196 0.65368,-1.604494 0.35656,-0.772535 0.77254,-1.366792 0.41598,-0.653683 0.89138,-0.950812 0.59426,-0.356554 1.18852,0 0.59425,0.356554 1.06966,0.653683 0.47541,0.297129 0.47541,0.891386 0.0594,0.534832 -0.53484,1.842198 -0.95081,2.079901 -1.48564,3.565544 -0.53483,1.426218 -0.83196,2.258178 l -0.41598,1.307366 q 0.71311,-1.307366 1.6045,-2.852435 0.95081,-1.604495 1.96104,-3.149564 1.01024,-1.545069 2.02048,-2.911861 1.01024,-1.426218 1.90162,-2.317604 0.47541,-0.475406 0.95082,-0.653683 0.4754,-0.178277 0.95081,-0.178277 0.41598,0 0.77253,0.118851 0.41598,0.118852 1.06966,0.534832 0.89139,0.594257 1.06967,0.950812 0.2377,0.356554 -0.17828,1.188514 -0.89139,1.723347 -1.8422,3.922099 -0.95081,2.139326 -1.60449,4.219227 -0.2377,0.653683 -0.35656,1.247941 -0.11885,0.534831 -0.2377,0.891386 1.36679,-2.436456 2.73358,-4.456931 1.3668,-2.0799 2.61474,-3.565544 1.24794,-1.545069 2.25817,-2.436455 1.01024,-0.950812 1.72335,-1.069663 1.42622,-0.237703 2.37703,0.178277 0.95081,0.356555 1.06966,1.129089 0.0594,0.237703 0.0594,0.534832 0.0594,0.237703 -0.0594,0.83196 -0.0594,0.594257 -0.35655,1.723346 -0.29713,1.069664 -0.95081,3.030713 -1.12909,3.268415 -1.54507,5.645445 -0.41598,2.317603 -0.29713,3.030712 0.0594,0.356555 0.2377,0.297129 0.23771,-0.05943 0.47541,-0.178277 0.29713,-0.178278 0.53483,-0.237703 0.29713,-0.118852 0.41598,0.118851 0.0594,0.118852 -0.11885,0.475406 -0.17828,0.297129 -0.53483,0.653683 -0.35656,0.356555 -0.89139,0.653683 -0.4754,0.297129 -1.06966,0.356555 -1.54507,0.237703 -2.55531,-0.653683 -0.95081,-0.891386 -0.89138,-3.030713 0.0594,-1.723346 0.95081,-4.575782 0.89138,-2.911861 2.3176,-6.180276 0.2377,-0.534832 0.35656,-0.891386 0.17827,-0.356554 0.11885,-0.41598 0,-0.118852 -0.29713,0.178277 -0.29713,0.297129 -1.01024,1.069663 -0.77253,0.891386 -1.96105,2.555307 -1.12909,1.604495 -2.3176,3.446693 -1.12909,1.782772 -2.0799,3.446692 -0.95081,1.663921 -1.30737,2.555307 -0.0594,0.118851 -0.11885,0.475406 -0.0594,0.297128 -0.11885,0.653683 -0.0594,0.297128 -0.17828,0.594257 -0.0594,0.297129 -0.17828,0.356555 -0.4754,0.297128 -1.60449,0.41598 -1.06966,0.178277 -1.54507,-0.05943 -0.11885,-0.05943 -0.29713,-0.297129 -0.11885,-0.178277 -0.2377,-0.475406 z m -3.86267,-6.774533 q 0,0 0.0594,-0.118852 l -0.0594,0.05943 q 0,0.05943 -0.0594,0.05943 0,0 0,0.05943 z"
         style="font-family:Rockabilly;-inkscape-font-specification:Rockabilly;fill:#ffffff"
         id="path17953" />
    </g>
  </g>
</svg>
