<?xml version="1.0" encoding="UTF-8" standalone="no"?>
<svg
   version="1.1"
   id="svg2"
   xml:space="preserve"
   width="1428.3997"
   height="469.42044"
   viewBox="0 0 1428.3997 469.42044"
   sodipodi:docname="scilogo_h_c.svg"
   xmlns:inkscape="http://www.inkscape.org/namespaces/inkscape"
   xmlns:sodipodi="http://sodipodi.sourceforge.net/DTD/sodipodi-0.dtd"
   xmlns="http://www.w3.org/2000/svg"
   xmlns:svg="http://www.w3.org/2000/svg"
   xmlns:rdf="http://www.w3.org/1999/02/22-rdf-syntax-ns#"
   xmlns:cc="http://creativecommons.org/ns#"
   xmlns:dc="http://purl.org/dc/elements/1.1/"><metadata
     id="metadata8"><rdf:RDF><cc:Work
         rdf:about=""><dc:format>image/svg+xml</dc:format><dc:type
           rdf:resource="http://purl.org/dc/dcmitype/StillImage" /></cc:Work></rdf:RDF></metadata><defs
     id="defs6" /><sodipodi:namedview
     pagecolor="#ffffff"
     bordercolor="#666666"
     borderopacity="1"
     objecttolerance="10"
     gridtolerance="10"
     guidetolerance="10"
     inkscape:pageopacity="0"
     inkscape:pageshadow="2"
     inkscape:window-width="640"
     inkscape:window-height="480"
     id="namedview4"
     inkscape:showpageshadow="2"
     inkscape:pagecheckerboard="true"
     inkscape:deskcolor="#d1d1d1"
     showgrid="false" /><g
     id="g10"
     inkscape:groupmode="layer"
     inkscape:label="ink_ext_XXXXXX"
     transform="matrix(1.3333333,0,0,-1.3333333,0.06627928,469.35445)"><g
       id="g12"
       transform="scale(0.1)"><path
         d="m 2213.36,1446.5 c 0,-140.82 -114.16,-254.97 -254.98,-254.97 -140.83,0 -254.99,114.15 -254.99,254.97 0,140.84 114.16,255 254.99,255 140.82,0 254.98,-114.16 254.98,-255"
         style="fill:#ffffff;fill-opacity:1;fill-rule:nonzero;stroke:#ffffff;stroke-opacity:1"
         id="path14" /><path
         d="m 1179.17,643.332 c -16.01,95.918 0.61,206.449 20.19,292.637 26.32,115.921 65.55,228.771 109.29,339.161 20.45,51.58 40.18,103.44 60.73,154.98 22.94,57.54 46.71,114.8 73.69,170.59 24.1,49.82 47.39,100.68 70.97,150.54 43.11,91.13 91.41,181.33 143.92,267.37 68.7,112.53 127.13,229.29 203.24,337.69 30.95,44.08 57.71,89.32 84.95,135.57 17.16,29.13 34.03,55.64 53.71,83.61 20.77,29.51 41.47,60.23 59.89,90.16 21.66,35.13 46.15,68.55 67.07,103.72 35.43,59.58 78.12,112.94 115.86,170.48 43.34,66.11 87.91,131.46 134.84,195.09 48.77,66.1 97.73,131.62 150.8,195.98 18.81,22.81 37.6,45.84 56,69.63 22.95,29.65 47.79,62.56 71.87,93.12 -74.74,-46.62 -134.82,-120.91 -190.19,-188.94 -63.09,-77.5 -120.67,-159.3 -180.24,-239.47 -67.34,-90.66 -133.57,-182.14 -198.57,-274.5 -113.58,-161.38 -223.41,-325.41 -329.02,-492.12 -52.86,-83.44 -104.65,-167.55 -155.36,-252.33 -72.87,-121.84 -140.29,-246.87 -203.9,-373.79 -28.19,-56.21 -53.34,-113.12 -80.8,-169.37 -84.95,-173.99 -158.38,-354.63 -222.72,-538.249 -35.55,-101.442 -84.08,-229.25 -119.413,-358.942"
         style="fill:#ffffff;fill-opacity:1;fill-rule:nonzero;stroke:#231f20;stroke-opacity:1"
         id="path16" /><path
         d="m 1203.28,649.98 c -19.04,130.391 12.58,263.571 48.72,388.26 38.05,131.32 91.11,258.29 141.49,385.22 103.56,260.92 241.19,501.92 380.23,744.81 63.56,111.02 137.08,215.51 202.59,325.35 65.99,110.63 140.25,219.83 213.04,326.15 154.18,225.21 316.26,441.39 484.52,656.22 16.18,20.65 -4.52,56.12 -30.3,39.26 -99.94,-65.38 -173.44,-163.29 -245.56,-256.75 -87.87,-113.86 -171.97,-231.08 -256.02,-347.78 -171.81,-238.51 -334.95,-483.24 -489.07,-733.55 -154.69,-251.24 -290.21,-511.68 -412.21,-780.25 -114.4,-251.85 -214.88,-517.658 -288.839,-784.318 -8.633,-31.133 39.609,-44.332 48.209,-13.301 72.87,262.711 172.16,523.879 283.8,772.379 115.38,256.82 245.21,506.07 391.58,746.55 146.64,240.92 302.76,476 465.92,706.01 79.74,112.42 162,223.01 243.64,334.05 81.37,110.69 167.06,237.42 283.79,313.79 -10.1,13.09 -20.2,26.17 -30.29,39.26 -79.1,-100.98 -160.29,-200.46 -237.4,-302.96 -85.32,-113.41 -162.26,-232.28 -244.22,-348.04 -78.03,-110.2 -153.2,-226.35 -223.77,-341.49 -73.34,-119.66 -151.59,-235.89 -221.17,-357.87 -68.8,-120.6 -141.68,-238.31 -203.1,-362.99 -61.12,-124.08 -119.38,-249.86 -170.41,-378.43 -96.16,-242.28 -222.41,-515.56 -183.39,-782.88 4.65,-31.809 52.82,-18.231 48.22,13.3 v 0"
         style="fill:#ffffff;fill-opacity:1;fill-rule:nonzero;stroke:#ffffff;stroke-opacity:1"
         id="path18" /><path
         d="m 1218.01,3035.44 c -21.02,17.73 -42.05,35.67 -62.85,54.34 -25.95,23.29 -54.16,49.24 -81.31,73.16 76.56,-30.29 143.94,-88.21 205.97,-141.18 70.69,-60.36 136.94,-125.54 204.81,-188.92 76.71,-71.64 152.52,-144.23 227.32,-217.83 130.74,-128.58 258.42,-260.19 382.62,-394.94 62.15,-67.46 123.46,-135.68 183.83,-204.71 86.8,-99.19 169.02,-202.18 248.06,-307.52 35,-46.66 67.35,-94.43 101.68,-141.23 106.27,-144.76 202.9,-297.5 291.63,-454.41 98.04,-173.438 260.91,-434.419 263.59,-638.989 2.52,-192.832 -121.07,-241.32 -263.63,-235.43 -35.65,1.469 -72.46,6.328 -108.81,13.25 -324.06,87.828 -624.06,237.828 -925.51,376.211 -30.66,15.449 -61.29,31.129 -91.87,47.028 -30.6,15.921 -61.15,32.07 -91.65,48.441 -30.54,15.758 -61.04,31.48 -91.47,47.34 -273.21,133.929 -535.44,276.909 -779.209,443.089 -27.078,18.43 -53.938,37.18 -80.527,56.25 -223.204,160 -431.856,317.07 -607.852,530.51 -19.297,25.53 -36.953,51.99 -52.4609,79.52 -36.0273,63.93 -52.7422,109.12 -63.5156,179.44 -22.65628,147.8 199.9215,121.37 284.6485,114.76 27.441,-2.13 54.824,-5.07 82.129,-8.66 51.347,-6.74 102.219,-16.06 153.125,-26.22 84.621,-16.87 168.242,-38.4 251.164,-62.19 23.875,-6.84 47.683,-13.9 71.473,-21.08 67.011,-20.2 134.045,-40.09 201.385,-63.57 66.08,-23.04 136.08,-43.04 206.08,-73.04 -80,20 -160,30 -239.3,35.38 -15.7,0.38 -31.43,0.48 -47.13,0.32 -15.711,-0.14 -31.426,-0.53 -47.11,-1.19 -104.804,-4.35 -221.609,-31.07 -277.695,-129.09 -67.012,-117.08 -0.117,-218.23 76.68,-311.42 59.797,-72.54 132.07,-133.4 205.781,-191.25 27.844,-21.85 56.084,-43.24 84.664,-64.2 200.12,-146.77 417.19,-273.301 634.4,-400.988 29.41,-16.883 59.2,-33.32 89.41,-49.461 25.03,-13.781 50.35,-27.422 75.98,-40.781 25.6,-13.321 51.5,-26.36 77.69,-39.02 156.06,-75.351 342.19,-136.558 513.46,-161.68 86.1,-12.621 176.17,-14.41 260.16,11.211 107.03,32.618 210.23,106.95 209.61,228.559 -0.45,90.07 -33.4,188.141 -65.24,263.55 -42.79,101.41 -97.05,197.91 -155.04,291.41 -27.13,43.71 -53.63,87.77 -80.84,131.4 -30.37,48.71 -61.46,97.07 -95.29,143.52 -30.23,41.48 -59.86,84.04 -89.61,125.68 -54.35,76.05 -113.38,150.4 -175.62,220.26 -81.47,91.4 -154.09,188.33 -241.74,274.72 -35.63,35.13 -67.56,72 -100.12,109.73 -20.51,23.77 -40.33,45.18 -62.99,67.48 -23.9,23.5 -47.93,48.13 -69.72,72.4 -25.63,28.5 -53.6,54.98 -78.53,83.64 -42.26,48.53 -90.22,90.21 -134.29,136.5 -50.62,53.18 -102.23,105.51 -155.76,155.86 -55.62,52.29 -111.33,104.04 -170.66,154.04"
         style="fill:#ffffff;fill-opacity:1;fill-rule:nonzero;stroke:#231f20;stroke-opacity:1"
         id="path20" /><path
         d="m 1235.68,3053.12 c -49.01,41.45 -96.15,84.9 -144.16,127.5 -10.09,-13.09 -20.19,-26.17 -30.29,-39.26 136.03,-57.47 246.08,-175.28 351.66,-275.23 117.17,-110.95 234.5,-221.56 348.73,-335.58 225.16,-224.72 445.04,-457.67 643.68,-706.36 193.96,-242.83 364.74,-501.32 519.18,-770.7 65.18,-113.689 130.81,-227.709 179.64,-349.611 42.7,-106.598 85.6,-248.199 27.7,-356.938 -54.21,-101.8 -201.45,-90.132 -296.05,-75.082 -72.25,11.481 -144.52,40.211 -213.47,64.063 -75.9,26.269 -150.64,55.867 -224.8,86.687 -282.46,117.36 -551.95,258.563 -825.56,394.25 -280.16,138.93 -553.79,292.381 -808.639,474.121 -119.61,85.29 -237.637,172.98 -348.942,268.96 -107.726,92.91 -219.687,196.4 -294.472,318.42 -35.7815,58.38 -61.2893,122.71 -69.2581,191.01 -5.0234,43.07 25.2383,64.77 62.4181,75.72 77.016,22.69 169.391,7.16 247.781,-1.15 158.067,-16.74 314.051,-57.26 466.219,-101.91 148.578,-43.6 300.123,-87.61 443.163,-147.28 4.43,16.07 8.86,32.15 13.29,48.22 -187.87,45.19 -573.965,103.36 -657.031,-143.59 -41.324,-122.84 33.375,-227.37 109.511,-317.66 92.196,-109.34 213.754,-195.99 329.46,-278.58 247.44,-176.65 514.54,-336.308 785.35,-474.39 126.82,-64.668 259.84,-115.809 397.38,-152.539 132.28,-35.32 272.51,-59.32 408.43,-32.449 94.35,18.648 188.82,72.386 236.74,157.718 57.86,102.981 9.58,243.899 -29.09,344.68 -51.07,133.14 -125.61,254.85 -199.81,375.95 -80.39,131.2 -166.64,257.38 -257.4,381.64 -81.76,111.94 -175.28,214.24 -264.33,320.28 -47.29,56.32 -96.26,110.58 -148.15,162.7 -52.29,52.52 -97.51,111.48 -149.91,163.95 -202.03,202.32 -390.43,416.84 -608.97,602.44 -24.42,20.74 -59.96,-14.46 -35.35,-35.35 227.33,-193.07 428.36,-414.71 635.02,-628.99 217.01,-225.02 425.3,-464.27 606.32,-719.25 91.96,-129.55 176.99,-263.41 257.22,-400.59 76.67,-131.07 151.64,-276.51 167.94,-429.6 15.76,-148.008 -112.06,-225.328 -240.67,-250.758 -146.71,-29.012 -310.23,17.289 -449.79,60.328 -205.47,63.379 -393.59,168.422 -578.02,276.969 -198.72,116.961 -396.38,236.281 -581.45,374.221 -87.63,65.32 -173.146,134.76 -245.56,216.97 -72.844,82.7 -141.789,184.62 -84.129,294.59 45.215,86.24 153.945,109.77 242.379,116.01 114.19,8.06 229.65,-6.23 340.62,-32.92 32.27,-7.76 42.23,36.15 13.29,48.22 -143.14,59.71 -294.645,103.14 -443.164,147.28 -146.043,43.39 -295.352,80.58 -446.703,99.71 C 283.16,2203.93 8.20313,2253.71 0.246094,2079.27 -5.03516,1963.57 76.793,1838.99 147.797,1755.28 240.395,1646.12 346.57,1549.22 457.363,1458.95 688.414,1270.68 937.809,1104.38 1197.16,957.91 c 136.38,-77.019 277.01,-145.121 415.86,-217.359 130.43,-67.86 260.39,-134.93 393.74,-196.93 136.25,-63.34 272.7,-126.23 411.69,-183.379 139.79,-57.48 289.98,-121.472 440.49,-141.992 87.1,-11.871 191.73,-11.738 264.68,45.051 80.26,62.461 92.01,168.5 80.72,263.281 -14.27,119.727 -66.35,233.707 -119.95,340.367 -57.99,115.403 -124.33,227.271 -189.64,338.641 -228.87,390.19 -513.78,743.32 -821.16,1073.87 -156.59,168.4 -318.95,331.39 -485.37,490.06 -82.22,78.39 -164.47,157.05 -248.79,233.18 -76.5,69.05 -157.07,141.32 -252.97,181.83 -23.97,10.13 -53.46,-18.71 -30.29,-39.26 48,-42.6 95.15,-86.06 144.16,-127.5 24.46,-20.69 60.01,14.5 35.35,35.35"
         style="fill:#ffffff;fill-opacity:1;fill-rule:nonzero;stroke:#ffffff;stroke-opacity:1"
         id="path22" /><path
         d="M 1053.06,845.891 C 985.02,653.641 907.48,414.352 935.859,235.621 991.836,-116.82 1358.91,51.6914 1553.83,157.449 c 308.3,167.293 579.94,379.91 858.18,592.5 25.47,19.481 50.74,39.082 75.67,58.953 239.18,209.958 489.18,419.958 718.92,637.828 22.7,22.62 45.41,45.33 68.19,67.99 88.53,89.35 179.68,176.13 266.99,266.72 99.55,103.26 196.29,214.03 270.72,336.07 55.86,91.57 143.18,182.64 151.35,294.85 2.3,31.82 5.15,64.51 -1.55,96.01 -6.26,29.47 -15.66,47.23 -38.51,65.62 -9.79,7.86 -20.92,13.81 -32.58,18.31 -22.36,8.63 -46.5,11.75 -70.23,13.78 -32.64,2.79 -65.61,0.88 -98.05,-3.28 -63.11,-8.11 -124.9,-25.01 -185.27,-44.73 -119.14,-38.91 -232.07,-92.59 -344.07,-148.13 -194.41,-96.46 -388.96,-200.63 -576.73,-311.08 162.83,95.78 342.03,133.21 528.73,119.68 58.84,-4.27 117.34,-20.36 160.19,-52.15 10.7,-7.94 20.45,-16.87 28.95,-26.84 102.13,-170.69 -47.87,-340.69 -137.23,-468.17 -10.27,-12.76 -20.8,-25.49 -31.41,-38.2 -21.21,-25.43 -42.69,-50.79 -63.84,-76.29 -12.31,-13.11 -24.54,-25.9 -36.51,-38.36 -11.97,-12.46 -23.67,-24.65 -34.98,-36.49 -76.87,-80.62 -155.96,-159.14 -236.81,-235.78 -123.79,-117.3 -250.92,-231.13 -381.7,-340.619 -25.34,-21.18 -50.98,-42.071 -76.9,-62.661 -103.65,-82.359 -211.09,-159.859 -326.13,-230.351 -18.65,-11.719 -38.11,-22.359 -57.76,-32.68 -19.64,-10.308 -39.48,-20.289 -58.82,-30.679 -34.79,-18.668 -70.3,-35.961 -106.64,-51.391 -121.64,-51.598 -254.16,-81.949 -386.66,-67.258 -15,1.66 -29.96,4.16 -44.61,7.828 -187.15,46.762 -196.98,246.012 -171.97,410.699"
         style="fill:#ffffff;fill-opacity:1;fill-rule:nonzero;stroke:#231f20;stroke-opacity:1"
         id="path24" /><path
         d="M 1028.95,852.539 C 981.73,718.699 937.016,583.281 915.195,442.66 898.508,335.109 897.379,219.699 945.879,119.84 1022.5,-37.9492 1216.35,-10.5898 1352.6,37.3398 1574.62,115.43 1778.37,255.039 1969.56,388.77 c 251.47,175.91 492.33,365.41 724,566.371 242,209.899 477.87,423.409 705.99,648.299 206.12,203.2 399.45,414.79 543.7,667.72 48.83,85.64 80.94,229.96 8.57,311.3 -36.67,41.22 -99.27,46.79 -150.46,49.75 -78.28,4.51 -159.62,-16.76 -233.96,-38.59 -146.5,-43.01 -284.59,-111.17 -420.73,-179.19 -143.8,-71.85 -285.7,-147.49 -425.65,-226.58 -39.14,-22.11 -78.01,-44.66 -116.78,-67.4 -27.79,-16.31 -2.77,-59.29 25.23,-43.18 132.24,76.07 276.78,115.37 429.18,118.85 71.45,1.64 144.92,-2.77 209.68,-35.51 74.84,-37.84 84.77,-128.5 67.77,-202.18 -28.36,-122.87 -129.92,-238.75 -208.96,-332.99 -95.85,-114.28 -203.34,-219.48 -310.59,-323.03 -222.65,-214.94 -456.04,-424.551 -712.33,-598.851 -121.68,-82.758 -253.16,-158.18 -392.23,-207.457 -125.53,-44.493 -305.04,-79.36 -424.1,-0.84 -107.15,70.648 -97.05,237.449 -81.02,347.238 4.6,31.531 -43.57,45.109 -48.21,13.301 -27.26,-186.77 -3.02,-408.77 219.05,-447.34 278.7,-48.402 562.35,121.34 781.76,272.461 248.73,171.328 474.99,377.328 692.43,586.138 107.5,103.22 214.73,208.85 310.59,323.03 75.81,90.27 157.38,189.45 202.55,299.37 30.57,74.37 42.08,158.36 6.37,233.46 -35.15,73.92 -116.08,107.02 -193.85,117.09 -197.81,25.61 -401.38,-20.65 -573.32,-119.56 8.41,-14.39 16.82,-28.79 25.23,-43.18 138.74,81.38 279.7,158.8 422.45,232.89 143.24,74.34 287.78,148.88 439.17,205.34 71.23,26.56 144.61,47.82 219.59,60.5 77.57,13.12 203.65,21.47 227.52,-74.27 35.44,-142.19 -78.76,-261.93 -147.29,-371.6 C 3708.58,1998.36 3606,1882.96 3497.8,1772.04 3387.71,1659.19 3276.04,1546.36 3161.26,1438.3 3044.64,1328.51 2924.55,1222.44 2803.91,1117.11 2683.54,1012.01 2565.6,901.52 2439.93,802.852 2239.62,645.582 2035.91,490.57 1823.68,349.648 1669.16,247.051 1505.44,143.992 1329.38,82.0508 1202.18,37.3086 1037.71,17.6523 978.492,169.082 c -40.019,102.359 -24.082,221.91 -3.351,326.5 23.242,117.227 62.329,231.168 102.019,343.66 10.76,30.488 -37.56,43.488 -48.21,13.297 v 0"
         style="fill:#ffffff;fill-opacity:1;fill-rule:nonzero;stroke:#ffffff;stroke-opacity:1"
         id="path26" /><path
         d="M 3802.98,903.211 H 10712.5"
         style="fill:#ffffff;stroke:#ffffff;stroke-width:50;stroke-linecap:butt;stroke-linejoin:miter;stroke-miterlimit:4;stroke-dasharray:none;stroke-opacity:1"
         id="path28" /><path
         d="m 3997.11,271.629 v 358.133 h 47.5 V 482.57 h 185.32 v 147.192 h 47.5 V 271.629 h -47.5 v 168.75 h -185.32 v -168.75 h -47.5"
         style="fill:#ffffff;fill-opacity:1;fill-rule:nonzero;stroke:#231f20;stroke-opacity:1"
         id="path30" /><path
         d="m 3997.11,271.629 v 358.133 h 47.5 V 482.57 h 185.32 v 147.192 h 47.5 V 271.629 h -47.5 v 168.75 h -185.32 v -168.75 z"
         style="fill:#ffffff;stroke:#fefefe;stroke-width:10;stroke-linecap:butt;stroke-linejoin:miter;stroke-miterlimit:4;stroke-dasharray:none;stroke-opacity:1"
         id="path32" /><path
         d="m 4382.23,271.629 v 358.133 h 47.5 V 452.129 l 177.71,177.633 h 64.17 L 4521.48,484.48 4678.17,271.629 h -62.5 l -127.3,180.812 -58.64,-56.742 v -124.07 h -47.5"
         style="fill:#ffffff;fill-opacity:1;fill-rule:nonzero;stroke:#231f20;stroke-opacity:1"
         id="path34" /><path
         d="m 4382.23,271.629 v 358.133 h 47.5 V 452.129 l 177.71,177.633 h 64.17 L 4521.48,484.48 4678.17,271.629 h -62.5 l -127.3,180.812 -58.64,-56.742 v -124.07 z"
         style="fill:#ffffff;stroke:#fefefe;stroke-width:10;stroke-linecap:butt;stroke-linejoin:miter;stroke-miterlimit:4;stroke-dasharray:none;stroke-opacity:1"
         id="path36" /><path
         d="m 4791.01,313.82 h 89.23 c 15.32,0 26.08,0.571 32.27,1.711 10.92,1.949 20.05,5.211 27.38,9.758 7.34,4.582 13.37,11.211 18.09,19.93 4.73,8.711 7.09,18.773 7.09,30.16 0,13.351 -3.43,24.953 -10.31,34.82 -6.87,9.84 -16.38,16.762 -28.51,20.762 -12.14,3.98 -29.61,5.988 -52.41,5.988 h -82.83 z m 0,165.309 h 77.46 c 21.01,0 36.08,1.391 45.2,4.16 12.05,3.59 21.13,9.543 27.24,17.859 6.11,8.321 9.16,18.774 9.16,31.34 0,11.922 -2.85,22.391 -8.55,31.461 -5.7,9.063 -13.85,15.25 -24.44,18.602 -10.58,3.347 -28.75,5.019 -54.48,5.019 h -71.59 z m -47.5,-207.5 v 358.133 h 134.38 c 27.36,0 49.32,-3.641 65.85,-10.891 16.53,-7.262 29.48,-18.43 38.85,-33.519 9.36,-15.071 14.05,-30.86 14.05,-47.321 0,-15.332 -4.15,-29.769 -12.44,-43.301 -8.29,-13.539 -20.81,-24.468 -37.55,-32.781 21.58,-6.347 38.17,-17.16 49.77,-32.457 11.6,-15.293 17.4,-33.344 17.4,-54.16 0,-16.75 -3.54,-32.332 -10.62,-46.723 -7.08,-14.398 -15.83,-25.5 -26.25,-33.32 -10.42,-7.809 -23.48,-13.699 -39.19,-17.68 -15.71,-3.988 -34.96,-5.98 -57.75,-5.98 h -136.5"
         style="fill:#ffffff;fill-opacity:1;fill-rule:nonzero;stroke:#231f20;stroke-opacity:1"
         id="path38" /><path
         d="m 4791.01,313.82 h 89.23 c 15.32,0 26.08,0.571 32.27,1.711 10.92,1.949 20.05,5.211 27.38,9.758 7.34,4.582 13.37,11.211 18.09,19.93 4.73,8.711 7.09,18.773 7.09,30.16 0,13.351 -3.43,24.953 -10.31,34.82 -6.87,9.84 -16.38,16.762 -28.51,20.762 -12.14,3.98 -29.61,5.988 -52.41,5.988 h -82.83 z m 0,165.309 h 77.46 c 21.01,0 36.08,1.391 45.2,4.16 12.05,3.59 21.13,9.543 27.24,17.859 6.11,8.321 9.16,18.774 9.16,31.34 0,11.922 -2.85,22.391 -8.55,31.461 -5.7,9.063 -13.85,15.25 -24.44,18.602 -10.58,3.347 -28.75,5.019 -54.48,5.019 h -71.59 z m -47.5,-207.5 v 358.133 h 134.38 c 27.36,0 49.32,-3.641 65.85,-10.891 16.53,-7.262 29.48,-18.43 38.85,-33.519 9.36,-15.071 14.05,-30.86 14.05,-47.321 0,-15.332 -4.15,-29.769 -12.44,-43.301 -8.29,-13.539 -20.81,-24.468 -37.55,-32.781 21.58,-6.347 38.17,-17.16 49.77,-32.457 11.6,-15.293 17.4,-33.344 17.4,-54.16 0,-16.75 -3.54,-32.332 -10.62,-46.723 -7.08,-14.398 -15.83,-25.5 -26.25,-33.32 -10.42,-7.809 -23.48,-13.699 -39.19,-17.68 -15.71,-3.988 -34.96,-5.98 -57.75,-5.98 z"
         style="fill:#ffffff;stroke:#fefefe;stroke-width:10;stroke-linecap:butt;stroke-linejoin:miter;stroke-miterlimit:4;stroke-dasharray:none;stroke-opacity:1"
         id="path40" /><path
         d="m 5341.35,629.762 h 47.5 V 422.941 c 0,-35.98 -4.06,-64.543 -12.19,-85.699 -8.14,-21.16 -22.81,-38.383 -44.03,-51.652 -21.22,-13.258 -49.08,-19.891 -83.55,-19.891 -33.5,0 -60.9,5.781 -82.2,17.332 -21.31,11.559 -36.51,28.278 -45.62,50.168 -9.11,21.903 -13.66,51.813 -13.66,89.742 v 206.821 h 47.5 v -206.52 c 0,-31.094 2.88,-54 8.65,-68.73 5.76,-14.723 15.65,-26.071 29.7,-34.043 14.04,-7.981 31.2,-11.957 51.49,-11.957 34.73,0 59.48,7.89 74.25,23.679 14.77,15.778 22.16,46.129 22.16,91.051 v 206.52"
         style="fill:#ffffff;fill-opacity:1;fill-rule:nonzero;stroke:#231f20;stroke-opacity:1"
         id="path42" /><path
         d="m 5341.35,629.762 h 47.5 V 422.941 c 0,-35.98 -4.06,-64.543 -12.19,-85.699 -8.14,-21.16 -22.81,-38.383 -44.03,-51.652 -21.22,-13.258 -49.08,-19.891 -83.55,-19.891 -33.5,0 -60.9,5.781 -82.2,17.332 -21.31,11.559 -36.51,28.278 -45.62,50.168 -9.11,21.903 -13.66,51.813 -13.66,89.742 v 206.821 h 47.5 v -206.52 c 0,-31.094 2.88,-54 8.65,-68.73 5.76,-14.723 15.65,-26.071 29.7,-34.043 14.04,-7.981 31.2,-11.957 51.49,-11.957 34.73,0 59.48,7.89 74.25,23.679 14.77,15.778 22.16,46.129 22.16,91.051 z"
         style="fill:#ffffff;stroke:#fefefe;stroke-width:10;stroke-linecap:butt;stroke-linejoin:miter;stroke-miterlimit:4;stroke-dasharray:none;stroke-opacity:1"
         id="path44" /><path
         d="m 5887,271.629 v 358.133 h 241.56 V 587.57 H 5934.5 V 476.629 h 167.81 v -42.18 H 5934.5 V 271.629 H 5887"
         style="fill:#ffffff;fill-opacity:1;fill-rule:nonzero;stroke:#231f20;stroke-opacity:1"
         id="path46" /><path
         d="m 5887,271.629 v 358.133 h 241.56 V 587.57 H 5934.5 V 476.629 h 167.81 v -42.18 H 5934.5 v -162.82 z"
         style="fill:#ffffff;stroke:#fefefe;stroke-width:10;stroke-linecap:butt;stroke-linejoin:miter;stroke-miterlimit:4;stroke-dasharray:none;stroke-opacity:1"
         id="path48" /><path
         d="m 6377.7,401.949 c -15.94,-6.539 -39.84,-12.078 -71.72,-16.66 -18.06,-2.609 -30.82,-5.547 -38.3,-8.809 -7.48,-3.281 -13.26,-8.039 -17.32,-14.332 -4.07,-6.289 -6.1,-13.257 -6.1,-20.937 0,-11.762 4.44,-21.551 13.3,-29.391 8.87,-7.828 21.84,-11.75 38.93,-11.75 16.92,0 31.97,3.711 45.16,11.129 13.18,7.422 22.86,17.59 29.04,30.492 4.72,9.957 7.08,24.661 7.08,44.09 z m 3.75,-98.437 c -16.29,-13.832 -31.95,-23.59 -47.01,-29.282 -15.05,-5.691 -31.2,-8.531 -48.45,-8.531 -28.48,0 -50.36,6.961 -65.65,20.891 -15.31,13.941 -22.95,31.742 -22.95,53.41 0,12.719 2.89,24.332 8.66,34.852 5.77,10.5 13.35,18.929 22.7,25.289 9.36,6.359 19.89,11.16 31.61,14.418 8.63,2.281 21.64,4.48 39.06,6.601 35.47,4.238 61.58,9.289 78.35,15.16 0.16,6.039 0.24,9.871 0.24,11.5 0,17.95 -4.15,30.602 -12.44,37.942 -11.22,9.949 -27.89,14.937 -50,14.937 -20.64,0 -35.9,-3.629 -45.72,-10.879 -9.85,-7.261 -17.12,-20.09 -21.84,-38.5 l -43.12,5.942 c 3.9,18.359 10.33,33.179 19.28,44.468 8.94,11.29 21.87,19.981 38.79,26.071 16.93,6.101 36.53,9.148 58.82,9.148 22.12,0 40.1,-2.609 53.93,-7.808 13.83,-5.192 23.99,-11.731 30.51,-19.61 6.5,-7.871 11.05,-17.82 13.66,-29.84 1.46,-7.472 2.2,-21 2.2,-40.589 v -58.75 c 0,-40.954 0.93,-66.84 2.83,-77.641 1.89,-10.813 5.63,-21.172 11.23,-31.082 h -45.94 c -4.54,9.082 -7.46,19.711 -8.75,31.883"
         style="fill:#ffffff;fill-opacity:1;fill-rule:nonzero;stroke:#231f20;stroke-opacity:1"
         id="path50" /><path
         d="m 6377.7,401.949 c -15.94,-6.539 -39.84,-12.078 -71.72,-16.66 -18.06,-2.609 -30.82,-5.547 -38.3,-8.809 -7.48,-3.281 -13.26,-8.039 -17.32,-14.332 -4.07,-6.289 -6.1,-13.257 -6.1,-20.937 0,-11.762 4.44,-21.551 13.3,-29.391 8.87,-7.828 21.84,-11.75 38.93,-11.75 16.92,0 31.97,3.711 45.16,11.129 13.18,7.422 22.86,17.59 29.04,30.492 4.72,9.957 7.08,24.661 7.08,44.09 z m 3.75,-98.437 c -16.29,-13.832 -31.95,-23.59 -47.01,-29.282 -15.05,-5.691 -31.2,-8.531 -48.45,-8.531 -28.48,0 -50.36,6.961 -65.65,20.891 -15.31,13.941 -22.95,31.742 -22.95,53.41 0,12.719 2.89,24.332 8.66,34.852 5.77,10.5 13.35,18.929 22.7,25.289 9.36,6.359 19.89,11.16 31.61,14.418 8.63,2.281 21.64,4.48 39.06,6.601 35.47,4.238 61.58,9.289 78.35,15.16 0.16,6.039 0.24,9.871 0.24,11.5 0,17.95 -4.15,30.602 -12.44,37.942 -11.22,9.949 -27.89,14.937 -50,14.937 -20.64,0 -35.9,-3.629 -45.72,-10.879 -9.85,-7.261 -17.12,-20.09 -21.84,-38.5 l -43.12,5.942 c 3.9,18.359 10.33,33.179 19.28,44.468 8.94,11.29 21.87,19.981 38.79,26.071 16.93,6.101 36.53,9.148 58.82,9.148 22.12,0 40.1,-2.609 53.93,-7.808 13.83,-5.192 23.99,-11.731 30.51,-19.61 6.5,-7.871 11.05,-17.82 13.66,-29.84 1.46,-7.472 2.2,-21 2.2,-40.589 v -58.75 c 0,-40.954 0.93,-66.84 2.83,-77.641 1.89,-10.813 5.63,-21.172 11.23,-31.082 h -45.94 c -4.54,9.082 -7.46,19.711 -8.75,31.883 z"
         style="fill:#ffffff;stroke:#fefefe;stroke-width:10;stroke-linecap:butt;stroke-linejoin:miter;stroke-miterlimit:4;stroke-dasharray:none;stroke-opacity:1"
         id="path52" /><path
         d="m 6687.31,366.629 43.12,-5.93 c -4.71,-29.719 -16.79,-52.98 -36.23,-69.801 -19.43,-16.796 -43.29,-25.199 -71.58,-25.199 -35.45,0 -63.94,11.61 -85.49,34.813 -21.55,23.218 -32.32,56.488 -32.32,99.828 0,28.019 4.63,52.539 13.91,73.562 9.27,21.008 23.37,36.778 42.34,47.278 18.94,10.511 39.57,15.769 61.86,15.769 28.14,0 51.15,-7.14 69.05,-21.41 17.89,-14.269 29.36,-34.527 34.4,-60.777 l -42.81,-6.563 c -4.06,17.41 -11.25,30.512 -21.55,39.301 -10.31,8.789 -22.77,13.199 -37.38,13.199 -22.08,0 -40.02,-7.937 -53.8,-23.808 -13.81,-15.871 -20.71,-40.981 -20.71,-75.332 0,-34.829 6.66,-60.137 19.98,-75.93 13.32,-15.789 30.71,-23.68 52.15,-23.68 17.22,0 31.59,5.281 43.13,15.86 11.53,10.57 18.84,26.851 21.93,48.82"
         style="fill:#ffffff;fill-opacity:1;fill-rule:nonzero;stroke:#231f20;stroke-opacity:1"
         id="path54" /><path
         d="m 6687.31,366.629 43.12,-5.93 c -4.71,-29.719 -16.79,-52.98 -36.23,-69.801 -19.43,-16.796 -43.29,-25.199 -71.58,-25.199 -35.45,0 -63.94,11.61 -85.49,34.813 -21.55,23.218 -32.32,56.488 -32.32,99.828 0,28.019 4.63,52.539 13.91,73.562 9.27,21.008 23.37,36.778 42.34,47.278 18.94,10.511 39.57,15.769 61.86,15.769 28.14,0 51.15,-7.14 69.05,-21.41 17.89,-14.269 29.36,-34.527 34.4,-60.777 l -42.81,-6.563 c -4.06,17.41 -11.25,30.512 -21.55,39.301 -10.31,8.789 -22.77,13.199 -37.38,13.199 -22.08,0 -40.02,-7.937 -53.8,-23.808 -13.81,-15.871 -20.71,-40.981 -20.71,-75.332 0,-34.829 6.66,-60.137 19.98,-75.93 13.32,-15.789 30.71,-23.68 52.15,-23.68 17.22,0 31.59,5.281 43.13,15.86 11.53,10.57 18.84,26.851 21.93,48.82 z"
         style="fill:#ffffff;stroke:#fefefe;stroke-width:10;stroke-linecap:butt;stroke-linejoin:miter;stroke-miterlimit:4;stroke-dasharray:none;stroke-opacity:1"
         id="path56" /><path
         d="m 6965.72,271.629 v 37.98 c -20.19,-29.277 -47.62,-43.91 -82.3,-43.91 -15.3,0 -29.59,2.93 -42.85,8.793 -13.28,5.86 -23.12,13.227 -29.55,22.11 -6.44,8.867 -10.96,19.75 -13.55,32.617 -1.8,8.621 -2.69,22.312 -2.69,41.043 v 160.75 h 44.06 V 387.07 c 0,-22.968 0.89,-38.441 2.69,-46.422 2.75,-11.566 8.61,-20.648 17.56,-27.25 8.94,-6.597 20,-9.886 33.16,-9.886 13.17,0 25.53,3.379 37.07,10.136 11.54,6.762 19.72,15.961 24.51,27.614 4.8,11.648 7.2,28.547 7.2,50.707 v 139.043 h 44.06 V 271.629 h -39.37"
         style="fill:#ffffff;fill-opacity:1;fill-rule:nonzero;stroke:#231f20;stroke-opacity:1"
         id="path58" /><path
         d="m 6965.72,271.629 v 37.98 c -20.19,-29.277 -47.62,-43.91 -82.3,-43.91 -15.3,0 -29.59,2.93 -42.85,8.793 -13.28,5.86 -23.12,13.227 -29.55,22.11 -6.44,8.867 -10.96,19.75 -13.55,32.617 -1.8,8.621 -2.69,22.312 -2.69,41.043 v 160.75 h 44.06 V 387.07 c 0,-22.968 0.89,-38.441 2.69,-46.422 2.75,-11.566 8.61,-20.648 17.56,-27.25 8.94,-6.597 20,-9.886 33.16,-9.886 13.17,0 25.53,3.379 37.07,10.136 11.54,6.762 19.72,15.961 24.51,27.614 4.8,11.648 7.2,28.547 7.2,50.707 v 139.043 h 44.06 V 271.629 Z"
         style="fill:#ffffff;stroke:#fefefe;stroke-width:10;stroke-linecap:butt;stroke-linejoin:miter;stroke-miterlimit:4;stroke-dasharray:none;stroke-opacity:1"
         id="path60" /><path
         d="m 7100.64,271.629 v 358.133 h 44.06 V 271.629 h -44.06"
         style="fill:#ffffff;fill-opacity:1;fill-rule:nonzero;stroke:#231f20;stroke-opacity:1"
         id="path62" /><path
         d="m 7100.64,271.629 v 358.133 h 44.06 V 271.629 Z"
         style="fill:#ffffff;stroke:#fefefe;stroke-width:10;stroke-linecap:butt;stroke-linejoin:miter;stroke-miterlimit:4;stroke-dasharray:none;stroke-opacity:1"
         id="path64" /><path
         d="m 7336.69,310.91 6.25,-38.82 c -12.39,-2.598 -23.47,-3.891 -33.25,-3.891 -15.97,0 -28.36,2.52 -37.17,7.563 -8.79,5.058 -15,11.699 -18.57,19.929 -3.59,8.219 -5.38,25.539 -5.38,51.93 v 149.328 h -32.5 v 34.063 h 32.5 v 64.207 l 44.06,26.363 v -90.57 h 44.06 v -34.063 h -44.06 V 345.082 c 0,-12.562 0.77,-20.633 2.32,-24.211 1.54,-3.582 4.05,-6.43 7.54,-8.562 3.49,-2.11 8.47,-3.18 14.98,-3.18 4.86,0 11.27,0.601 19.22,1.781"
         style="fill:#ffffff;fill-opacity:1;fill-rule:nonzero;stroke:#231f20;stroke-opacity:1"
         id="path66" /><path
         d="m 7336.69,310.91 6.25,-38.82 c -12.39,-2.598 -23.47,-3.891 -33.25,-3.891 -15.97,0 -28.36,2.52 -37.17,7.563 -8.79,5.058 -15,11.699 -18.57,19.929 -3.59,8.219 -5.38,25.539 -5.38,51.93 v 149.328 h -32.5 v 34.063 h 32.5 v 64.207 l 44.06,26.363 v -90.57 h 44.06 v -34.063 h -44.06 V 345.082 c 0,-12.562 0.77,-20.633 2.32,-24.211 1.54,-3.582 4.05,-6.43 7.54,-8.562 3.49,-2.11 8.47,-3.18 14.98,-3.18 4.86,0 11.27,0.601 19.22,1.781 z"
         style="fill:#ffffff;stroke:#fefefe;stroke-width:10;stroke-linecap:butt;stroke-linejoin:miter;stroke-miterlimit:4;stroke-dasharray:none;stroke-opacity:1"
         id="path68" /><path
         d="m 7405.27,171.699 -5,41.34 c 9.64,-2.609 18.06,-3.91 25.24,-3.91 9.81,0 17.64,1.633 23.52,4.891 5.88,3.261 10.7,7.82 14.47,13.679 2.77,4.391 7.27,15.301 13.48,32.711 0.81,2.442 2.12,6.039 3.91,10.75 l -98.43,259.852 h 47.1 l 54.06,-150.09 c 7.01,-19.031 13.3,-39.043 18.85,-60.031 5.12,20.031 11.21,39.648 18.25,58.839 l 55.49,151.282 h 43.95 l -98.44,-263.84 c -10.62,-28.5 -18.88,-48.113 -24.76,-58.852 -7.85,-14.488 -16.84,-25.109 -26.97,-31.871 -10.14,-6.75 -22.23,-10.129 -36.28,-10.129 -8.51,0 -17.98,1.801 -28.44,5.379"
         style="fill:#ffffff;fill-opacity:1;fill-rule:nonzero;stroke:#231f20;stroke-opacity:1"
         id="path70" /><path
         d="m 7405.27,171.699 -5,41.34 c 9.64,-2.609 18.06,-3.91 25.24,-3.91 9.81,0 17.64,1.633 23.52,4.891 5.88,3.261 10.7,7.82 14.47,13.679 2.77,4.391 7.27,15.301 13.48,32.711 0.81,2.442 2.12,6.039 3.91,10.75 l -98.43,259.852 h 47.1 l 54.06,-150.09 c 7.01,-19.031 13.3,-39.043 18.85,-60.031 5.12,20.031 11.21,39.648 18.25,58.839 l 55.49,151.282 h 43.95 l -98.44,-263.84 c -10.62,-28.5 -18.88,-48.113 -24.76,-58.852 -7.85,-14.488 -16.84,-25.109 -26.97,-31.871 -10.14,-6.75 -22.23,-10.129 -36.28,-10.129 -8.51,0 -17.98,1.801 -28.44,5.379 z"
         style="fill:#ffffff;stroke:#ffffff;stroke-width:10;stroke-linecap:butt;stroke-linejoin:miter;stroke-miterlimit:4;stroke-dasharray:none;stroke-opacity:1"
         id="path72" /><path
         d="m 7964.04,401.449 c 0,-33.258 7.23,-58.148 21.71,-74.687 14.48,-16.543 32.69,-24.813 54.67,-24.813 21.79,0 39.92,8.313 54.4,24.93 14.48,16.621 21.72,41.973 21.72,76.031 0,32.11 -7.28,56.43 -21.85,72.969 -14.55,16.543 -32.65,24.82 -54.27,24.82 -21.98,0 -40.19,-8.238 -54.67,-24.699 -14.48,-16.461 -21.71,-41.309 -21.71,-74.551 z m -45.31,-0.129 c 0,48.059 13.35,83.649 40.06,106.789 22.33,19.223 49.54,28.84 81.63,28.84 35.66,0 64.82,-11.687 87.47,-35.07 22.64,-23.379 33.96,-55.68 33.96,-96.899 0,-33.398 -5.01,-59.671 -15.03,-78.808 -10.02,-19.141 -24.59,-34 -43.73,-44.59 -19.14,-10.582 -40.04,-15.883 -62.67,-15.883 -36.33,0 -65.7,11.653 -88.09,34.942 -22.4,23.289 -33.6,56.847 -33.6,100.679"
         style="fill:#ffffff;fill-opacity:1;fill-rule:nonzero;stroke:#231f20;stroke-opacity:1"
         id="path74" /><path
         d="m 7964.04,401.449 c 0,-33.258 7.23,-58.148 21.71,-74.687 14.48,-16.543 32.69,-24.813 54.67,-24.813 21.79,0 39.92,8.313 54.4,24.93 14.48,16.621 21.72,41.973 21.72,76.031 0,32.11 -7.28,56.43 -21.85,72.969 -14.55,16.543 -32.65,24.82 -54.27,24.82 -21.98,0 -40.19,-8.238 -54.67,-24.699 -14.48,-16.461 -21.71,-41.309 -21.71,-74.551 z m -45.31,-0.129 c 0,48.059 13.35,83.649 40.06,106.789 22.33,19.223 49.54,28.84 81.63,28.84 35.66,0 64.82,-11.687 87.47,-35.07 22.64,-23.379 33.96,-55.68 33.96,-96.899 0,-33.398 -5.01,-59.671 -15.03,-78.808 -10.02,-19.141 -24.59,-34 -43.73,-44.59 -19.14,-10.582 -40.04,-15.883 -62.67,-15.883 -36.33,0 -65.7,11.653 -88.09,34.942 -22.4,23.289 -33.6,56.847 -33.6,100.679 z"
         style="fill:#ffffff;stroke:#ffffff;stroke-width:10;stroke-linecap:butt;stroke-linejoin:miter;stroke-miterlimit:4;stroke-dasharray:none;stroke-opacity:1"
         id="path76" /><path
         d="m 8251.48,271.629 v 225.32 h -38.75 v 34.063 h 38.75 v 27.57 c 0,17.41 1.55,30.348 4.64,38.797 4.24,11.391 11.7,20.621 22.36,27.703 10.69,7.066 25.62,10.617 44.83,10.617 12.36,0 26.03,-1.48 41.01,-4.41 l -6.59,-38.34 c -9.11,1.621 -17.74,2.43 -25.88,2.43 -13.35,0 -22.78,-2.84 -28.32,-8.527 -5.54,-5.704 -8.3,-16.34 -8.3,-31.954 v -23.886 h 50.62 v -34.063 h -50.31 v -225.32 h -44.06"
         style="fill:#ffffff;fill-opacity:1;fill-rule:nonzero;stroke:#231f20;stroke-opacity:1"
         id="path78" /><path
         d="m 8251.48,271.629 v 225.32 h -38.75 v 34.063 h 38.75 v 27.57 c 0,17.41 1.55,30.348 4.64,38.797 4.24,11.391 11.7,20.621 22.36,27.703 10.69,7.066 25.62,10.617 44.83,10.617 12.36,0 26.03,-1.48 41.01,-4.41 l -6.59,-38.34 c -9.11,1.621 -17.74,2.43 -25.88,2.43 -13.35,0 -22.78,-2.84 -28.32,-8.527 -5.54,-5.704 -8.3,-16.34 -8.3,-31.954 v -23.886 h 50.62 v -34.063 h -50.31 v -225.32 z"
         style="fill:#ffffff;stroke:#ffffff;stroke-width:10;stroke-linecap:butt;stroke-linejoin:miter;stroke-miterlimit:4;stroke-dasharray:none;stroke-opacity:1"
         id="path80" /><path
         d="m 8647.58,386.629 44.69,4.07 c 2.11,-17.969 7.01,-32.719 14.73,-44.23 7.71,-11.52 19.68,-20.821 35.92,-27.93 16.23,-7.109 34.49,-10.66 54.78,-10.66 18.02,0 33.93,2.703 47.72,8.09 13.8,5.39 24.07,12.781 30.81,22.179 6.73,9.383 10.1,19.614 10.1,30.684 0,11.207 -3.22,21.02 -9.66,29.387 -6.45,8.383 -17.16,15.429 -32.13,21.14 -9.6,3.743 -30.84,9.571 -63.71,17.473 -32.86,7.898 -55.88,15.359 -69.06,22.367 -17.08,8.973 -29.81,20.09 -38.19,33.383 -8.38,13.277 -12.56,28.16 -12.56,44.629 0,18.09 5.12,35.019 15.37,50.738 10.25,15.742 25.22,27.68 44.88,35.832 19.69,8.16 41.57,12.231 65.64,12.231 26.51,0 49.89,-4.27 70.14,-12.813 20.24,-8.551 35.82,-21.109 46.71,-37.707 10.9,-16.582 16.75,-35.371 17.57,-56.363 l -45.31,-3.43 c -2.44,22.563 -10.7,39.61 -24.77,51.141 -14.08,11.519 -34.86,17.289 -62.36,17.289 -28.63,0 -49.51,-5.258 -62.6,-15.77 -13.1,-10.507 -19.64,-23.179 -19.64,-38.007 0,-12.872 4.62,-23.461 13.9,-31.77 9.12,-8.312 32.91,-16.832 71.39,-25.551 38.48,-8.722 64.86,-16.332 79.15,-22.832 20.77,-9.609 36.11,-21.769 46.01,-36.488 9.91,-14.719 14.86,-31.691 14.86,-50.879 0,-19.043 -5.45,-36.98 -16.33,-53.812 -10.88,-16.84 -26.52,-29.938 -46.91,-39.29 -20.39,-9.359 -43.33,-14.031 -68.83,-14.031 -32.34,0 -59.43,4.711 -81.27,14.141 -21.86,9.422 -39,23.609 -51.43,42.539 -12.42,18.941 -18.96,40.363 -19.61,64.25"
         style="fill:#ffffff;fill-opacity:1;fill-rule:nonzero;stroke:#231f20;stroke-opacity:1"
         id="path82" /><path
         d="m 8647.58,386.629 44.69,4.07 c 2.11,-17.969 7.01,-32.719 14.73,-44.23 7.71,-11.52 19.68,-20.821 35.92,-27.93 16.23,-7.109 34.49,-10.66 54.78,-10.66 18.02,0 33.93,2.703 47.72,8.09 13.8,5.39 24.07,12.781 30.81,22.179 6.73,9.383 10.1,19.614 10.1,30.684 0,11.207 -3.22,21.02 -9.66,29.387 -6.45,8.383 -17.16,15.429 -32.13,21.14 -9.6,3.743 -30.84,9.571 -63.71,17.473 -32.86,7.898 -55.88,15.359 -69.06,22.367 -17.08,8.973 -29.81,20.09 -38.19,33.383 -8.38,13.277 -12.56,28.16 -12.56,44.629 0,18.09 5.12,35.019 15.37,50.738 10.25,15.742 25.22,27.68 44.88,35.832 19.69,8.16 41.57,12.231 65.64,12.231 26.51,0 49.89,-4.27 70.14,-12.813 20.24,-8.551 35.82,-21.109 46.71,-37.707 10.9,-16.582 16.75,-35.371 17.57,-56.363 l -45.31,-3.43 c -2.44,22.563 -10.7,39.61 -24.77,51.141 -14.08,11.519 -34.86,17.289 -62.36,17.289 -28.63,0 -49.51,-5.258 -62.6,-15.77 -13.1,-10.507 -19.64,-23.179 -19.64,-38.007 0,-12.872 4.62,-23.461 13.9,-31.77 9.12,-8.312 32.91,-16.832 71.39,-25.551 38.48,-8.722 64.86,-16.332 79.15,-22.832 20.77,-9.609 36.11,-21.769 46.01,-36.488 9.91,-14.719 14.86,-31.691 14.86,-50.879 0,-19.043 -5.45,-36.98 -16.33,-53.812 -10.88,-16.84 -26.52,-29.938 -46.91,-39.29 -20.39,-9.359 -43.33,-14.031 -68.83,-14.031 -32.34,0 -59.43,4.711 -81.27,14.141 -21.86,9.422 -39,23.609 -51.43,42.539 -12.42,18.941 -18.96,40.363 -19.61,64.25 z"
         style="fill:#ffffff;stroke:#ffffff;stroke-width:10;stroke-linecap:butt;stroke-linejoin:miter;stroke-miterlimit:4;stroke-dasharray:none;stroke-opacity:1"
         id="path84" /><path
         d="m 9188.24,366.629 43.12,-5.93 c -4.71,-29.719 -16.78,-52.98 -36.22,-69.801 -19.43,-16.796 -43.3,-25.199 -71.59,-25.199 -35.45,0 -63.96,11.61 -85.5,34.813 -21.54,23.218 -32.31,56.488 -32.31,99.828 0,28.019 4.64,52.539 13.9,73.562 9.27,21.008 23.39,36.778 42.34,47.278 18.95,10.511 39.57,15.769 61.85,15.769 28.15,0 51.17,-7.14 69.07,-21.41 17.89,-14.269 29.35,-34.527 34.4,-60.777 l -42.81,-6.563 c -4.07,17.41 -11.24,30.512 -21.56,39.301 -10.31,8.789 -22.76,13.199 -37.37,13.199 -22.08,0 -40.01,-7.937 -53.82,-23.808 -13.79,-15.871 -20.69,-40.981 -20.69,-75.332 0,-34.829 6.66,-60.137 19.98,-75.93 13.32,-15.789 30.7,-23.68 52.15,-23.68 17.22,0 31.59,5.281 43.12,15.86 11.54,10.57 18.85,26.851 21.94,48.82"
         style="fill:#ffffff;fill-opacity:1;fill-rule:nonzero;stroke:#231f20;stroke-opacity:1"
         id="path86" /><path
         d="m 9188.24,366.629 43.12,-5.93 c -4.71,-29.719 -16.78,-52.98 -36.22,-69.801 -19.43,-16.796 -43.3,-25.199 -71.59,-25.199 -35.45,0 -63.96,11.61 -85.5,34.813 -21.54,23.218 -32.31,56.488 -32.31,99.828 0,28.019 4.64,52.539 13.9,73.562 9.27,21.008 23.39,36.778 42.34,47.278 18.95,10.511 39.57,15.769 61.85,15.769 28.15,0 51.17,-7.14 69.07,-21.41 17.89,-14.269 29.35,-34.527 34.4,-60.777 l -42.81,-6.563 c -4.07,17.41 -11.24,30.512 -21.56,39.301 -10.31,8.789 -22.76,13.199 -37.37,13.199 -22.08,0 -40.01,-7.937 -53.82,-23.808 -13.79,-15.871 -20.69,-40.981 -20.69,-75.332 0,-34.829 6.66,-60.137 19.98,-75.93 13.32,-15.789 30.7,-23.68 52.15,-23.68 17.22,0 31.59,5.281 43.12,15.86 11.54,10.57 18.85,26.851 21.94,48.82 z"
         style="fill:#ffffff;stroke:#ffffff;stroke-width:10;stroke-linecap:butt;stroke-linejoin:miter;stroke-miterlimit:4;stroke-dasharray:none;stroke-opacity:1"
         id="path88" /><path
         d="m 9296.96,271.629 v 259.383 h 44.06 V 271.629 Z m 0,307.5 v 50.633 h 44.06 v -50.633 h -44.06"
         style="fill:#ffffff;fill-opacity:1;fill-rule:nonzero;stroke:#231f20;stroke-opacity:1"
         id="path90" /><path
         d="m 9296.96,271.629 v 259.383 h 44.06 V 271.629 Z m 0,307.5 v 50.633 h 44.06 v -50.633 z"
         style="fill:#ffffff;stroke:#ffffff;stroke-width:10;stroke-linecap:butt;stroke-linejoin:miter;stroke-miterlimit:4;stroke-dasharray:none;stroke-opacity:1"
         id="path92" /><path
         d="m 9468.95,426.32 h 145 c -1.95,21.789 -7.5,38.121 -16.62,49.012 -14.02,16.91 -32.21,25.367 -54.53,25.367 -20.22,0 -37.21,-6.75 -50.99,-20.25 -13.78,-13.5 -21.39,-31.527 -22.86,-54.129 z m 144.51,-70.941 45.28,-5.93 c -7.16,-26.539 -20.43,-47.129 -39.81,-61.777 -19.37,-14.652 -44.11,-21.973 -74.23,-21.973 -37.94,0 -68.02,11.68 -90.23,35.063 -22.22,23.379 -33.33,56.168 -33.33,98.359 0,43.66 11.23,77.539 33.69,101.66 22.47,24.098 51.61,36.168 87.42,36.168 34.68,0 63.01,-11.808 84.98,-35.437 21.97,-23.621 32.97,-56.864 32.97,-99.711 0,-2.61 -0.08,-6.52 -0.24,-11.731 h -193.51 c 1.63,-28.488 9.71,-50.281 24.22,-65.422 14.51,-15.136 32.62,-22.699 54.3,-22.699 16.15,0 29.92,4.242 41.34,12.742 11.41,8.5 20.46,22.059 27.15,40.688"
         style="fill:#ffffff;fill-opacity:1;fill-rule:nonzero;stroke:#231f20;stroke-opacity:1"
         id="path94" /><path
         d="m 9468.95,426.32 h 145 c -1.95,21.789 -7.5,38.121 -16.62,49.012 -14.02,16.91 -32.21,25.367 -54.53,25.367 -20.22,0 -37.21,-6.75 -50.99,-20.25 -13.78,-13.5 -21.39,-31.527 -22.86,-54.129 z m 144.51,-70.941 45.28,-5.93 c -7.16,-26.539 -20.43,-47.129 -39.81,-61.777 -19.37,-14.652 -44.11,-21.973 -74.23,-21.973 -37.94,0 -68.02,11.68 -90.23,35.063 -22.22,23.379 -33.33,56.168 -33.33,98.359 0,43.66 11.23,77.539 33.69,101.66 22.47,24.098 51.61,36.168 87.42,36.168 34.68,0 63.01,-11.808 84.98,-35.437 21.97,-23.621 32.97,-56.864 32.97,-99.711 0,-2.61 -0.08,-6.52 -0.24,-11.731 h -193.51 c 1.63,-28.488 9.71,-50.281 24.22,-65.422 14.51,-15.136 32.62,-22.699 54.3,-22.699 16.15,0 29.92,4.242 41.34,12.742 11.41,8.5 20.46,22.059 27.15,40.688 z"
         style="fill:#ffffff;stroke:#ffffff;stroke-width:10;stroke-linecap:butt;stroke-linejoin:miter;stroke-miterlimit:4;stroke-dasharray:none;stroke-opacity:1"
         id="path96" /><path
         d="m 9741.37,271.629 v 259.383 h 39.69 v -36.871 c 19.05,28.539 46.58,42.808 82.58,42.808 15.62,0 30,-2.82 43.1,-8.429 13.12,-5.629 22.93,-12.989 29.45,-22.11 6.51,-9.121 11.07,-19.961 13.68,-32.5 1.62,-8.148 2.44,-22.379 2.44,-42.75 V 271.629 h -44.06 v 157.812 c 0,17.918 -1.71,31.301 -5.13,40.188 -3.42,8.871 -9.48,15.961 -18.19,21.25 -8.71,5.293 -18.93,7.941 -30.65,7.941 -18.71,0 -34.86,-5.949 -48.45,-17.828 -13.6,-11.89 -20.4,-34.453 -20.4,-67.672 V 271.629 h -44.06"
         style="fill:#ffffff;fill-opacity:1;fill-rule:nonzero;stroke:#231f20;stroke-opacity:1"
         id="path98" /><path
         d="m 9741.37,271.629 v 259.383 h 39.69 v -36.871 c 19.05,28.539 46.58,42.808 82.58,42.808 15.62,0 30,-2.82 43.1,-8.429 13.12,-5.629 22.93,-12.989 29.45,-22.11 6.51,-9.121 11.07,-19.961 13.68,-32.5 1.62,-8.148 2.44,-22.379 2.44,-42.75 V 271.629 h -44.06 v 157.812 c 0,17.918 -1.71,31.301 -5.13,40.188 -3.42,8.871 -9.48,15.961 -18.19,21.25 -8.71,5.293 -18.93,7.941 -30.65,7.941 -18.71,0 -34.86,-5.949 -48.45,-17.828 -13.6,-11.89 -20.4,-34.453 -20.4,-67.672 V 271.629 Z"
         style="fill:#ffffff;stroke:#ffffff;stroke-width:10;stroke-linecap:butt;stroke-linejoin:miter;stroke-miterlimit:4;stroke-dasharray:none;stroke-opacity:1"
         id="path100" /><path
         d="m 10216.6,366.629 43.1,-5.93 c -4.7,-29.719 -16.8,-52.98 -36.2,-69.801 -19.4,-16.796 -43.3,-25.199 -71.6,-25.199 -35.4,0 -63.9,11.61 -85.5,34.813 -21.5,23.218 -32.3,56.488 -32.3,99.828 0,28.019 4.6,52.539 13.9,73.562 9.3,21.008 23.4,36.778 42.4,47.278 18.9,10.511 39.5,15.769 61.8,15.769 28.2,0 51.2,-7.14 69.1,-21.41 17.9,-14.269 29.3,-34.527 34.4,-60.777 l -42.8,-6.563 c -4.1,17.41 -11.3,30.512 -21.6,39.301 -10.3,8.789 -22.8,13.199 -37.4,13.199 -22,0 -40,-7.937 -53.8,-23.808 -13.8,-15.871 -20.7,-40.981 -20.7,-75.332 0,-34.829 6.7,-60.137 20,-75.93 13.3,-15.789 30.7,-23.68 52.1,-23.68 17.3,0 31.6,5.281 43.2,15.86 11.5,10.57 18.8,26.851 21.9,48.82"
         style="fill:#ffffff;fill-opacity:1;fill-rule:nonzero;stroke:#231f20;stroke-opacity:1"
         id="path102" /><path
         d="m 10216.6,366.629 43.1,-5.93 c -4.7,-29.719 -16.8,-52.98 -36.2,-69.801 -19.4,-16.796 -43.3,-25.199 -71.6,-25.199 -35.4,0 -63.9,11.61 -85.5,34.813 -21.5,23.218 -32.3,56.488 -32.3,99.828 0,28.019 4.6,52.539 13.9,73.562 9.3,21.008 23.4,36.778 42.4,47.278 18.9,10.511 39.5,15.769 61.8,15.769 28.2,0 51.2,-7.14 69.1,-21.41 17.9,-14.269 29.3,-34.527 34.4,-60.777 l -42.8,-6.563 c -4.1,17.41 -11.3,30.512 -21.6,39.301 -10.3,8.789 -22.8,13.199 -37.4,13.199 -22,0 -40,-7.937 -53.8,-23.808 -13.8,-15.871 -20.7,-40.981 -20.7,-75.332 0,-34.829 6.7,-60.137 20,-75.93 13.3,-15.789 30.7,-23.68 52.1,-23.68 17.3,0 31.6,5.281 43.2,15.86 11.5,10.57 18.8,26.851 21.9,48.82 z"
         style="fill:#ffffff;stroke:#ffffff;stroke-width:10;stroke-linecap:butt;stroke-linejoin:miter;stroke-miterlimit:4;stroke-dasharray:none;stroke-opacity:1"
         id="path104" /><path
         d="m 10358.5,426.32 h 145 c -2,21.789 -7.5,38.121 -16.7,49.012 -14,16.91 -32.2,25.367 -54.5,25.367 -20.2,0 -37.2,-6.75 -51,-20.25 -13.8,-13.5 -21.4,-31.527 -22.8,-54.129 z m 144.5,-70.941 45.2,-5.93 c -7.1,-26.539 -20.4,-47.129 -39.8,-61.777 -19.3,-14.652 -44.1,-21.973 -74.2,-21.973 -37.9,0 -68,11.68 -90.2,35.063 -22.3,23.379 -33.4,56.168 -33.4,98.359 0,43.66 11.3,77.539 33.7,101.66 22.5,24.098 51.6,36.168 87.5,36.168 34.6,0 63,-11.808 84.9,-35.437 22,-23.621 33,-56.864 33,-99.711 0,-2.61 -0.1,-6.52 -0.2,-11.731 H 10356 c 1.6,-28.488 9.6,-50.281 24.2,-65.422 14.5,-15.136 32.6,-22.699 54.3,-22.699 16.1,0 29.9,4.242 41.3,12.742 11.4,8.5 20.5,22.059 27.2,40.688"
         style="fill:#ffffff;fill-opacity:1;fill-rule:nonzero;stroke:#231f20;stroke-opacity:1"
         id="path106" /><path
         d="m 10358.5,426.32 h 145 c -2,21.789 -7.5,38.121 -16.7,49.012 -14,16.91 -32.2,25.367 -54.5,25.367 -20.2,0 -37.2,-6.75 -51,-20.25 -13.8,-13.5 -21.4,-31.527 -22.8,-54.129 z m 144.5,-70.941 45.2,-5.93 c -7.1,-26.539 -20.4,-47.129 -39.8,-61.777 -19.3,-14.652 -44.1,-21.973 -74.2,-21.973 -37.9,0 -68,11.68 -90.2,35.063 -22.3,23.379 -33.4,56.168 -33.4,98.359 0,43.66 11.3,77.539 33.7,101.66 22.5,24.098 51.6,36.168 87.5,36.168 34.6,0 63,-11.808 84.9,-35.437 22,-23.621 33,-56.864 33,-99.711 0,-2.61 -0.1,-6.52 -0.2,-11.731 H 10356 c 1.6,-28.488 9.6,-50.281 24.2,-65.422 14.5,-15.136 32.6,-22.699 54.3,-22.699 16.1,0 29.9,4.242 41.3,12.742 11.4,8.5 20.5,22.059 27.2,40.688 z"
         style="fill:#ffffff;stroke:#ffffff;stroke-width:10;stroke-linecap:butt;stroke-linejoin:miter;stroke-miterlimit:4;stroke-dasharray:none;stroke-opacity:1"
         id="path108" /><path
         d="m 4488.84,1279.18 v 93.63 h -309.45 v -93.63 z m 0,121.1 v 87.99 h -309.45 v -87.99 z m 29.37,-195.01 h -29.37 v 46.46 h -309.45 v -46.46 h -29.37 v 310.46 h 368.19 z m 47.82,610.37 c -66.26,-14.09 -139.36,-24.64 -218.59,-31.68 V 1703 h 280.07 v -27.46 h -243.87 c 56.02,-59.84 143.45,-114.76 263,-165.44 l -24.6,-27.46 c -122.95,57.73 -213.81,121.8 -271.87,192.9 h -2.73 v -135.17 h -29.37 v 135.17 h -2.74 c -29.37,-36.61 -68.31,-73.21 -116.81,-108.42 -58.74,-40.13 -114.08,-70.4 -165.99,-90.11 l -12.98,27.45 c 47.82,17.6 99.05,43.66 152.33,78.85 45.77,30.28 81.97,61.25 107.93,92.23 H 4037.99 V 1703 h 280.08 v 78.13 c -69.68,-6.32 -143.46,-10.55 -221.33,-12.66 l -8.2,30.27 c 153.7,0 307.4,15.49 461.78,47.17 l 15.71,-30.27"
         style="fill:#ffffff;fill-opacity:1;fill-rule:nonzero;stroke:#231f20;stroke-opacity:1"
         id="path110" /><path
         d="m 4488.84,1279.18 v 93.63 h -309.45 v -93.63 z m 0,121.1 v 87.99 h -309.45 v -87.99 z m 29.37,-195.01 h -29.37 v 46.46 h -309.45 v -46.46 h -29.37 v 310.46 h 368.19 z m 47.82,610.37 c -66.26,-14.09 -139.36,-24.64 -218.59,-31.68 V 1703 h 280.07 v -27.46 h -243.87 c 56.02,-59.84 143.45,-114.76 263,-165.44 l -24.6,-27.46 c -122.95,57.73 -213.81,121.8 -271.87,192.9 h -2.73 v -135.17 h -29.37 v 135.17 h -2.74 c -29.37,-36.61 -68.31,-73.21 -116.81,-108.42 -58.74,-40.13 -114.08,-70.4 -165.99,-90.11 l -12.98,27.45 c 47.82,17.6 99.05,43.66 152.33,78.85 45.77,30.28 81.97,61.25 107.93,92.23 H 4037.99 V 1703 h 280.08 v 78.13 c -69.68,-6.32 -143.46,-10.55 -221.33,-12.66 l -8.2,30.27 c 153.7,0 307.4,15.49 461.78,47.17 z"
         style="fill:#ffffff;stroke:#fefefe;stroke-width:20;stroke-linecap:butt;stroke-linejoin:miter;stroke-miterlimit:4;stroke-dasharray:none;stroke-opacity:1"
         id="path112" /><path
         d="m 5193.11,1617.11 v 102.08 H 5068.1 v -102.08 z m -144.14,-216.83 h 168.04 v 85.18 h -168.04 v -8.45 z m -10.24,346.36 v 104.9 h 29.37 v -104.9 h 125.01 v 104.9 h 29.37 v -104.9 h 117.49 v -27.45 h -117.49 v -102.08 h 152.33 v -27.46 h -148.23 c 34.15,-50.68 86.75,-97.15 158.47,-140.1 l -23.9,-27.45 c -75.14,49.98 -131.15,105.6 -168.04,167.55 h -122.96 c -10.25,-25.34 -23.91,-50.68 -41.67,-76.74 h 217.91 v -140.1 h -197.42 v -77.43 c 0,-11.97 2.05,-19.71 7.51,-24.65 6.84,-7.04 65.59,-10.55 176.93,-10.55 36.89,0 58.74,6.34 64.89,19 2.05,4.93 4.1,33.1 6.83,85.19 l 32.11,-16.19 c -3.42,-57.73 -6.83,-88 -10.25,-92.23 -2.05,-16.9 -33.47,-26.05 -93.58,-26.05 -128.42,0 -193.32,4.94 -195.37,13.38 -12.29,7.04 -18.44,23.24 -18.44,49.98 v 206.99 c -27.32,-36.62 -58.75,-69 -95.64,-97.16 l -21.86,21.82 c 35.53,26.75 65.59,56.32 90.18,88.71 19.8,26.75 34.83,52.09 45.08,76.03 h -137.3 v 27.46 h 138.67 v 102.08 h -99.05 v 27.45 z m -128.43,-13.38 -18.44,-25.34 c -33.47,34.5 -68.31,64.07 -104.52,88 l 16.4,22.53 c 38.94,-24.64 74.46,-52.8 106.56,-85.19 z m -15.71,-253.43 c -24.59,-88 -61.47,-176 -109.29,-264.01 l -27.33,19.72 c 47.82,78.85 85.39,166.14 112.71,261.18 z m -13.66,90.82 -18.44,-24.65 c -33.48,38.02 -68.32,69.7 -104.52,96.45 l 16.4,21.83 c 38.94,-26.76 74.45,-57.74 106.56,-93.63"
         style="fill:#ffffff;fill-opacity:1;fill-rule:nonzero;stroke:#231f20;stroke-opacity:1"
         id="path114" /><path
         d="m 5193.11,1617.11 v 102.08 H 5068.1 v -102.08 z m -144.14,-216.83 h 168.04 v 85.18 h -168.04 v -8.45 z m -10.24,346.36 v 104.9 h 29.37 v -104.9 h 125.01 v 104.9 h 29.37 v -104.9 h 117.49 v -27.45 h -117.49 v -102.08 h 152.33 v -27.46 h -148.23 c 34.15,-50.68 86.75,-97.15 158.47,-140.1 l -23.9,-27.45 c -75.14,49.98 -131.15,105.6 -168.04,167.55 h -122.96 c -10.25,-25.34 -23.91,-50.68 -41.67,-76.74 h 217.91 v -140.1 h -197.42 v -77.43 c 0,-11.97 2.05,-19.71 7.51,-24.65 6.84,-7.04 65.59,-10.55 176.93,-10.55 36.89,0 58.74,6.34 64.89,19 2.05,4.93 4.1,33.1 6.83,85.19 l 32.11,-16.19 c -3.42,-57.73 -6.83,-88 -10.25,-92.23 -2.05,-16.9 -33.47,-26.05 -93.58,-26.05 -128.42,0 -193.32,4.94 -195.37,13.38 -12.29,7.04 -18.44,23.24 -18.44,49.98 v 206.99 c -27.32,-36.62 -58.75,-69 -95.64,-97.16 l -21.86,21.82 c 35.53,26.75 65.59,56.32 90.18,88.71 19.8,26.75 34.83,52.09 45.08,76.03 h -137.3 v 27.46 h 138.67 v 102.08 h -99.05 v 27.45 z m -128.43,-13.38 -18.44,-25.34 c -33.47,34.5 -68.31,64.07 -104.52,88 l 16.4,22.53 c 38.94,-24.64 74.46,-52.8 106.56,-85.19 z m -15.71,-253.43 c -24.59,-88 -61.47,-176 -109.29,-264.01 l -27.33,19.72 c 47.82,78.85 85.39,166.14 112.71,261.18 z m -13.66,90.82 -18.44,-24.65 c -33.48,38.02 -68.32,69.7 -104.52,96.45 l 16.4,21.83 c 38.94,-26.76 74.45,-57.74 106.56,-93.63 z"
         style="fill:#ffffff;stroke:#fefefe;stroke-width:20;stroke-linecap:butt;stroke-linejoin:miter;stroke-miterlimit:4;stroke-dasharray:none;stroke-opacity:1"
         id="path116" /><path
         d="m 5894.63,1327.06 c 13.67,9.86 25.96,19.71 36.89,30.27 28.69,25.35 49.87,52.8 64.22,81.67 h -205.62 c 23.91,-43.66 58.75,-80.96 104.51,-111.94 z m 136.62,488.58 v -88 h 82.66 v -27.46 h -82.66 v -85.19 h -299.19 v 27.46 h 269.82 v 57.73 h -325.84 v 27.46 h 325.84 v 60.54 h -267.09 v 27.46 z m 66.26,-374.53 h -29.37 v 80.25 h -373.65 v -80.25 h -29.38 v 107.71 h 432.4 z m -63.52,25.34 v -16.9 c -15.03,-38.02 -40.3,-73.91 -75.15,-107.71 -12.29,-12.67 -24.59,-23.23 -36.88,-31.68 51.91,-30.98 118.86,-54.91 199.46,-72.51 l -15.71,-32.38 c -81.97,19 -152.33,47.87 -210.39,86.59 -20.49,-12.68 -42.36,-23.94 -64.21,-33.79 -51.92,-23.94 -119.54,-40.83 -202.88,-50.7 l -8.2,30.28 c 77.88,8.45 141.4,23.93 190.58,45.06 21.18,8.44 40.3,17.59 58.07,28.15 -46.46,35.21 -83.34,77.44 -110.67,128.14 h -36.2 v 27.45 z m -381.86,271.75 -21.17,-27.46 c -35.53,35.2 -71.73,65.47 -109.29,90.81 l 18.43,21.83 c 40.99,-23.93 77.88,-52.8 112.03,-85.18 z m -18.43,-264.01 c -24.6,-85.89 -61.49,-172.48 -109.98,-258.37 l -29.38,21.83 c 47.81,78.14 85.39,163.33 112.71,256.26 z m -10.94,99.27 -21.17,-27.46 c -36.2,38.02 -73.78,71.11 -112.03,99.27 l 18.44,21.82 c 41.67,-26.75 79.92,-57.72 114.76,-93.63"
         style="fill:#ffffff;fill-opacity:1;fill-rule:nonzero;stroke:#ffffff;stroke-opacity:1"
         id="path118" /><path
         d="m 5894.63,1327.06 c 13.67,9.86 25.96,19.71 36.89,30.27 28.69,25.35 49.87,52.8 64.22,81.67 h -205.62 c 23.91,-43.66 58.75,-80.96 104.51,-111.94 z m 136.62,488.58 v -88 h 82.66 v -27.46 h -82.66 v -85.19 h -299.19 v 27.46 h 269.82 v 57.73 h -325.84 v 27.46 h 325.84 v 60.54 h -267.09 v 27.46 z m 66.26,-374.53 h -29.37 v 80.25 h -373.65 v -80.25 h -29.38 v 107.71 h 432.4 z m -63.52,25.34 v -16.9 c -15.03,-38.02 -40.3,-73.91 -75.15,-107.71 -12.29,-12.67 -24.59,-23.23 -36.88,-31.68 51.91,-30.98 118.86,-54.91 199.46,-72.51 l -15.71,-32.38 c -81.97,19 -152.33,47.87 -210.39,86.59 -20.49,-12.68 -42.36,-23.94 -64.21,-33.79 -51.92,-23.94 -119.54,-40.83 -202.88,-50.7 l -8.2,30.28 c 77.88,8.45 141.4,23.93 190.58,45.06 21.18,8.44 40.3,17.59 58.07,28.15 -46.46,35.21 -83.34,77.44 -110.67,128.14 h -36.2 v 27.45 z m -381.86,271.75 -21.17,-27.46 c -35.53,35.2 -71.73,65.47 -109.29,90.81 l 18.43,21.83 c 40.99,-23.93 77.88,-52.8 112.03,-85.18 z m -18.43,-264.01 c -24.6,-85.89 -61.49,-172.48 -109.98,-258.37 l -29.38,21.83 c 47.81,78.14 85.39,163.33 112.71,256.26 z m -10.94,99.27 -21.17,-27.46 c -36.2,38.02 -73.78,71.11 -112.03,99.27 l 18.44,21.82 c 41.67,-26.75 79.92,-57.72 114.76,-93.63 z"
         style="fill:#ffffff;stroke:#fefefe;stroke-width:20;stroke-linecap:butt;stroke-linejoin:miter;stroke-miterlimit:4;stroke-dasharray:none;stroke-opacity:1"
         id="path120" /><path
         d="m 6708.87,1603.73 c -21.85,-32.38 -49.18,-61.95 -82.65,-88 l -21.86,19.01 c 32.79,23.93 59.43,50.69 80.61,80.25 z m -155.06,-96.44 h 194.68 v 121.08 h -194.68 z m 82.66,217.53 v -27.45 h -197.42 v 27.45 z m -159.84,-187.27 -18.45,-19 c -21.86,27.45 -49.18,54.91 -80.61,82.37 l 19.13,16.19 c 26.64,-22.53 53.29,-48.58 79.93,-79.56 z m 232.24,-269.63 v 60.55 h -334.03 v -60.55 z m 0,88 v 55.61 h -334.03 v -55.61 z m 29.38,-150.65 h -29.38 v 35.2 h -334.03 v -35.2 h -29.38 V 1439 h 392.79 z m -213.81,302.02 v 121.08 h -189.22 v -121.08 z m 227.47,148.54 c -20.49,11.26 -40.99,23.22 -60.11,35.9 -54.65,35.21 -104.52,73.92 -149.6,116.16 -30.06,-28.16 -64.89,-56.32 -103.15,-83.07 -7.51,-5.63 -15.03,-11.26 -21.86,-15.49 -30.74,-20.41 -59.43,-38.02 -86.76,-53.5 z m -179.66,181.63 c -4.09,-4.23 -8.19,-8.45 -12.29,-12.67 45.08,-39.43 94.95,-75.34 149.6,-107.72 49.19,-30.97 99.73,-57.02 150.96,-77.44 l -15.71,-30.26 c -23.22,9.85 -45.08,20.41 -66.94,32.38 v -161.92 h -472.03 v 161.92 c -23.22,-12.68 -44.39,-23.23 -64.2,-32.38 l -15.72,27.45 c 50.55,19.71 107.93,51.39 172.83,94.33 60.11,40.84 110.66,82.37 152.33,125.32 l 21.17,-19.01"
         style="fill:#ffffff;fill-opacity:1;fill-rule:nonzero;stroke:#231f20;stroke-opacity:1"
         id="path122" /><path
         d="m 6708.87,1603.73 c -21.85,-32.38 -49.18,-61.95 -82.65,-88 l -21.86,19.01 c 32.79,23.93 59.43,50.69 80.61,80.25 z m -155.06,-96.44 h 194.68 v 121.08 h -194.68 z m 82.66,217.53 v -27.45 h -197.42 v 27.45 z m -159.84,-187.27 -18.45,-19 c -21.86,27.45 -49.18,54.91 -80.61,82.37 l 19.13,16.19 c 26.64,-22.53 53.29,-48.58 79.93,-79.56 z m 232.24,-269.63 v 60.55 h -334.03 v -60.55 z m 0,88 v 55.61 h -334.03 v -55.61 z m 29.38,-150.65 h -29.38 v 35.2 h -334.03 v -35.2 h -29.38 V 1439 h 392.79 z m -213.81,302.02 v 121.08 h -189.22 v -121.08 z m 227.47,148.54 c -20.49,11.26 -40.99,23.22 -60.11,35.9 -54.65,35.21 -104.52,73.92 -149.6,116.16 -30.06,-28.16 -64.89,-56.32 -103.15,-83.07 -7.51,-5.63 -15.03,-11.26 -21.86,-15.49 -30.74,-20.41 -59.43,-38.02 -86.76,-53.5 z m -179.66,181.63 c -4.09,-4.23 -8.19,-8.45 -12.29,-12.67 45.08,-39.43 94.95,-75.34 149.6,-107.72 49.19,-30.97 99.73,-57.02 150.96,-77.44 l -15.71,-30.26 c -23.22,9.85 -45.08,20.41 -66.94,32.38 v -161.92 h -472.03 v 161.92 c -23.22,-12.68 -44.39,-23.23 -64.2,-32.38 l -15.72,27.45 c 50.55,19.71 107.93,51.39 172.83,94.33 60.11,40.84 110.66,82.37 152.33,125.32 z"
         style="fill:#ffffff;stroke:#fefefe;stroke-width:20;stroke-linecap:butt;stroke-linejoin:miter;stroke-miterlimit:4;stroke-dasharray:none;stroke-opacity:1"
         id="path124" /><path
         d="m 7235.54,1658.64 c 8.2,56.32 15.03,121.09 19.81,192.9 h 34.84 c -4.78,-72.51 -10.93,-136.58 -19.13,-192.9 h 299.2 v -35.9 h -241.13 c 16.39,-83.07 47.12,-157 93.58,-220.36 45.09,-64.76 101.09,-118.97 169.4,-161.91 l -27.32,-33.1 c -70.35,47.17 -129.1,106.31 -176.23,178.82 -47.82,69 -80.61,147.84 -97,236.55 h -25.96 c -16.4,-95.04 -37.58,-165.44 -63.53,-211.91 -43.72,-78.85 -115.44,-145.02 -215.86,-200.63 l -26.64,25.34 c 93.58,52.1 162.57,116.16 207.66,192.19 25.96,43.65 47.13,109.12 62.84,195.01 h -241.13 v 35.9 h 246.6"
         style="fill:#ffffff;fill-opacity:1;fill-rule:nonzero;stroke:#231f20;stroke-opacity:1"
         id="path126" /><path
         d="m 7235.54,1658.64 c 8.2,56.32 15.03,121.09 19.81,192.9 h 34.84 c -4.78,-72.51 -10.93,-136.58 -19.13,-192.9 h 299.2 v -35.9 h -241.13 c 16.39,-83.07 47.12,-157 93.58,-220.36 45.09,-64.76 101.09,-118.97 169.4,-161.91 l -27.32,-33.1 c -70.35,47.17 -129.1,106.31 -176.23,178.82 -47.82,69 -80.61,147.84 -97,236.55 h -25.96 c -16.4,-95.04 -37.58,-165.44 -63.53,-211.91 -43.72,-78.85 -115.44,-145.02 -215.86,-200.63 l -26.64,25.34 c 93.58,52.1 162.57,116.16 207.66,192.19 25.96,43.65 47.13,109.12 62.84,195.01 h -241.13 v 35.9 z"
         style="fill:#ffffff;stroke:#ffffff;stroke-width:20;stroke-linecap:butt;stroke-linejoin:miter;stroke-miterlimit:4;stroke-dasharray:none;stroke-opacity:1"
         id="path128" /><path
         d="m 8101.7,1834.65 c -15.03,-21.13 -31.41,-40.84 -49.18,-57.73 16.4,-13.38 31.43,-27.47 46.45,-41.54 l -19.12,-21.82 c -15.71,16.19 -31.43,31.68 -47.14,45.76 -23.91,-19.72 -50.55,-37.32 -80.61,-51.4 l -13.66,22.53 c 27.33,12.68 52.6,28.17 74.47,45.76 -21.19,16.19 -42.36,30.98 -63.53,45.06 l 15.7,19.01 c 23.24,-14.79 45.77,-30.28 67.63,-47.17 19.81,18.3 37.58,38.72 52.6,60.54 z m -10.92,-142.92 c -12.98,-19 -27.33,-35.9 -42.36,-50.68 17.77,-14.79 34.16,-30.28 50.55,-45.77 l -19.12,-21.82 c -17.08,18.3 -34.16,34.49 -51.23,49.98 -23.92,-19.71 -50.56,-36.6 -79.24,-49.98 l -13.66,21.82 c 26.64,12.67 50.54,27.46 72.4,45.06 -19.12,14.78 -37.57,28.16 -56.02,40.13 l 15.72,19.71 c 20.5,-14.08 40.98,-28.16 60.8,-42.94 17.75,16.89 32.78,34.49 45.76,53.5 z m -162.58,121.09 c -39.62,-19.71 -81.97,-33.09 -128.42,-41.54 l 0.68,-38.02 h 127.74 v -28.15 h -127.74 l 0.69,-52.1 h 131.83 v -27.45 h -131.15 l 0.67,-63.36 h 424.9 l 3.42,60.54 h -124.33 v 27.46 h 125.69 l 2.73,54.91 h -117.49 v 28.15 h 118.85 l 3.42,57.74 h -119.54 v 27.45 h 149.6 l -12.98,-256.25 h 44.4 v -98.57 h -28.68 v 71.11 h -512.33 v -71.11 h -29.37 v 98.57 h 45.07 l -5.45,236.54 c 49.86,7.75 97,21.82 141.39,41.54 z m 280.07,-324.55 v -24.64 c -51.92,-32.38 -114.08,-59.84 -185.12,-81.66 1.37,-5.63 3.42,-10.56 4.78,-14.78 h 295.1 v -27.46 h -287.59 c 4.79,-22.53 7.52,-42.24 7.52,-60.55 0,-30.26 -4.78,-49.98 -14.34,-58.43 -8.2,-7.04 -19.82,-10.55 -34.16,-10.55 -24.59,0 -49.87,4.92 -77.19,14.07 l -2.73,33.1 c 27.32,-11.27 51.23,-16.9 72.41,-16.9 8.19,0 13.66,1.41 17.75,4.22 5.47,3.51 8.89,14.78 8.89,34.49 0,22.53 -2.74,42.25 -6.84,60.55 h -297.83 v 27.46 h 290.32 c -5.47,17.6 -13.66,33.09 -23.22,46.46 l 23.91,11.26 c 4.1,-6.33 8.19,-11.96 10.92,-17.59 53.97,14.78 102.47,32.38 144.82,53.5 h -329.25 v 27.45 h 381.85"
         style="fill:#ffffff;fill-opacity:1;fill-rule:nonzero;stroke:#231f20;stroke-opacity:1"
         id="path130" /><path
         d="m 8101.7,1834.65 c -15.03,-21.13 -31.41,-40.84 -49.18,-57.73 16.4,-13.38 31.43,-27.47 46.45,-41.54 l -19.12,-21.82 c -15.71,16.19 -31.43,31.68 -47.14,45.76 -23.91,-19.72 -50.55,-37.32 -80.61,-51.4 l -13.66,22.53 c 27.33,12.68 52.6,28.17 74.47,45.76 -21.19,16.19 -42.36,30.98 -63.53,45.06 l 15.7,19.01 c 23.24,-14.79 45.77,-30.28 67.63,-47.17 19.81,18.3 37.58,38.72 52.6,60.54 z m -10.92,-142.92 c -12.98,-19 -27.33,-35.9 -42.36,-50.68 17.77,-14.79 34.16,-30.28 50.55,-45.77 l -19.12,-21.82 c -17.08,18.3 -34.16,34.49 -51.23,49.98 -23.92,-19.71 -50.56,-36.6 -79.24,-49.98 l -13.66,21.82 c 26.64,12.67 50.54,27.46 72.4,45.06 -19.12,14.78 -37.57,28.16 -56.02,40.13 l 15.72,19.71 c 20.5,-14.08 40.98,-28.16 60.8,-42.94 17.75,16.89 32.78,34.49 45.76,53.5 z m -162.58,121.09 c -39.62,-19.71 -81.97,-33.09 -128.42,-41.54 l 0.68,-38.02 h 127.74 v -28.15 h -127.74 l 0.69,-52.1 h 131.83 v -27.45 h -131.15 l 0.67,-63.36 h 424.9 l 3.42,60.54 h -124.33 v 27.46 h 125.69 l 2.73,54.91 h -117.49 v 28.15 h 118.85 l 3.42,57.74 h -119.54 v 27.45 h 149.6 l -12.98,-256.25 h 44.4 v -98.57 h -28.68 v 71.11 h -512.33 v -71.11 h -29.37 v 98.57 h 45.07 l -5.45,236.54 c 49.86,7.75 97,21.82 141.39,41.54 z m 280.07,-324.55 v -24.64 c -51.92,-32.38 -114.08,-59.84 -185.12,-81.66 1.37,-5.63 3.42,-10.56 4.78,-14.78 h 295.1 v -27.46 h -287.59 c 4.79,-22.53 7.52,-42.24 7.52,-60.55 0,-30.26 -4.78,-49.98 -14.34,-58.43 -8.2,-7.04 -19.82,-10.55 -34.16,-10.55 -24.59,0 -49.87,4.92 -77.19,14.07 l -2.73,33.1 c 27.32,-11.27 51.23,-16.9 72.41,-16.9 8.19,0 13.66,1.41 17.75,4.22 5.47,3.51 8.89,14.78 8.89,34.49 0,22.53 -2.74,42.25 -6.84,60.55 h -297.83 v 27.46 h 290.32 c -5.47,17.6 -13.66,33.09 -23.22,46.46 l 23.91,11.26 c 4.1,-6.33 8.19,-11.96 10.92,-17.59 53.97,14.78 102.47,32.38 144.82,53.5 h -329.25 v 27.45 z"
         style="fill:#ffffff;stroke:#f9f8f8;stroke-width:20;stroke-linecap:butt;stroke-linejoin:miter;stroke-miterlimit:4;stroke-dasharray:none;stroke-opacity:1"
         id="path132" /><path
         d="m 8861.98,1518.55 h 119.55 v 118.27 h -119.55 z m 0,145.73 h 119.55 v 123.9 h -119.55 z m -29.37,-145.73 v 118.27 h -112.03 v -118.27 z m 0,145.73 v 123.9 h -112.03 v -123.9 z m 178.28,151.36 V 1491.1 h -148.91 v -93.64 h 148.91 V 1370 h -148.91 v -107.01 h 200.15 v -27.45 h -453.58 v 27.45 h 224.06 V 1370 h -149.6 v 27.46 h 149.6 v 93.64 h -141.4 v 324.54 z m -349.06,-33.1 v -27.45 h -90.85 v -154.17 h 77.19 v -27.46 h -77.19 V 1387.6 c 32.11,11.27 61.49,22.53 88.13,34.5 l 5.46,-27.46 c -64.21,-30.98 -135.94,-58.43 -213.81,-82.36 l -12.98,33.08 c 36.88,10.56 71.73,21.13 103.83,32.39 v 195.71 h -88.12 v 27.46 h 88.12 v 154.17 h -96.32 v 27.45 h 216.54"
         style="fill:#ffffff;fill-opacity:1;fill-rule:nonzero;stroke:#ffffff;stroke-opacity:1"
         id="path134" /><path
         d="m 8861.98,1518.55 h 119.55 v 118.27 h -119.55 z m 0,145.73 h 119.55 v 123.9 h -119.55 z m -29.37,-145.73 v 118.27 h -112.03 v -118.27 z m 0,145.73 v 123.9 h -112.03 v -123.9 z m 178.28,151.36 V 1491.1 h -148.91 v -93.64 h 148.91 V 1370 h -148.91 v -107.01 h 200.15 v -27.45 h -453.58 v 27.45 h 224.06 V 1370 h -149.6 v 27.46 h 149.6 v 93.64 h -141.4 v 324.54 z m -349.06,-33.1 v -27.45 h -90.85 v -154.17 h 77.19 v -27.46 h -77.19 V 1387.6 c 32.11,11.27 61.49,22.53 88.13,34.5 l 5.46,-27.46 c -64.21,-30.98 -135.94,-58.43 -213.81,-82.36 l -12.98,33.08 c 36.88,10.56 71.73,21.13 103.83,32.39 v 195.71 h -88.12 v 27.46 h 88.12 v 154.17 h -96.32 v 27.45 z"
         style="fill:#ffffff;stroke:#ffffff;stroke-width:20;stroke-linecap:butt;stroke-linejoin:miter;stroke-miterlimit:4;stroke-dasharray:none;stroke-opacity:1"
         id="path136" /><path
         d="m 9574.45,1834.65 c -15.03,-21.13 -31.42,-40.84 -49.18,-57.73 16.4,-13.38 31.42,-27.47 46.44,-41.54 l -19.12,-21.82 c -15.71,16.19 -31.42,31.68 -47.14,45.76 -23.9,-19.72 -50.54,-37.32 -80.6,-51.4 l -13.66,22.53 c 27.32,12.68 52.59,28.17 74.46,45.76 -21.18,16.19 -42.35,30.98 -63.53,45.06 l 15.71,19.01 c 23.23,-14.79 45.77,-30.28 67.62,-47.17 19.82,18.3 37.58,38.72 52.6,60.54 z m -10.93,-142.92 c -12.98,-19 -27.32,-35.9 -42.35,-50.68 17.76,-14.79 34.16,-30.28 50.54,-45.77 l -19.12,-21.82 c -17.08,18.3 -34.16,34.49 -51.23,49.98 -23.91,-19.71 -50.55,-36.6 -79.24,-49.98 l -13.66,21.82 c 26.64,12.67 50.55,27.46 72.4,45.06 -19.12,14.78 -37.56,28.16 -56.01,40.13 l 15.71,19.71 c 20.5,-14.08 40.99,-28.16 60.8,-42.94 17.76,16.89 32.79,34.49 45.76,53.5 z m -162.58,121.09 c -39.62,-19.71 -81.97,-33.09 -128.42,-41.54 l 0.69,-38.02 h 127.73 v -28.15 h -127.73 l 0.68,-52.1 h 131.84 v -27.45 h -131.15 l 0.68,-63.36 h 424.88 l 3.42,60.54 h -124.33 v 27.46 h 125.7 l 2.72,54.91 h -117.49 v 28.15 h 118.86 l 3.42,57.74 H 9592.9 v 27.45 h 149.6 l -12.98,-256.25 h 44.39 v -98.57 h -28.68 v 71.11 h -512.32 v -71.11 h -29.38 v 98.57 h 45.08 l -5.46,236.54 c 49.86,7.75 97,21.82 141.4,41.54 z m 280.07,-324.55 v -24.64 c -51.91,-32.38 -114.07,-59.84 -185.12,-81.66 1.37,-5.63 3.42,-10.56 4.79,-14.78 h 295.1 v -27.46 h -287.59 c 4.78,-22.53 7.52,-42.24 7.52,-60.55 0,-30.26 -4.79,-49.98 -14.35,-58.43 -8.2,-7.04 -19.81,-10.55 -34.16,-10.55 -24.59,0 -49.86,4.92 -77.19,14.07 l -2.73,33.1 c 27.32,-11.27 51.23,-16.9 72.41,-16.9 8.2,0 13.66,1.41 17.76,4.22 5.47,3.51 8.88,14.78 8.88,34.49 0,22.53 -2.73,42.25 -6.83,60.55 h -297.83 v 27.46 h 290.32 c -5.47,17.6 -13.66,33.09 -23.23,46.46 l 23.91,11.26 c 4.1,-6.33 8.19,-11.96 10.93,-17.59 53.96,14.78 102.46,32.38 144.81,53.5 h -329.24 v 27.45 h 381.84"
         style="fill:#ffffff;fill-opacity:1;fill-rule:nonzero;stroke:#231f20;stroke-opacity:1"
         id="path138" /><path
         d="m 9574.45,1834.65 c -15.03,-21.13 -31.42,-40.84 -49.18,-57.73 16.4,-13.38 31.42,-27.47 46.44,-41.54 l -19.12,-21.82 c -15.71,16.19 -31.42,31.68 -47.14,45.76 -23.9,-19.72 -50.54,-37.32 -80.6,-51.4 l -13.66,22.53 c 27.32,12.68 52.59,28.17 74.46,45.76 -21.18,16.19 -42.35,30.98 -63.53,45.06 l 15.71,19.01 c 23.23,-14.79 45.77,-30.28 67.62,-47.17 19.82,18.3 37.58,38.72 52.6,60.54 z m -10.93,-142.92 c -12.98,-19 -27.32,-35.9 -42.35,-50.68 17.76,-14.79 34.16,-30.28 50.54,-45.77 l -19.12,-21.82 c -17.08,18.3 -34.16,34.49 -51.23,49.98 -23.91,-19.71 -50.55,-36.6 -79.24,-49.98 l -13.66,21.82 c 26.64,12.67 50.55,27.46 72.4,45.06 -19.12,14.78 -37.56,28.16 -56.01,40.13 l 15.71,19.71 c 20.5,-14.08 40.99,-28.16 60.8,-42.94 17.76,16.89 32.79,34.49 45.76,53.5 z m -162.58,121.09 c -39.62,-19.71 -81.97,-33.09 -128.42,-41.54 l 0.69,-38.02 h 127.73 v -28.15 h -127.73 l 0.68,-52.1 h 131.84 v -27.45 h -131.15 l 0.68,-63.36 h 424.88 l 3.42,60.54 h -124.33 v 27.46 h 125.7 l 2.72,54.91 h -117.49 v 28.15 h 118.86 l 3.42,57.74 H 9592.9 v 27.45 h 149.6 l -12.98,-256.25 h 44.39 v -98.57 h -28.68 v 71.11 h -512.32 v -71.11 h -29.38 v 98.57 h 45.08 l -5.46,236.54 c 49.86,7.75 97,21.82 141.4,41.54 z m 280.07,-324.55 v -24.64 c -51.91,-32.38 -114.07,-59.84 -185.12,-81.66 1.37,-5.63 3.42,-10.56 4.79,-14.78 h 295.1 v -27.46 h -287.59 c 4.78,-22.53 7.52,-42.24 7.52,-60.55 0,-30.26 -4.79,-49.98 -14.35,-58.43 -8.2,-7.04 -19.81,-10.55 -34.16,-10.55 -24.59,0 -49.86,4.92 -77.19,14.07 l -2.73,33.1 c 27.32,-11.27 51.23,-16.9 72.41,-16.9 8.2,0 13.66,1.41 17.76,4.22 5.47,3.51 8.88,14.78 8.88,34.49 0,22.53 -2.73,42.25 -6.83,60.55 h -297.83 v 27.46 h 290.32 c -5.47,17.6 -13.66,33.09 -23.23,46.46 l 23.91,11.26 c 4.1,-6.33 8.19,-11.96 10.93,-17.59 53.96,14.78 102.46,32.38 144.81,53.5 h -329.24 v 27.45 z"
         style="fill:#ffffff;stroke:#ffffff;stroke-width:20;stroke-linecap:butt;stroke-linejoin:miter;stroke-miterlimit:4;stroke-dasharray:none;stroke-opacity:1"
         id="path140" /><path
         d="m 10441.3,1650.2 v -30.28 h -229.5 v 30.28 z m -96.3,118.27 h 168 v -123.2 h -31.4 v 92.93 h -314.9 v -98.57 h -32.1 v 128.84 h 170.8 c -8.9,23.93 -18.5,47.17 -29.4,68.99 l 26.6,16.19 c 15.1,-25.34 29.4,-53.5 42.4,-85.18 z m 181.7,-244.29 v -30.27 h -130.5 v -209.09 c 0,-10.56 0.7,-18.3 2.1,-23.24 3.4,-6.33 21.8,-9.85 56,-9.85 23.2,0 36.9,4.93 41,14.08 3.4,5.63 6.8,38.02 10.2,98.56 l 32.1,-19.01 c -5.4,-64.76 -11.6,-99.26 -19.1,-104.19 -4.8,-11.27 -26,-16.9 -64.2,-16.9 -45.1,0 -71.1,3.52 -77.9,9.86 -8.2,4.92 -12.3,16.9 -12.3,36.6 v 223.18 h -78.5 c -2.8,-55.62 -9.6,-95.74 -20.5,-120.39 -12.3,-31.68 -31.5,-61.95 -58.1,-90.81 -27.3,-30.28 -58.1,-56.32 -91.5,-77.44 l -21.2,24.63 c 30.7,19.72 59.4,43.66 85.4,71.11 24.6,26.76 43,54.91 54.6,83.07 10.9,23.24 17.1,59.84 19.2,109.83 h -111.4 v 30.27 z m -476.1,95.74 c 24.6,-28.86 44.4,-59.84 58,-92.22 13.7,-34.5 20.5,-66.88 20.5,-97.15 -1.3,-40.83 -25.9,-60.55 -74.4,-60.55 -11.6,0 -26,4.23 -43.1,13.38 l -8.2,35.9 c 19.8,-11.26 36.9,-16.19 51.3,-16.19 28.7,0 43.7,9.15 45.1,27.46 0,26.75 -6.2,55.61 -17.1,85.18 -11,30.98 -31.4,64.07 -60.1,99.26 l 71.7,183.75 h -114.77 v -593.47 h -29.38 v 620.93 h 184.45 l -84,-206.28"
         style="fill:#ffffff;fill-opacity:1;fill-rule:nonzero;stroke:#231f20;stroke-opacity:1"
         id="path142" /><path
         d="m 10441.3,1650.2 v -30.28 h -229.5 v 30.28 z m -96.3,118.27 h 168 v -123.2 h -31.4 v 92.93 h -314.9 v -98.57 h -32.1 v 128.84 h 170.8 c -8.9,23.93 -18.5,47.17 -29.4,68.99 l 26.6,16.19 c 15.1,-25.34 29.4,-53.5 42.4,-85.18 z m 181.7,-244.29 v -30.27 h -130.5 v -209.09 c 0,-10.56 0.7,-18.3 2.1,-23.24 3.4,-6.33 21.8,-9.85 56,-9.85 23.2,0 36.9,4.93 41,14.08 3.4,5.63 6.8,38.02 10.2,98.56 l 32.1,-19.01 c -5.4,-64.76 -11.6,-99.26 -19.1,-104.19 -4.8,-11.27 -26,-16.9 -64.2,-16.9 -45.1,0 -71.1,3.52 -77.9,9.86 -8.2,4.92 -12.3,16.9 -12.3,36.6 v 223.18 h -78.5 c -2.8,-55.62 -9.6,-95.74 -20.5,-120.39 -12.3,-31.68 -31.5,-61.95 -58.1,-90.81 -27.3,-30.28 -58.1,-56.32 -91.5,-77.44 l -21.2,24.63 c 30.7,19.72 59.4,43.66 85.4,71.11 24.6,26.76 43,54.91 54.6,83.07 10.9,23.24 17.1,59.84 19.2,109.83 h -111.4 v 30.27 z m -476.1,95.74 c 24.6,-28.86 44.4,-59.84 58,-92.22 13.7,-34.5 20.5,-66.88 20.5,-97.15 -1.3,-40.83 -25.9,-60.55 -74.4,-60.55 -11.6,0 -26,4.23 -43.1,13.38 l -8.2,35.9 c 19.8,-11.26 36.9,-16.19 51.3,-16.19 28.7,0 43.7,9.15 45.1,27.46 0,26.75 -6.2,55.61 -17.1,85.18 -11,30.98 -31.4,64.07 -60.1,99.26 l 71.7,183.75 h -114.77 v -593.47 h -29.38 v 620.93 h 184.45 z"
         style="fill:#ffffff;stroke:#ffffff;stroke-width:20;stroke-linecap:butt;stroke-linejoin:miter;stroke-miterlimit:4;stroke-dasharray:none;stroke-opacity:0.979275"
         id="path144" /></g></g></svg>
