<?xml version="1.0" encoding="UTF-8" standalone="no"?>
<svg
   xmlns:dc="http://purl.org/dc/elements/1.1/"
   xmlns:cc="http://creativecommons.org/ns#"
   xmlns:rdf="http://www.w3.org/1999/02/22-rdf-syntax-ns#"
   xmlns:svg="http://www.w3.org/2000/svg"
   xmlns="http://www.w3.org/2000/svg"
   xmlns:sodipodi="http://sodipodi.sourceforge.net/DTD/sodipodi-0.dtd"
   xmlns:inkscape="http://www.inkscape.org/namespaces/inkscape"
   version="1.1"
   id="svg2"
   xml:space="preserve"
   width="738.66669"
   height="888"
   viewBox="0 0 738.66669 888"
   sodipodi:docname="scilogo_v_w.eps"><metadata
     id="metadata8"><rdf:RDF><cc:Work
         rdf:about=""><dc:format>image/svg+xml</dc:format><dc:type
           rdf:resource="http://purl.org/dc/dcmitype/StillImage" /></cc:Work></rdf:RDF></metadata><defs
     id="defs6" /><sodipodi:namedview
     pagecolor="#ffffff"
     bordercolor="#666666"
     borderopacity="1"
     objecttolerance="10"
     gridtolerance="10"
     guidetolerance="10"
     inkscape:pageopacity="0"
     inkscape:pageshadow="2"
     inkscape:window-width="640"
     inkscape:window-height="480"
     id="namedview4" /><g
     id="g10"
     inkscape:groupmode="layer"
     inkscape:label="ink_ext_XXXXXX"
     transform="matrix(1.3333333,0,0,-1.3333333,0,888)"><g
       id="g12"
       transform="scale(0.1)"><path
         d="m 1902.35,3334.48 c -16.01,95.91 0.61,206.44 20.18,292.63 26.33,115.92 65.57,228.77 109.31,339.16 20.45,51.58 40.17,103.44 60.73,154.98 22.94,57.54 46.7,114.8 73.68,170.59 24.11,49.82 47.39,100.68 70.98,150.54 43.11,91.14 91.4,181.33 143.91,267.37 68.7,112.54 127.13,229.29 203.24,337.69 30.95,44.08 57.71,89.32 84.95,135.57 17.16,29.13 34.03,55.64 53.72,83.61 20.76,29.51 41.47,60.24 59.88,90.16 21.65,35.13 46.16,68.55 67.07,103.72 35.43,59.58 78.12,112.95 115.85,170.48 43.35,66.11 87.92,131.46 134.86,195.09 48.77,66.1 97.72,131.63 150.8,195.98 18.81,22.81 37.59,45.84 55.99,69.63 22.94,29.65 47.79,62.56 71.88,93.12 -74.76,-46.62 -134.83,-120.91 -190.21,-188.94 -63.08,-77.5 -120.65,-159.3 -180.22,-239.47 -67.35,-90.66 -133.57,-182.14 -198.57,-274.5 -113.59,-161.38 -223.42,-325.41 -329.02,-492.11 -52.86,-83.45 -104.67,-167.56 -155.37,-252.34 -72.87,-121.83 -140.29,-246.87 -203.9,-373.79 -28.18,-56.21 -53.34,-113.12 -80.81,-169.37 -84.94,-173.99 -158.36,-354.63 -222.7,-538.24 -35.55,-101.46 -84.09,-229.25 -119.41,-358.95"
         style="fill:#ffffff;fill-opacity:1;fill-rule:nonzero;stroke:none"
         id="path14" /><path
         d="m 1926.46,3341.13 c -19.04,130.38 12.58,263.56 48.72,388.25 38.06,131.32 91.11,258.29 141.49,385.22 103.56,260.92 241.19,501.92 380.23,744.81 63.56,111.02 137.06,215.52 202.59,325.35 66,110.63 140.25,219.82 213.04,326.15 154.18,225.21 316.23,441.42 484.53,656.22 16.19,20.66 -4.53,56.12 -30.3,39.26 -99.95,-65.37 -173.45,-163.29 -245.57,-256.75 -87.86,-113.86 -171.97,-231.08 -256.02,-347.77 -171.8,-238.53 -334.94,-483.26 -489.07,-733.56 -154.69,-251.23 -290.22,-511.67 -412.21,-780.25 -114.39,-251.85 -214.88,-517.66 -288.83,-784.32 -8.63,-31.13 39.61,-44.33 48.21,-13.3 72.85,262.71 172.15,523.88 283.8,772.38 115.37,256.82 245.2,506.07 391.58,746.55 146.63,240.92 302.76,475.99 465.92,706.01 79.73,112.42 162,223.01 243.64,334.05 81.36,110.69 167.06,237.43 283.79,313.79 -10.1,13.09 -20.2,26.17 -30.3,39.26 -79.11,-100.96 -160.28,-200.45 -237.4,-302.96 -85.31,-113.41 -162.26,-232.28 -244.22,-348.04 -78.03,-110.2 -153.19,-226.36 -223.77,-341.49 -73.35,-119.65 -151.58,-235.89 -221.16,-357.87 -68.81,-120.6 -141.68,-238.31 -203.1,-362.99 -61.12,-124.09 -119.38,-249.86 -170.41,-378.43 -96.17,-242.27 -222.43,-515.56 -183.39,-782.86 4.64,-31.81 52.81,-18.24 48.21,13.29 v 0"
         style="fill:#ffffff;fill-opacity:1;fill-rule:nonzero;stroke:none"
         id="path16" /><path
         d="m 2936.55,4137.65 c 0,-140.82 -114.16,-254.97 -254.99,-254.97 -140.83,0 -254.99,114.15 -254.99,254.97 0,140.83 114.16,255 254.99,255 140.83,0 254.99,-114.17 254.99,-255"
         style="fill:#ffffff;fill-opacity:1;fill-rule:nonzero;stroke:none"
         id="path18" /><path
         d="m 2936.55,4137.65 c 0,-140.82 -114.16,-254.97 -254.99,-254.97 -140.83,0 -254.99,114.15 -254.99,254.97 0,140.83 114.16,255 254.99,255 140.83,0 254.99,-114.17 254.99,-255 z"
         style="fill:none;stroke:#ffffff;stroke-width:10;stroke-linecap:butt;stroke-linejoin:miter;stroke-miterlimit:4;stroke-dasharray:none;stroke-opacity:1"
         id="path20" /><path
         d="m 1941.19,5726.58 c -21.02,17.73 -42.05,35.67 -62.86,54.34 -25.94,23.29 -54.16,49.24 -81.3,73.16 76.56,-30.29 143.95,-88.21 205.98,-141.18 70.68,-60.36 136.94,-125.54 204.8,-188.92 76.71,-71.64 152.52,-144.23 227.33,-217.83 130.73,-128.58 258.41,-260.19 382.61,-394.94 62.16,-67.46 123.46,-135.68 183.84,-204.71 86.79,-99.19 169.02,-202.18 248.06,-307.52 34.99,-46.66 67.34,-94.44 101.68,-141.23 106.26,-144.76 202.89,-297.49 291.62,-454.42 98.04,-173.43 260.91,-434.4 263.6,-638.97 2.52,-192.84 -121.09,-241.33 -263.64,-235.44 -35.65,1.47 -72.47,6.34 -108.81,13.25 -324.07,87.83 -624.07,237.83 -925.5,376.22 -30.67,15.44 -61.3,31.11 -91.89,47.02 -30.59,15.92 -61.13,32.06 -91.63,48.45 -30.55,15.75 -61.05,31.47 -91.48,47.34 -273.21,133.92 -535.43,276.92 -779.2,443.07 -27.09,18.45 -53.94,37.2 -80.53,56.27 -223.2,160 -431.86,317.06 -607.85,530.5 -19.305,25.53 -36.954,51.99 -52.465,79.52 -36.028,63.93 -52.742,109.12 -63.52,179.44 -22.652,147.8 199.93,121.37 284.645,114.77 27.45,-2.14 54.83,-5.08 82.13,-8.67 51.35,-6.73 102.22,-16.06 153.13,-26.22 84.62,-16.87 168.24,-38.4 251.16,-62.18 23.88,-6.85 47.68,-13.91 71.48,-21.09 67.01,-20.2 134.04,-40.09 201.38,-63.57 66.07,-23.04 136.07,-43.04 206.07,-73.04 -80,20 -160,30 -239.29,35.38 -15.71,0.38 -31.42,0.48 -47.13,0.32 -15.71,-0.14 -31.42,-0.53 -47.11,-1.19 -104.81,-4.35 -221.61,-31.07 -277.7,-129.09 -67,-117.08 -0.1,-218.23 76.69,-311.41 59.79,-72.54 132.07,-133.41 205.77,-191.26 27.85,-21.85 56.09,-43.23 84.68,-64.2 200.12,-146.77 417.18,-273.29 634.39,-400.99 29.42,-16.88 59.2,-33.33 89.42,-49.44 25.03,-13.81 50.35,-27.45 75.97,-40.79 25.61,-13.34 51.51,-26.38 77.7,-39.03 156.05,-75.34 342.19,-136.57 513.46,-161.67 86.08,-12.62 176.16,-14.41 260.16,11.19 107.03,32.63 210.22,106.97 209.6,228.56 -0.45,90.08 -33.4,188.15 -65.23,263.55 -42.8,101.41 -97.05,197.92 -155.05,291.43 -27.13,43.69 -53.62,87.75 -80.84,131.39 -30.36,48.72 -61.46,97.06 -95.29,143.51 -30.23,41.49 -59.85,84.05 -89.6,125.69 -54.36,76.05 -113.38,150.4 -175.63,220.26 -81.46,91.4 -154.08,188.33 -241.73,274.72 -35.63,35.13 -67.57,72.01 -100.12,109.73 -20.51,23.77 -40.33,45.18 -62.99,67.48 -23.91,23.5 -47.93,48.14 -69.74,72.4 -25.61,28.5 -53.58,54.97 -78.52,83.64 -42.26,48.53 -90.23,90.21 -134.29,136.5 -50.61,53.18 -102.23,105.51 -155.76,155.86 -55.62,52.29 -111.32,104.04 -170.66,154.04"
         style="fill:#ffffff;fill-opacity:1;fill-rule:nonzero;stroke:none"
         id="path22" /><path
         d="m 1958.87,5744.26 c -49.02,41.45 -96.16,84.9 -144.17,127.5 -10.1,-13.09 -20.19,-26.17 -30.29,-39.26 136.03,-57.47 246.09,-175.27 351.66,-275.23 117.18,-110.96 234.51,-221.56 348.74,-335.58 225.15,-224.72 445.04,-457.67 643.67,-706.36 193.97,-242.83 364.76,-501.33 519.19,-770.71 65.18,-113.69 130.8,-227.7 179.63,-349.61 42.7,-106.59 85.62,-248.19 27.7,-356.93 -54.21,-101.81 -201.44,-90.12 -296.05,-75.08 -72.25,11.48 -144.52,40.21 -213.47,64.06 -75.9,26.27 -150.64,55.87 -224.8,86.69 -282.45,117.37 -551.95,258.58 -825.55,394.26 -280.17,138.92 -553.79,292.38 -808.65,474.11 -119.6,85.3 -237.63,172.98 -348.93,268.97 -107.73,92.91 -219.695,196.39 -294.48,318.41 -35.773,58.38 -61.297,122.71 -69.261,191.01 -5.024,43.07 25.246,64.77 62.421,75.72 77.016,22.69 169.39,7.16 247.78,-1.15 158.07,-16.74 314.05,-57.26 466.21,-101.91 148.58,-43.59 300.13,-87.61 443.17,-147.28 4.43,16.07 8.86,32.15 13.29,48.22 -187.86,45.18 -573.97,103.37 -657.03,-143.59 -41.32,-122.84 33.39,-227.35 109.52,-317.65 92.19,-109.34 213.75,-195.99 329.46,-278.59 247.45,-176.66 514.55,-336.25 785.34,-474.39 126.81,-64.69 259.86,-115.81 397.38,-152.54 132.29,-35.32 272.51,-59.3 408.43,-32.46 94.36,18.65 188.82,72.41 236.75,157.73 57.84,102.98 9.57,243.89 -29.09,344.68 -51.07,133.14 -125.61,254.85 -199.82,375.94 -80.39,131.2 -166.64,257.39 -257.39,381.65 -81.76,111.94 -175.28,214.25 -264.33,320.28 -47.29,56.32 -96.26,110.58 -148.15,162.69 -52.3,52.53 -97.52,111.49 -149.92,163.96 -202.04,202.31 -390.42,416.84 -608.96,602.44 -24.42,20.74 -59.97,-14.46 -35.35,-35.35 227.32,-193.07 428.35,-414.71 635.02,-628.99 217,-225.01 425.33,-464.26 606.32,-719.25 91.95,-129.56 176.98,-263.41 257.22,-400.59 76.66,-131.07 151.64,-276.51 167.92,-429.61 15.77,-147.99 -112.06,-225.34 -240.66,-250.75 -146.72,-28.99 -310.22,17.29 -449.78,60.33 -205.48,63.38 -393.6,168.41 -578.03,276.97 -198.72,116.97 -396.37,236.29 -581.44,374.23 -87.64,65.32 -173.15,134.75 -245.56,216.97 -72.84,82.7 -141.8,184.6 -84.14,294.58 45.21,86.24 153.95,109.77 242.38,116.01 114.19,8.06 229.65,-6.23 340.62,-32.92 32.26,-7.76 42.23,36.15 13.29,48.22 -143.14,59.71 -294.64,103.14 -443.16,147.28 -146.05,43.39 -295.35,80.58 -446.71,99.71 -110.48,13.97 -385.419,63.75 -393.38,-110.69 -5.285,-115.7 76.55,-240.28 147.554,-323.99 92.594,-109.16 198.776,-206.05 309.566,-296.33 231.05,-188.27 480.44,-354.57 739.79,-501.03 136.39,-77.02 277.03,-145.1 415.87,-217.37 130.41,-67.89 260.39,-134.92 393.73,-196.91 136.26,-63.35 272.7,-126.24 411.7,-183.4 139.78,-57.48 289.97,-121.46 440.47,-141.99 87.12,-11.87 191.73,-11.74 264.7,45.04 80.26,62.47 92,168.5 80.71,263.29 -14.27,119.74 -66.34,233.71 -119.95,340.37 -57.99,115.39 -124.32,227.27 -189.64,338.64 -228.85,390.2 -513.78,743.32 -821.16,1073.88 -156.59,168.39 -318.95,331.38 -485.37,490.05 -82.22,78.39 -164.47,157.05 -248.78,233.18 -76.5,69.06 -157.08,141.32 -252.98,181.83 -23.97,10.13 -53.46,-18.71 -30.29,-39.26 48,-42.6 95.15,-86.06 144.17,-127.5 24.45,-20.69 60.01,14.5 35.35,35.35"
         style="fill:#ffffff;fill-opacity:1;fill-rule:nonzero;stroke:none"
         id="path24" /><path
         d="m 1776.24,3537.03 c -68.04,-192.24 -145.57,-431.53 -117.19,-610.27 55.96,-352.44 423.03,-183.93 617.96,-78.17 308.31,167.29 579.94,379.9 858.19,592.5 25.47,19.47 50.73,39.09 75.66,58.95 239.17,209.96 489.17,419.96 718.92,637.84 22.7,22.6 45.42,45.32 68.18,67.98 88.54,89.36 179.69,176.13 267.01,266.72 99.54,103.26 196.28,214.03 270.72,336.07 55.85,91.57 143.18,182.64 151.34,294.85 2.3,31.82 5.16,64.51 -1.54,96.01 -6.27,29.46 -15.67,47.23 -38.52,65.62 -9.78,7.86 -20.91,13.81 -32.58,18.32 -22.35,8.62 -46.5,11.74 -70.23,13.77 -32.64,2.79 -65.61,0.88 -98.05,-3.28 -63.11,-8.11 -124.9,-25.01 -185.28,-44.73 -119.13,-38.91 -232.07,-92.59 -344.06,-148.13 -194.41,-96.46 -388.96,-200.63 -576.74,-311.08 162.84,95.78 342.05,133.21 528.73,119.68 58.86,-4.27 117.35,-20.36 160.2,-52.15 10.7,-7.94 20.45,-16.87 28.96,-26.84 102.11,-170.69 -47.89,-340.69 -137.24,-468.16 -10.27,-12.76 -20.79,-25.5 -31.4,-38.2 -21.21,-25.43 -42.7,-50.8 -63.86,-76.29 -12.3,-13.12 -24.53,-25.9 -36.49,-38.37 -11.98,-12.47 -23.68,-24.65 -34.99,-36.5 -76.87,-80.61 -155.96,-159.13 -236.82,-235.76 -123.79,-117.32 -250.9,-231.14 -381.7,-340.62 -25.32,-21.19 -50.96,-42.08 -76.88,-62.67 -103.65,-82.36 -211.09,-159.86 -326.14,-230.35 -18.65,-11.71 -38.1,-22.36 -57.75,-32.68 -19.65,-10.31 -39.48,-20.29 -58.83,-30.68 -34.78,-18.67 -70.3,-35.96 -106.64,-51.39 -121.64,-51.6 -254.16,-81.95 -386.67,-67.26 -15,1.66 -29.95,4.16 -44.59,7.83 -187.15,46.75 -196.98,246.03 -171.97,410.7"
         style="fill:#ffffff;fill-opacity:1;fill-rule:nonzero;stroke:none"
         id="path26" /><path
         d="m 1752.13,3543.68 c -47.22,-133.83 -91.93,-269.25 -113.75,-409.88 -16.69,-107.54 -17.81,-222.96 30.68,-322.82 76.63,-157.79 270.48,-130.43 406.72,-82.5 222.02,78.09 425.77,217.7 616.96,351.43 251.47,175.9 492.33,365.41 724,566.36 242,209.91 477.86,423.43 705.99,648.31 206.12,203.21 399.45,414.79 543.7,667.72 48.84,85.64 80.95,229.97 8.57,311.3 -36.67,41.22 -99.27,46.8 -150.46,49.75 -78.29,4.51 -159.62,-16.76 -233.96,-38.59 -146.5,-43.01 -284.6,-111.17 -420.73,-179.19 -143.8,-71.85 -285.7,-147.49 -425.66,-226.58 -39.13,-22.11 -78,-44.66 -116.77,-67.4 -27.8,-16.31 -2.77,-59.29 25.23,-43.18 132.25,76.07 276.79,115.37 429.19,118.85 71.45,1.64 144.92,-2.77 209.67,-35.51 74.84,-37.84 84.77,-128.49 67.77,-202.18 -28.36,-122.86 -129.92,-238.74 -208.96,-332.98 -95.84,-114.28 -203.33,-219.49 -310.6,-323.03 C 3317.07,3778.63 3083.7,3569 2827.41,3394.7 c -121.68,-82.76 -253.16,-158.18 -392.23,-207.46 -125.53,-44.49 -305.04,-79.36 -424.11,-0.84 -107.14,70.65 -97.04,237.44 -81.02,347.25 4.61,31.53 -43.57,45.1 -48.21,13.29 -27.26,-186.76 -3.01,-408.76 219.05,-447.34 278.69,-48.42 562.36,121.35 781.76,272.47 248.74,171.31 474.97,377.33 692.43,586.14 107.5,103.22 214.73,208.85 310.6,323.02 75.8,90.28 157.37,189.46 202.55,299.38 30.55,74.36 42.08,158.35 6.36,233.45 -35.14,73.91 -116.09,107.03 -193.85,117.09 -197.81,25.61 -401.38,-20.65 -573.32,-119.56 8.41,-14.39 16.82,-28.79 25.23,-43.18 138.74,81.38 279.7,158.8 422.45,232.89 143.23,74.34 287.78,148.88 439.17,205.34 71.23,26.56 144.61,47.82 219.59,60.5 77.57,13.12 203.65,21.47 227.52,-74.27 35.45,-142.18 -78.77,-261.94 -147.27,-371.6 -82.33,-131.77 -184.93,-247.18 -293.13,-358.08 -110.09,-112.85 -221.77,-225.68 -336.54,-333.74 -116.62,-109.79 -236.71,-215.86 -357.35,-321.2 -120.37,-105.1 -238.32,-215.58 -363.97,-314.26 -200.3,-157.29 -404.03,-312.28 -616.26,-453.2 -154.52,-102.6 -318.24,-205.66 -494.3,-267.6 -127.2,-44.74 -291.67,-64.4 -350.89,87.03 -40.01,102.36 -24.08,221.92 -3.34,326.51 23.23,117.23 62.32,231.17 102.02,343.66 10.75,30.48 -37.56,43.48 -48.22,13.29 v 0"
         style="fill:#ffffff;fill-opacity:1;fill-rule:nonzero;stroke:none"
         id="path28" /><path
         d="M 326.16,1277.29 H 5200.91"
         style="fill:#ffffff;fill-opacity:1;fill-rule:nonzero;stroke:none"
         id="path30" /><path
         d="M 326.16,1277.29 H 5200.91"
         style="fill:none;stroke:#ffffff;stroke-width:50;stroke-linecap:butt;stroke-linejoin:miter;stroke-miterlimit:4;stroke-dasharray:none;stroke-opacity:1"
         id="path32" /><path
         d="m 829.703,1693.29 c 14.32,10.65 27.211,21.28 38.664,32.69 30.078,27.35 52.278,56.99 67.317,88.15 H 720.137 c 25.062,-47.12 61.582,-87.4 109.566,-120.84 z m 143.223,527.44 v -95 h 86.644 v -29.64 h -86.644 v -91.96 H 659.262 v 29.64 h 282.867 v 62.32 H 600.543 v 29.64 h 341.586 v 65.36 h -280 v 29.64 z m 69.464,-404.31 h -30.8 v 86.64 H 619.879 v -86.64 h -30.793 v 116.28 h 453.304 z m -66.605,27.35 v -18.23 c -15.75,-41.05 -42.25,-79.81 -78.769,-116.29 -12.891,-13.67 -25.782,-25.08 -38.672,-34.2 54.426,-33.44 124.605,-59.28 209.106,-78.28 l -16.47,-34.95 c -85.937,20.51 -159.695,51.68 -220.566,93.47 -21.484,-13.68 -44.398,-25.84 -67.312,-36.48 -54.426,-25.84 -125.321,-44.07 -212.688,-54.72 l -8.594,32.68 c 81.637,9.12 148.239,25.85 199.797,48.64 22.199,9.12 42.25,19 60.867,30.4 -48.691,38 -87.363,83.6 -116.004,138.32 h -37.957 v 29.64 z m -400.305,293.37 -22.199,-29.65 c -37.242,38.01 -75.195,70.68 -114.582,98.05 l 19.336,23.55 c 42.973,-25.84 81.637,-57 117.445,-91.95 z m -19.335,-285.01 c -25.778,-92.72 -64.45,-186.2 -115.293,-278.92 l -30.793,23.56 c 50.129,84.36 89.511,176.33 118.16,276.65 z m -11.457,107.17 -22.204,-29.64 c -37.953,41.03 -77.339,76.76 -117.441,107.16 l 19.336,23.55 c 43.684,-28.88 83.785,-62.31 120.309,-101.07"
         style="fill:#ffffff;fill-opacity:1;fill-rule:nonzero;stroke:none"
         id="path34" /><path
         d="m 829.703,1693.29 c 14.32,10.65 27.211,21.28 38.664,32.69 30.078,27.35 52.278,56.99 67.317,88.15 H 720.137 c 25.062,-47.12 61.582,-87.4 109.566,-120.84 z m 143.223,527.44 v -95 h 86.644 v -29.64 h -86.644 v -91.96 H 659.262 v 29.64 h 282.867 v 62.32 H 600.543 v 29.64 h 341.586 v 65.36 h -280 v 29.64 z m 69.464,-404.31 h -30.8 v 86.64 H 619.879 v -86.64 h -30.793 v 116.28 h 453.304 z m -66.605,27.35 v -18.23 c -15.75,-41.05 -42.25,-79.81 -78.769,-116.29 -12.891,-13.67 -25.782,-25.08 -38.672,-34.2 54.426,-33.44 124.605,-59.28 209.106,-78.28 l -16.47,-34.95 c -85.937,20.51 -159.695,51.68 -220.566,93.47 -21.484,-13.68 -44.398,-25.84 -67.312,-36.48 -54.426,-25.84 -125.321,-44.07 -212.688,-54.72 l -8.594,32.68 c 81.637,9.12 148.239,25.85 199.797,48.64 22.199,9.12 42.25,19 60.867,30.4 -48.691,38 -87.363,83.6 -116.004,138.32 h -37.957 v 29.64 z m -400.305,293.37 -22.199,-29.65 c -37.242,38.01 -75.195,70.68 -114.582,98.05 l 19.336,23.55 c 42.973,-25.84 81.637,-57 117.445,-91.95 z m -19.335,-285.01 c -25.778,-92.72 -64.45,-186.2 -115.293,-278.92 l -30.793,23.56 c 50.129,84.36 89.511,176.33 118.16,276.65 z m -11.457,107.17 -22.204,-29.64 c -37.953,41.03 -77.339,76.76 -117.441,107.16 l 19.336,23.55 c 43.684,-28.88 83.785,-62.31 120.309,-101.07 z"
         style="fill:none;stroke:#ffffff;stroke-width:30;stroke-linecap:butt;stroke-linejoin:miter;stroke-miterlimit:4;stroke-dasharray:none;stroke-opacity:1"
         id="path36" /><path
         d="m 1711.3,2051.25 c 8.59,60.8 15.76,130.72 20.77,208.24 h 36.52 c -5.02,-78.28 -11.46,-147.44 -20.05,-208.24 h 313.66 v -38.76 h -252.79 c 17.18,-89.68 49.41,-169.47 98.1,-237.88 47.27,-69.91 105.99,-128.44 177.6,-174.8 l -28.65,-35.72 c -73.75,50.92 -135.34,114.77 -184.75,193.04 -50.13,74.48 -84.5,159.6 -101.69,255.36 h -27.21 c -17.19,-102.6 -39.39,-178.59 -66.6,-228.76 -45.83,-85.12 -121.02,-156.56 -226.29,-216.6 l -27.93,27.36 c 98.11,56.24 170.44,125.4 217.7,207.48 27.21,47.12 49.41,117.81 65.88,210.52 h -252.79 v 38.76 h 258.52"
         style="fill:#ffffff;fill-opacity:1;fill-rule:nonzero;stroke:none"
         id="path38" /><path
         d="m 1711.3,2051.25 c 8.59,60.8 15.76,130.72 20.77,208.24 h 36.52 c -5.02,-78.28 -11.46,-147.44 -20.05,-208.24 h 313.66 v -38.76 h -252.79 c 17.18,-89.68 49.41,-169.47 98.1,-237.88 47.27,-69.91 105.99,-128.44 177.6,-174.8 l -28.65,-35.72 c -73.75,50.92 -135.34,114.77 -184.75,193.04 -50.13,74.48 -84.5,159.6 -101.69,255.36 h -27.21 c -17.19,-102.6 -39.39,-178.59 -66.6,-228.76 -45.83,-85.12 -121.02,-156.56 -226.29,-216.6 l -27.93,27.36 c 98.11,56.24 170.44,125.4 217.7,207.48 27.21,47.12 49.41,117.81 65.88,210.52 h -252.79 v 38.76 z"
         style="fill:none;stroke:#ffffff;stroke-width:30;stroke-linecap:butt;stroke-linejoin:miter;stroke-miterlimit:4;stroke-dasharray:none;stroke-opacity:1"
         id="path40" /><path
         d="m 2892.23,1900.01 h 125.32 v 127.69 h -125.32 z m 0,157.32 h 125.32 v 133.76 h -125.32 z m -30.79,-157.32 V 2027.7 H 2744 v -127.69 z m 0,157.32 v 133.76 H 2744 v -133.76 z m 186.9,163.4 V 1870.37 H 2892.23 V 1769.3 h 156.11 v -29.65 h -156.11 v -115.52 h 209.83 v -29.64 h -475.51 v 29.64 h 234.89 v 115.52 H 2704.6 v 29.65 h 156.84 v 101.07 H 2713.2 v 350.36 z m -365.93,-35.72 v -29.64 h -95.25 v -166.43 h 80.93 v -29.64 h -80.93 v -200.65 c 33.67,12.16 64.46,24.32 92.39,37.24 l 5.72,-29.64 c -67.32,-33.44 -142.5,-63.08 -224.14,-88.92 l -13.61,35.73 c 38.67,11.39 75.19,22.79 108.85,34.96 v 211.28 h -92.38 v 29.64 h 92.38 v 166.43 H 2455.4 v 29.64 h 227.01"
         style="fill:#ffffff;fill-opacity:1;fill-rule:nonzero;stroke:none"
         id="path42" /><path
         d="m 2892.23,1900.01 h 125.32 v 127.69 h -125.32 z m 0,157.32 h 125.32 v 133.76 h -125.32 z m -30.79,-157.32 V 2027.7 H 2744 v -127.69 z m 0,157.32 v 133.76 H 2744 v -133.76 z m 186.9,163.4 V 1870.37 H 2892.23 V 1769.3 h 156.11 v -29.65 h -156.11 v -115.52 h 209.83 v -29.64 h -475.51 v 29.64 h 234.89 v 115.52 H 2704.6 v 29.65 h 156.84 v 101.07 H 2713.2 v 350.36 z m -365.93,-35.72 v -29.64 h -95.25 v -166.43 h 80.93 v -29.64 h -80.93 v -200.65 c 33.67,12.16 64.46,24.32 92.39,37.24 l 5.72,-29.64 c -67.32,-33.44 -142.5,-63.08 -224.14,-88.92 l -13.61,35.73 c 38.67,11.39 75.19,22.79 108.85,34.96 v 211.28 h -92.38 v 29.64 h 92.38 v 166.43 H 2455.4 v 29.64 z"
         style="fill:none;stroke:#ffffff;stroke-width:30;stroke-linecap:butt;stroke-linejoin:miter;stroke-miterlimit:4;stroke-dasharray:none;stroke-opacity:1"
         id="path44" /><path
         d="m 3886.97,2241.25 c -15.75,-22.79 -32.94,-44.07 -51.55,-62.31 17.17,-14.45 32.93,-29.64 48.69,-44.85 l -20.05,-23.55 c -16.48,17.48 -32.94,34.2 -49.42,49.39 -25.06,-21.28 -52.98,-40.27 -84.5,-55.48 l -14.32,24.32 c 28.65,13.68 55.14,30.4 78.05,49.4 -22.2,17.48 -44.39,33.44 -66.59,48.65 l 16.47,20.51 c 24.34,-15.95 47.97,-32.67 70.89,-50.91 20.78,19.75 39.39,41.79 55.14,65.36 z m -11.46,-154.28 c -13.6,-20.51 -28.64,-38.76 -44.39,-54.71 18.61,-15.97 35.8,-32.69 52.99,-49.41 l -20.05,-23.55 c -17.91,19.75 -35.81,37.23 -53.71,53.95 -25.07,-21.28 -52.99,-39.52 -83.07,-53.95 l -14.33,23.55 c 27.93,13.68 53,29.64 75.91,48.64 -20.05,15.96 -39.38,30.4 -58.72,43.32 l 16.48,21.28 c 21.47,-15.19 42.96,-30.4 63.73,-46.35 18.62,18.24 34.37,37.23 47.98,57.75 z m -170.44,130.73 c -41.53,-21.28 -85.92,-35.73 -134.63,-44.85 l 0.73,-41.03 h 133.9 v -30.4 h -133.9 l 0.71,-56.24 h 138.21 v -29.64 h -137.5 l 0.73,-68.41 h 445.42 l 3.58,65.36 h -130.33 v 29.64 h 131.76 l 2.87,59.29 h -123.18 v 30.4 h 124.6 l 3.59,62.31 H 3906.3 v 29.64 h 156.83 l -13.6,-276.64 h 46.55 v -106.4 H 4066 v 76.76 h -537.09 v -76.76 h -30.79 v 106.4 h 47.27 l -5.74,255.36 c 52.28,8.36 101.69,23.56 148.25,44.84 z m 293.62,-350.37 v -26.6 c -54.43,-34.96 -119.59,-64.6 -194.08,-88.16 1.44,-6.08 3.59,-11.4 5.02,-15.96 h 309.36 v -29.64 H 3817.5 c 5.02,-24.31 7.89,-45.59 7.89,-65.36 0,-32.67 -5.01,-53.95 -15.04,-63.07 -8.6,-7.61 -20.77,-11.41 -35.81,-11.41 -25.78,0 -52.28,5.32 -80.92,15.2 l -2.86,35.73 c 28.64,-12.17 53.71,-18.25 75.91,-18.25 8.59,0 14.31,1.52 18.61,4.56 5.73,3.8 9.31,15.96 9.31,37.24 0,24.32 -2.87,45.61 -7.16,65.36 H 3475.2 v 29.64 h 304.36 c -5.74,19.01 -14.33,35.72 -24.35,50.17 l 25.06,12.16 c 4.3,-6.85 8.59,-12.92 11.45,-19.01 56.58,15.96 107.43,34.96 151.82,57.77 h -345.17 v 29.63 h 400.32"
         style="fill:#ffffff;fill-opacity:1;fill-rule:nonzero;stroke:none"
         id="path46" /><path
         d="m 3886.97,2241.25 c -15.75,-22.79 -32.94,-44.07 -51.55,-62.31 17.17,-14.45 32.93,-29.64 48.69,-44.85 l -20.05,-23.55 c -16.48,17.48 -32.94,34.2 -49.42,49.39 -25.06,-21.28 -52.98,-40.27 -84.5,-55.48 l -14.32,24.32 c 28.65,13.68 55.14,30.4 78.05,49.4 -22.2,17.48 -44.39,33.44 -66.59,48.65 l 16.47,20.51 c 24.34,-15.95 47.97,-32.67 70.89,-50.91 20.78,19.75 39.39,41.79 55.14,65.36 z m -11.46,-154.28 c -13.6,-20.51 -28.64,-38.76 -44.39,-54.71 18.61,-15.97 35.8,-32.69 52.99,-49.41 l -20.05,-23.55 c -17.91,19.75 -35.81,37.23 -53.71,53.95 -25.07,-21.28 -52.99,-39.52 -83.07,-53.95 l -14.33,23.55 c 27.93,13.68 53,29.64 75.91,48.64 -20.05,15.96 -39.38,30.4 -58.72,43.32 l 16.48,21.28 c 21.47,-15.19 42.96,-30.4 63.73,-46.35 18.62,18.24 34.37,37.23 47.98,57.75 z m -170.44,130.73 c -41.53,-21.28 -85.92,-35.73 -134.63,-44.85 l 0.73,-41.03 h 133.9 v -30.4 h -133.9 l 0.71,-56.24 h 138.21 v -29.64 h -137.5 l 0.73,-68.41 h 445.42 l 3.58,65.36 h -130.33 v 29.64 h 131.76 l 2.87,59.29 h -123.18 v 30.4 h 124.6 l 3.59,62.31 H 3906.3 v 29.64 h 156.83 l -13.6,-276.64 h 46.55 v -106.4 H 4066 v 76.76 h -537.09 v -76.76 h -30.79 v 106.4 h 47.27 l -5.74,255.36 c 52.28,8.36 101.69,23.56 148.25,44.84 z m 293.62,-350.37 v -26.6 c -54.43,-34.96 -119.59,-64.6 -194.08,-88.16 1.44,-6.08 3.59,-11.4 5.02,-15.96 h 309.36 v -29.64 H 3817.5 c 5.02,-24.31 7.89,-45.59 7.89,-65.36 0,-32.67 -5.01,-53.95 -15.04,-63.07 -8.6,-7.61 -20.77,-11.41 -35.81,-11.41 -25.78,0 -52.28,5.32 -80.92,15.2 l -2.86,35.73 c 28.64,-12.17 53.71,-18.25 75.91,-18.25 8.59,0 14.31,1.52 18.61,4.56 5.73,3.8 9.31,15.96 9.31,37.24 0,24.32 -2.87,45.61 -7.16,65.36 H 3475.2 v 29.64 h 304.36 c -5.74,19.01 -14.33,35.72 -24.35,50.17 l 25.06,12.16 c 4.3,-6.85 8.59,-12.92 11.45,-19.01 56.58,15.96 107.43,34.96 151.82,57.77 h -345.17 v 29.63 z"
         style="fill:none;stroke:#ffffff;stroke-width:30;stroke-linecap:butt;stroke-linejoin:miter;stroke-miterlimit:4;stroke-dasharray:none;stroke-opacity:1"
         id="path48" /><path
         d="m 5043.55,2042.13 v -32.68 h -240.62 v 32.68 z m -100.97,127.68 h 176.17 v -132.99 h -32.94 v 100.32 h -330.13 v -106.41 h -33.66 v 139.08 h 179.03 c -9.32,25.84 -19.34,50.92 -30.8,74.49 l 27.93,17.48 c 15.76,-27.37 30.8,-57.77 44.4,-91.97 z m 190.49,-263.72 v -32.67 H 4996.29 V 1647.7 c 0,-11.41 0.72,-19.77 2.15,-25.08 3.58,-6.85 22.91,-10.65 58.72,-10.65 24.35,0 38.67,5.32 42.96,15.2 3.59,6.08 7.17,41.04 10.74,106.4 l 33.67,-20.51 c -5.74,-69.93 -12.18,-107.17 -20.05,-112.48 -5.02,-12.17 -27.22,-18.25 -67.32,-18.25 -47.26,0 -74.48,3.8 -81.64,10.64 -8.59,5.32 -12.89,18.24 -12.89,39.52 v 240.93 h -82.35 c -2.86,-60.05 -10.03,-103.37 -21.49,-129.96 -12.89,-34.21 -32.94,-66.89 -60.87,-98.05 -28.64,-32.68 -60.86,-60.8 -95.95,-83.59 l -22.2,26.59 c 32.23,21.29 62.3,47.13 89.51,76.77 25.78,28.87 45.12,59.27 57.29,89.67 11.46,25.08 17.91,64.6 20.06,118.57 H 4729.9 v 32.67 z m -499.13,103.36 c 25.77,-31.16 46.54,-64.6 60.87,-99.56 14.32,-37.23 21.47,-72.19 21.47,-104.88 -1.42,-44.07 -27.2,-65.36 -78.04,-65.36 -12.18,0 -27.22,4.56 -45.12,14.44 l -8.59,38.76 c 20.76,-12.16 38.67,-17.48 53.71,-17.48 30.07,0 45.83,9.88 47.25,29.64 0,28.89 -6.44,60.04 -17.9,91.96 -11.45,33.44 -32.94,69.16 -63.01,107.16 l 75.19,198.36 h -120.31 v -640.67 h -30.79 v 670.32 h 193.35 l -88.08,-222.69"
         style="fill:#ffffff;fill-opacity:1;fill-rule:nonzero;stroke:none"
         id="path50" /><path
         d="m 5043.55,2042.13 v -32.68 h -240.62 v 32.68 z m -100.97,127.68 h 176.17 v -132.99 h -32.94 v 100.32 h -330.13 v -106.41 h -33.66 v 139.08 h 179.03 c -9.32,25.84 -19.34,50.92 -30.8,74.49 l 27.93,17.48 c 15.76,-27.37 30.8,-57.77 44.4,-91.97 z m 190.49,-263.72 v -32.67 H 4996.29 V 1647.7 c 0,-11.41 0.72,-19.77 2.15,-25.08 3.58,-6.85 22.91,-10.65 58.72,-10.65 24.35,0 38.67,5.32 42.96,15.2 3.59,6.08 7.17,41.04 10.74,106.4 l 33.67,-20.51 c -5.74,-69.93 -12.18,-107.17 -20.05,-112.48 -5.02,-12.17 -27.22,-18.25 -67.32,-18.25 -47.26,0 -74.48,3.8 -81.64,10.64 -8.59,5.32 -12.89,18.24 -12.89,39.52 v 240.93 h -82.35 c -2.86,-60.05 -10.03,-103.37 -21.49,-129.96 -12.89,-34.21 -32.94,-66.89 -60.87,-98.05 -28.64,-32.68 -60.86,-60.8 -95.95,-83.59 l -22.2,26.59 c 32.23,21.29 62.3,47.13 89.51,76.77 25.78,28.87 45.12,59.27 57.29,89.67 11.46,25.08 17.91,64.6 20.06,118.57 H 4729.9 v 32.67 z m -499.13,103.36 c 25.77,-31.16 46.54,-64.6 60.87,-99.56 14.32,-37.23 21.47,-72.19 21.47,-104.88 -1.42,-44.07 -27.2,-65.36 -78.04,-65.36 -12.18,0 -27.22,4.56 -45.12,14.44 l -8.59,38.76 c 20.76,-12.16 38.67,-17.48 53.71,-17.48 30.07,0 45.83,9.88 47.25,29.64 0,28.89 -6.44,60.04 -17.9,91.96 -11.45,33.44 -32.94,69.16 -63.01,107.16 l 75.19,198.36 h -120.31 v -640.67 h -30.79 v 670.32 h 193.35 z"
         style="fill:none;stroke:#ffffff;stroke-width:30;stroke-linecap:butt;stroke-linejoin:miter;stroke-miterlimit:4;stroke-dasharray:none;stroke-opacity:1"
         id="path52" /><path
         d="m 424.98,729.992 v 343.748 h 40.938 V 932.492 h 161.25 v 141.248 h 40.937 V 729.992 H 627.168 V 891.871 H 465.918 V 729.992 H 424.98"
         style="fill:#ffffff;fill-opacity:1;fill-rule:nonzero;stroke:none"
         id="path54" /><path
         d="m 424.98,729.992 v 343.748 h 40.938 V 932.492 h 161.25 v 141.248 h 40.937 V 729.992 H 627.168 V 891.871 H 465.918 V 729.992 Z"
         style="fill:none;stroke:#ffffff;stroke-width:10;stroke-linecap:butt;stroke-linejoin:miter;stroke-miterlimit:4;stroke-dasharray:none;stroke-opacity:1"
         id="path56" /><path
         d="m 735.023,729.992 v 343.748 h 40.938 V 903.602 l 154.305,170.138 h 55.695 L 855.664,934.332 991.586,729.992 H 937.367 L 826.84,903.492 775.961,849.051 V 729.992 h -40.938"
         style="fill:#ffffff;fill-opacity:1;fill-rule:nonzero;stroke:none"
         id="path58" /><path
         d="m 735.023,729.992 v 343.748 h 40.938 V 903.602 l 154.305,170.138 h 55.695 L 855.664,934.332 991.586,729.992 H 937.367 L 826.84,903.492 775.961,849.051 V 729.992 Z"
         style="fill:none;stroke:#ffffff;stroke-width:10;stroke-linecap:butt;stroke-linejoin:miter;stroke-miterlimit:4;stroke-dasharray:none;stroke-opacity:1"
         id="path60" /><path
         d="m 1065.21,770.621 h 77.37 c 13.28,0 22.62,0.539 27.99,1.641 9.46,1.867 17.37,5 23.74,9.367 6.35,4.383 11.58,10.742 15.69,19.101 4.09,8.36 6.14,18.012 6.14,28.95 0,12.812 -2.95,23.941 -8.85,33.402 -5.89,9.449 -14.11,16.09 -24.65,19.918 -10.54,3.832 -25.71,5.742 -45.51,5.742 h -71.92 z m 0,158.75 h 67.26 c 18.24,0 31.32,1.32 39.24,3.981 10.47,3.437 18.36,9.128 23.66,17.089 5.3,7.969 7.96,17.961 7.96,29.981 0,11.398 -2.48,21.428 -7.43,30.098 -4.95,8.66 -12.02,14.59 -21.22,17.79 -9.19,3.2 -24.96,4.81 -47.31,4.81 h -62.16 z m -40.94,-199.379 v 343.748 h 116.46 c 23.71,0 42.74,-3.48 57.07,-10.44 14.32,-6.96 25.55,-17.68 33.66,-32.14 8.12,-14.47 12.18,-29.61 12.18,-45.39 0,-14.711 -3.59,-28.551 -10.76,-41.528 -7.18,-12.98 -18.02,-23.472 -32.52,-31.441 18.72,-6.09 33.12,-16.481 43.18,-31.172 10.07,-14.688 15.1,-32.027 15.1,-52.027 0,-16.09 -3.07,-31.063 -9.21,-44.883 -6.14,-13.828 -13.72,-24.5 -22.76,-32 -9.03,-7.5 -20.36,-13.16 -33.98,-16.989 -13.62,-3.832 -30.31,-5.738 -50.07,-5.738 h -118.35"
         style="fill:#ffffff;fill-opacity:1;fill-rule:nonzero;stroke:none"
         id="path62" /><path
         d="m 1065.21,770.621 h 77.37 c 13.28,0 22.62,0.539 27.99,1.641 9.46,1.867 17.37,5 23.74,9.367 6.35,4.383 11.58,10.742 15.69,19.101 4.09,8.36 6.14,18.012 6.14,28.95 0,12.812 -2.95,23.941 -8.85,33.402 -5.89,9.449 -14.11,16.09 -24.65,19.918 -10.54,3.832 -25.71,5.742 -45.51,5.742 h -71.92 z m 0,158.75 h 67.26 c 18.24,0 31.32,1.32 39.24,3.981 10.47,3.437 18.36,9.128 23.66,17.089 5.3,7.969 7.96,17.961 7.96,29.981 0,11.398 -2.48,21.428 -7.43,30.098 -4.95,8.66 -12.02,14.59 -21.22,17.79 -9.19,3.2 -24.96,4.81 -47.31,4.81 h -62.16 z m -40.94,-199.379 v 343.748 h 116.46 c 23.71,0 42.74,-3.48 57.07,-10.44 14.32,-6.96 25.55,-17.68 33.66,-32.14 8.12,-14.47 12.18,-29.61 12.18,-45.39 0,-14.711 -3.59,-28.551 -10.76,-41.528 -7.18,-12.98 -18.02,-23.472 -32.52,-31.441 18.72,-6.09 33.12,-16.481 43.18,-31.172 10.07,-14.688 15.1,-32.027 15.1,-52.027 0,-16.09 -3.07,-31.063 -9.21,-44.883 -6.14,-13.828 -13.72,-24.5 -22.76,-32 -9.03,-7.5 -20.36,-13.16 -33.98,-16.989 -13.62,-3.832 -30.31,-5.738 -50.07,-5.738 z"
         style="fill:none;stroke:#ffffff;stroke-width:10;stroke-linecap:butt;stroke-linejoin:miter;stroke-miterlimit:4;stroke-dasharray:none;stroke-opacity:1"
         id="path64" /><path
         d="m 1518.82,1073.74 h 40.94 V 875.09 c 0,-34.551 -3.53,-61.988 -10.59,-82.328 -7.05,-20.321 -19.79,-36.852 -38.2,-49.602 -18.42,-12.738 -42.59,-19.109 -72.5,-19.109 -29.07,0 -52.85,5.551 -71.34,16.648 -18.48,11.114 -31.68,27.172 -39.58,48.203 -7.9,21.028 -11.85,49.758 -11.85,86.188 v 198.65 h 40.94 V 875.262 c 0,-29.883 2.5,-51.891 7.52,-66.051 5.02,-14.152 13.64,-25.063 25.86,-32.731 12.23,-7.66 27.18,-11.488 44.85,-11.488 30.24,0 51.8,7.578 64.66,22.746 12.86,15.184 19.29,44.344 19.29,87.524 v 198.478"
         style="fill:#ffffff;fill-opacity:1;fill-rule:nonzero;stroke:none"
         id="path66" /><path
         d="m 1518.82,1073.74 h 40.94 V 875.09 c 0,-34.551 -3.53,-61.988 -10.59,-82.328 -7.05,-20.321 -19.79,-36.852 -38.2,-49.602 -18.42,-12.738 -42.59,-19.109 -72.5,-19.109 -29.07,0 -52.85,5.551 -71.34,16.648 -18.48,11.114 -31.68,27.172 -39.58,48.203 -7.9,21.028 -11.85,49.758 -11.85,86.188 v 198.65 h 40.94 V 875.262 c 0,-29.883 2.5,-51.891 7.52,-66.051 5.02,-14.152 13.64,-25.063 25.86,-32.731 12.23,-7.66 27.18,-11.488 44.85,-11.488 30.24,0 51.8,7.578 64.66,22.746 12.86,15.184 19.29,44.344 19.29,87.524 z"
         style="fill:none;stroke:#ffffff;stroke-width:10;stroke-linecap:butt;stroke-linejoin:miter;stroke-miterlimit:4;stroke-dasharray:none;stroke-opacity:1"
         id="path68" /><path
         d="m 1750.91,729.992 v 343.748 h 209.38 v -40.62 H 1791.85 V 926.871 h 145.63 v -40.629 h -145.63 v -156.25 h -40.94"
         style="fill:#ffffff;fill-opacity:1;fill-rule:nonzero;stroke:none"
         id="path70" /><path
         d="m 1750.91,729.992 v 343.748 h 209.38 v -40.62 H 1791.85 V 926.871 h 145.63 v -40.629 h -145.63 v -156.25 z"
         style="fill:none;stroke:#ffffff;stroke-width:10;stroke-linecap:butt;stroke-linejoin:miter;stroke-miterlimit:4;stroke-dasharray:none;stroke-opacity:1"
         id="path72" /><path
         d="m 2152.37,854.992 c -13.85,-6.25 -34.62,-11.562 -62.32,-15.941 -15.68,-2.5 -26.77,-5.309 -33.27,-8.43 -6.51,-3.129 -11.52,-7.699 -15.05,-13.723 -3.54,-6.007 -5.3,-12.687 -5.3,-20.027 0,-11.25 3.84,-20.629 11.53,-28.129 7.68,-7.5 18.93,-11.25 33.74,-11.25 14.67,0 27.72,3.547 39.14,10.668 11.43,7.121 19.82,16.852 25.18,29.192 4.09,9.527 6.14,23.589 6.14,42.168 z m 3.12,-94.371 c -14.21,-13.262 -27.84,-22.609 -40.89,-28.07 -13.04,-5.449 -27.04,-8.18 -41.99,-8.18 -24.69,0 -43.66,6.668 -56.92,20.051 -13.26,13.367 -19.88,30.457 -19.88,51.258 0,12.199 2.5,23.34 7.51,33.429 5,10.09 11.56,18.18 19.67,24.282 8.11,6.097 17.24,10.718 27.4,13.851 7.48,2.18 18.76,4.289 33.85,6.317 30.75,4.07 53.39,8.921 67.92,14.562 0.13,5.77 0.21,9.43 0.21,10.988 0,17.172 -3.6,29.262 -10.8,36.289 -9.73,9.512 -24.2,14.282 -43.39,14.282 -17.92,0 -31.15,-3.469 -39.68,-10.391 -8.54,-6.937 -14.85,-19.199 -18.94,-36.797 l -37.19,5.629 c 3.39,17.629 8.96,31.871 16.72,42.731 7.77,10.839 18.99,19.199 33.67,25.05 14.68,5.848 31.69,8.778 51.02,8.778 19.2,0 34.8,-2.5 46.8,-7.5 11.99,-5 20.82,-11.278 26.46,-18.848 5.65,-7.582 9.6,-17.152 11.86,-28.691 1.27,-7.192 1.91,-20.172 1.91,-38.93 v -56.289 c 0,-39.242 0.81,-64.082 2.45,-74.492 1.64,-10.41 4.88,-20.391 9.73,-29.938 h -39.68 c -4.06,8.727 -6.66,18.938 -7.82,30.629"
         style="fill:#ffffff;fill-opacity:1;fill-rule:nonzero;stroke:none"
         id="path74" /><path
         d="m 2152.37,854.992 c -13.85,-6.25 -34.62,-11.562 -62.32,-15.941 -15.68,-2.5 -26.77,-5.309 -33.27,-8.43 -6.51,-3.129 -11.52,-7.699 -15.05,-13.723 -3.54,-6.007 -5.3,-12.687 -5.3,-20.027 0,-11.25 3.84,-20.629 11.53,-28.129 7.68,-7.5 18.93,-11.25 33.74,-11.25 14.67,0 27.72,3.547 39.14,10.668 11.43,7.121 19.82,16.852 25.18,29.192 4.09,9.527 6.14,23.589 6.14,42.168 z m 3.12,-94.371 c -14.21,-13.262 -27.84,-22.609 -40.89,-28.07 -13.04,-5.449 -27.04,-8.18 -41.99,-8.18 -24.69,0 -43.66,6.668 -56.92,20.051 -13.26,13.367 -19.88,30.457 -19.88,51.258 0,12.199 2.5,23.34 7.51,33.429 5,10.09 11.56,18.18 19.67,24.282 8.11,6.097 17.24,10.718 27.4,13.851 7.48,2.18 18.76,4.289 33.85,6.317 30.75,4.07 53.39,8.921 67.92,14.562 0.13,5.77 0.21,9.43 0.21,10.988 0,17.172 -3.6,29.262 -10.8,36.289 -9.73,9.512 -24.2,14.282 -43.39,14.282 -17.92,0 -31.15,-3.469 -39.68,-10.391 -8.54,-6.937 -14.85,-19.199 -18.94,-36.797 l -37.19,5.629 c 3.39,17.629 8.96,31.871 16.72,42.731 7.77,10.839 18.99,19.199 33.67,25.05 14.68,5.848 31.69,8.778 51.02,8.778 19.2,0 34.8,-2.5 46.8,-7.5 11.99,-5 20.82,-11.278 26.46,-18.848 5.65,-7.582 9.6,-17.152 11.86,-28.691 1.27,-7.192 1.91,-20.172 1.91,-38.93 v -56.289 c 0,-39.242 0.81,-64.082 2.45,-74.492 1.64,-10.41 4.88,-20.391 9.73,-29.938 h -39.68 c -4.06,8.727 -6.66,18.938 -7.82,30.629 z"
         style="fill:none;stroke:#ffffff;stroke-width:10;stroke-linecap:butt;stroke-linejoin:miter;stroke-miterlimit:4;stroke-dasharray:none;stroke-opacity:1"
         id="path76" /><path
         d="m 2396.67,821.242 37.5,-5.621 c -4.1,-28.551 -14.58,-50.902 -31.46,-67.043 -16.87,-16.148 -37.6,-24.207 -62.17,-24.207 -30.78,0 -55.53,11.129 -74.24,33.41 -18.71,22.278 -28.07,54.207 -28.07,95.797 0,26.902 4.02,50.422 12.07,70.594 8.04,20.168 20.28,35.289 36.72,45.379 16.44,10.09 34.32,15.129 53.65,15.129 24.42,0 44.38,-6.84 59.91,-20.508 15.51,-13.672 25.46,-33.094 29.84,-58.242 l -37.19,-6.25 c -3.52,16.691 -9.77,29.25 -18.72,37.672 -8.96,8.418 -19.78,12.64 -32.47,12.64 -19.19,0 -34.77,-7.633 -46.76,-22.871 -11.99,-15.25 -17.99,-39.383 -17.99,-72.359 0,-33.473 5.8,-57.793 17.39,-72.949 11.59,-15.184 26.72,-22.762 45.38,-22.762 14.98,0 27.49,5.078 37.53,15.262 10.03,10.156 16.39,25.808 19.08,46.929"
         style="fill:#ffffff;fill-opacity:1;fill-rule:nonzero;stroke:none"
         id="path78" /><path
         d="m 2396.67,821.242 37.5,-5.621 c -4.1,-28.551 -14.58,-50.902 -31.46,-67.043 -16.87,-16.148 -37.6,-24.207 -62.17,-24.207 -30.78,0 -55.53,11.129 -74.24,33.41 -18.71,22.278 -28.07,54.207 -28.07,95.797 0,26.902 4.02,50.422 12.07,70.594 8.04,20.168 20.28,35.289 36.72,45.379 16.44,10.09 34.32,15.129 53.65,15.129 24.42,0 44.38,-6.84 59.91,-20.508 15.51,-13.672 25.46,-33.094 29.84,-58.242 l -37.19,-6.25 c -3.52,16.691 -9.77,29.25 -18.72,37.672 -8.96,8.418 -19.78,12.64 -32.47,12.64 -19.19,0 -34.77,-7.633 -46.76,-22.871 -11.99,-15.25 -17.99,-39.383 -17.99,-72.359 0,-33.473 5.8,-57.793 17.39,-72.949 11.59,-15.184 26.72,-22.762 45.38,-22.762 14.98,0 27.49,5.078 37.53,15.262 10.03,10.156 16.39,25.808 19.08,46.929 z"
         style="fill:none;stroke:#ffffff;stroke-width:10;stroke-linecap:butt;stroke-linejoin:miter;stroke-miterlimit:4;stroke-dasharray:none;stroke-opacity:1"
         id="path80" /><path
         d="m 2614.12,729.992 v 36.477 c -17.49,-28.059 -41.26,-42.098 -71.31,-42.098 -13.26,0 -25.64,2.809 -37.14,8.43 -11.5,5.629 -20.03,12.711 -25.6,21.23 -5.58,8.52 -9.49,18.961 -11.74,31.309 -1.56,8.281 -2.33,21.422 -2.33,39.402 v 154.309 h 38.12 V 840.859 c 0,-22.058 0.77,-36.918 2.33,-44.578 2.39,-11.109 7.47,-19.82 15.22,-26.16 7.75,-6.34 17.34,-9.5 28.76,-9.5 11.42,0 22.13,3.238 32.14,9.731 10.01,6.5 17.09,15.32 21.25,26.519 4.16,11.168 6.24,27.399 6.24,48.68 v 133.5 h 38.12 V 729.992 h -34.06"
         style="fill:#ffffff;fill-opacity:1;fill-rule:nonzero;stroke:none"
         id="path82" /><path
         d="m 2614.12,729.992 v 36.477 c -17.49,-28.059 -41.26,-42.098 -71.31,-42.098 -13.26,0 -25.64,2.809 -37.14,8.43 -11.5,5.629 -20.03,12.711 -25.6,21.23 -5.58,8.52 -9.49,18.961 -11.74,31.309 -1.56,8.281 -2.33,21.422 -2.33,39.402 v 154.309 h 38.12 V 840.859 c 0,-22.058 0.77,-36.918 2.33,-44.578 2.39,-11.109 7.47,-19.82 15.22,-26.16 7.75,-6.34 17.34,-9.5 28.76,-9.5 11.42,0 22.13,3.238 32.14,9.731 10.01,6.5 17.09,15.32 21.25,26.519 4.16,11.168 6.24,27.399 6.24,48.68 v 133.5 h 38.12 V 729.992 Z"
         style="fill:none;stroke:#ffffff;stroke-width:10;stroke-linecap:butt;stroke-linejoin:miter;stroke-miterlimit:4;stroke-dasharray:none;stroke-opacity:1"
         id="path84" /><path
         d="m 2707.17,729.992 v 343.748 h 38.13 V 729.992 h -38.13"
         style="fill:#ffffff;fill-opacity:1;fill-rule:nonzero;stroke:none"
         id="path86" /><path
         d="m 2707.17,729.992 v 343.748 h 38.13 V 729.992 Z"
         style="fill:none;stroke:#ffffff;stroke-width:10;stroke-linecap:butt;stroke-linejoin:miter;stroke-miterlimit:4;stroke-dasharray:none;stroke-opacity:1"
         id="path88" /><path
         d="m 2887.58,767.57 5.63,-37.269 c -10.74,-2.5 -20.36,-3.75 -28.85,-3.75 -13.86,0 -24.61,2.418 -32.25,7.281 -7.63,4.848 -13,11.219 -16.11,19.129 -3.11,7.891 -4.67,24.519 -4.67,49.871 v 143.41 h -28.12 v 32.809 h 28.12 v 61.639 l 38.13,25.32 v -86.959 h 38.12 v -32.809 h -38.12 V 800.441 c 0,-12.05 0.66,-19.812 2,-23.242 1.34,-3.449 3.51,-6.187 6.53,-8.23 3.01,-2.028 7.34,-3.039 12.95,-3.039 4.21,0 9.76,0.539 16.64,1.64"
         style="fill:#ffffff;fill-opacity:1;fill-rule:nonzero;stroke:none"
         id="path90" /><path
         d="m 2887.58,767.57 5.63,-37.269 c -10.74,-2.5 -20.36,-3.75 -28.85,-3.75 -13.86,0 -24.61,2.418 -32.25,7.281 -7.63,4.848 -13,11.219 -16.11,19.129 -3.11,7.891 -4.67,24.519 -4.67,49.871 v 143.41 h -28.12 v 32.809 h 28.12 v 61.639 l 38.13,25.32 v -86.959 h 38.12 v -32.809 h -38.12 V 800.441 c 0,-12.05 0.66,-19.812 2,-23.242 1.34,-3.449 3.51,-6.187 6.53,-8.23 3.01,-2.028 7.34,-3.039 12.95,-3.039 4.21,0 9.76,0.539 16.64,1.64 z"
         style="fill:none;stroke:#ffffff;stroke-width:10;stroke-linecap:butt;stroke-linejoin:miter;stroke-miterlimit:4;stroke-dasharray:none;stroke-opacity:1"
         id="path92" /><path
         d="m 2923.06,634.199 -4.37,39.543 c 8.33,-2.5 15.59,-3.75 21.81,-3.75 8.47,0 15.25,1.559 20.33,4.688 5.09,3.121 9.25,7.511 12.5,13.129 2.4,4.23 6.28,14.703 11.66,31.421 0.7,2.34 1.83,5.79 3.38,10.321 l -85,249.5 h 40.76 l 46.66,-144.391 c 6.05,-18.32 11.48,-37.57 16.27,-57.762 4.5,19.543 9.81,38.524 15.93,56.942 l 48.2,145.211 h 38.12 l -85.7,-253.262 c -9.17,-27.32 -16.3,-46.129 -21.38,-56.437 -6.78,-13.911 -14.53,-24.09 -23.28,-30.571 -8.75,-6.492 -19.2,-9.73 -31.33,-9.73 -7.34,0 -15.53,1.719 -24.56,5.148"
         style="fill:#ffffff;fill-opacity:1;fill-rule:nonzero;stroke:none"
         id="path94" /><path
         d="m 2923.06,634.199 -4.37,39.543 c 8.33,-2.5 15.59,-3.75 21.81,-3.75 8.47,0 15.25,1.559 20.33,4.688 5.09,3.121 9.25,7.511 12.5,13.129 2.4,4.23 6.28,14.703 11.66,31.421 0.7,2.34 1.83,5.79 3.38,10.321 l -85,249.5 h 40.76 l 46.66,-144.391 c 6.05,-18.32 11.48,-37.57 16.27,-57.762 4.5,19.543 9.81,38.524 15.93,56.942 l 48.2,145.211 h 38.12 l -85.7,-253.262 c -9.17,-27.32 -16.3,-46.129 -21.38,-56.437 -6.78,-13.911 -14.53,-24.09 -23.28,-30.571 -8.75,-6.492 -19.2,-9.73 -31.33,-9.73 -7.34,0 -15.53,1.719 -24.56,5.148 z"
         style="fill:none;stroke:#ffffff;stroke-width:10;stroke-linecap:butt;stroke-linejoin:miter;stroke-miterlimit:4;stroke-dasharray:none;stroke-opacity:1"
         id="path96" /><path
         d="m 3286.93,854.48 c 0,-31.89 6.29,-55.761 18.87,-71.628 12.57,-15.872 28.4,-23.801 47.49,-23.801 18.93,0 34.69,7.969 47.27,23.918 12.58,15.953 18.87,40.242 18.87,72.922 0,30.789 -6.33,54.121 -18.98,69.988 -12.65,15.871 -28.37,23.801 -47.16,23.801 -19.09,0 -34.92,-7.891 -47.49,-23.68 -12.58,-15.789 -18.87,-39.629 -18.87,-71.52 z m -39.06,0.04 c 0,46.121 11.57,80.281 34.71,102.48 19.34,18.461 42.9,27.68 70.71,27.68 30.89,0 56.16,-11.219 75.78,-33.649 19.61,-22.453 29.42,-53.441 29.42,-92.992 0,-32.047 -4.34,-57.269 -13.02,-75.629 -8.68,-18.379 -21.3,-32.629 -37.89,-42.801 -16.58,-10.168 -34.68,-15.238 -54.29,-15.238 -31.48,0 -56.92,11.168 -76.31,33.527 -19.42,22.352 -29.11,54.563 -29.11,96.622"
         style="fill:#ffffff;fill-opacity:1;fill-rule:nonzero;stroke:none"
         id="path98" /><path
         d="m 3286.93,854.48 c 0,-31.89 6.29,-55.761 18.87,-71.628 12.57,-15.872 28.4,-23.801 47.49,-23.801 18.93,0 34.69,7.969 47.27,23.918 12.58,15.953 18.87,40.242 18.87,72.922 0,30.789 -6.33,54.121 -18.98,69.988 -12.65,15.871 -28.37,23.801 -47.16,23.801 -19.09,0 -34.92,-7.891 -47.49,-23.68 -12.58,-15.789 -18.87,-39.629 -18.87,-71.52 z m -39.06,0.04 c 0,46.121 11.57,80.281 34.71,102.48 19.34,18.461 42.9,27.68 70.71,27.68 30.89,0 56.16,-11.219 75.78,-33.649 19.61,-22.453 29.42,-53.441 29.42,-92.992 0,-32.047 -4.34,-57.269 -13.02,-75.629 -8.68,-18.379 -21.3,-32.629 -37.89,-42.801 -16.58,-10.168 -34.68,-15.238 -54.29,-15.238 -31.48,0 -56.92,11.168 -76.31,33.527 -19.42,22.352 -29.11,54.563 -29.11,96.622 z"
         style="fill:none;stroke:#ffffff;stroke-width:10;stroke-linecap:butt;stroke-linejoin:miter;stroke-miterlimit:4;stroke-dasharray:none;stroke-opacity:1"
         id="path100" /><path
         d="m 3512.37,729.992 v 216.25 h -33.75 v 32.809 h 33.75 v 26.509 c 0,16.73 1.33,29.16 4,37.29 3.67,10.95 10.11,19.82 19.34,26.62 9.22,6.81 22.17,10.21 38.83,10.21 10.72,0 22.58,-1.41 35.57,-4.23 l -5.71,-36.87 c -7.91,1.57 -15.39,2.35 -22.46,2.35 -11.58,0 -19.77,-2.74 -24.57,-8.21 -4.8,-5.46 -7.19,-15.7 -7.19,-30.7 v -22.969 h 44.06 v -32.809 h -43.75 v -216.25 h -38.12"
         style="fill:#ffffff;fill-opacity:1;fill-rule:nonzero;stroke:none"
         id="path102" /><path
         d="m 3512.37,729.992 v 216.25 h -33.75 v 32.809 h 33.75 v 26.509 c 0,16.73 1.33,29.16 4,37.29 3.67,10.95 10.11,19.82 19.34,26.62 9.22,6.81 22.17,10.21 38.83,10.21 10.72,0 22.58,-1.41 35.57,-4.23 l -5.71,-36.87 c -7.91,1.57 -15.39,2.35 -22.46,2.35 -11.58,0 -19.77,-2.74 -24.57,-8.21 -4.8,-5.46 -7.19,-15.7 -7.19,-30.7 v -22.969 h 44.06 v -32.809 h -43.75 v -216.25 z"
         style="fill:none;stroke:#ffffff;stroke-width:10;stroke-linecap:butt;stroke-linejoin:miter;stroke-miterlimit:4;stroke-dasharray:none;stroke-opacity:1"
         id="path104" /><path
         d="m 3735,840.301 38.75,3.75 c 1.83,-17.219 6.1,-31.34 12.8,-42.379 6.71,-11.051 17.12,-19.973 31.23,-26.781 14.12,-6.809 30,-10.211 47.64,-10.211 15.67,0 29.51,2.582 41.5,7.75 12,5.16 20.93,12.25 26.79,21.25 5.86,9.011 8.79,18.832 8.79,29.468 0,10.813 -2.83,20.243 -8.46,28.313 -5.64,8.051 -14.95,14.82 -27.96,20.309 -8.35,3.589 -26.8,9.199 -55.36,16.781 -28.57,7.59 -48.58,14.758 -60.03,21.48 -14.86,8.61 -25.92,19.282 -33.2,32.028 -7.29,12.75 -10.93,27.023 -10.93,42.82 0,17.371 4.45,33.591 13.36,48.681 8.9,15.1 21.9,26.57 39.01,34.38 17.11,7.83 36.11,11.74 57.04,11.74 23.04,0 43.37,-4.11 60.97,-12.33 17.6,-8.22 31.13,-20.31 40.6,-36.27 9.48,-15.95 14.55,-34.029 15.27,-54.209 l -39.38,-3.441 c -2.12,21.84 -9.3,38.35 -21.53,49.51 -12.23,11.15 -30.29,16.74 -54.18,16.74 -24.88,0 -43.03,-5.06 -54.4,-15.16 -11.38,-10.1 -17.07,-22.26 -17.07,-36.5 0,-12.391 4.03,-22.559 12.08,-30.528 7.92,-7.992 28.6,-16.172 62.04,-24.551 33.43,-8.382 56.37,-15.691 68.81,-21.941 18.09,-9.23 31.45,-20.918 40.06,-35.07 8.64,-14.149 12.94,-30.45 12.94,-48.91 0,-18.301 -4.73,-35.54 -14.19,-51.719 -9.47,-16.192 -23.05,-28.77 -40.78,-37.762 -17.71,-9 -37.66,-13.488 -59.83,-13.488 -28.1,0 -51.65,4.527 -70.64,13.601 -19,9.059 -33.89,22.688 -44.69,40.887 -10.8,18.211 -16.49,38.789 -17.05,61.762"
         style="fill:#ffffff;fill-opacity:1;fill-rule:nonzero;stroke:none"
         id="path106" /><path
         d="m 3735,840.301 38.75,3.75 c 1.83,-17.219 6.1,-31.34 12.8,-42.379 6.71,-11.051 17.12,-19.973 31.23,-26.781 14.12,-6.809 30,-10.211 47.64,-10.211 15.67,0 29.51,2.582 41.5,7.75 12,5.16 20.93,12.25 26.79,21.25 5.86,9.011 8.79,18.832 8.79,29.468 0,10.813 -2.83,20.243 -8.46,28.313 -5.64,8.051 -14.95,14.82 -27.96,20.309 -8.35,3.589 -26.8,9.199 -55.36,16.781 -28.57,7.59 -48.58,14.758 -60.03,21.48 -14.86,8.61 -25.92,19.282 -33.2,32.028 -7.29,12.75 -10.93,27.023 -10.93,42.82 0,17.371 4.45,33.591 13.36,48.681 8.9,15.1 21.9,26.57 39.01,34.38 17.11,7.83 36.11,11.74 57.04,11.74 23.04,0 43.37,-4.11 60.97,-12.33 17.6,-8.22 31.13,-20.31 40.6,-36.27 9.48,-15.95 14.55,-34.029 15.27,-54.209 l -39.38,-3.441 c -2.12,21.84 -9.3,38.35 -21.53,49.51 -12.23,11.15 -30.29,16.74 -54.18,16.74 -24.88,0 -43.03,-5.06 -54.4,-15.16 -11.38,-10.1 -17.07,-22.26 -17.07,-36.5 0,-12.391 4.03,-22.559 12.08,-30.528 7.92,-7.992 28.6,-16.172 62.04,-24.551 33.43,-8.382 56.37,-15.691 68.81,-21.941 18.09,-9.23 31.45,-20.918 40.06,-35.07 8.64,-14.149 12.94,-30.45 12.94,-48.91 0,-18.301 -4.73,-35.54 -14.19,-51.719 -9.47,-16.192 -23.05,-28.77 -40.78,-37.762 -17.71,-9 -37.66,-13.488 -59.83,-13.488 -28.1,0 -51.65,4.527 -70.64,13.601 -19,9.059 -33.89,22.688 -44.69,40.887 -10.8,18.211 -16.49,38.789 -17.05,61.762 z"
         style="fill:none;stroke:#ffffff;stroke-width:10;stroke-linecap:butt;stroke-linejoin:miter;stroke-miterlimit:4;stroke-dasharray:none;stroke-opacity:1"
         id="path108" /><path
         d="m 4180.17,821.242 37.5,-5.621 c -4.09,-28.551 -14.58,-50.902 -31.45,-67.043 -16.88,-16.148 -37.6,-24.207 -62.17,-24.207 -30.79,0 -55.54,11.129 -74.25,33.41 -18.71,22.278 -28.07,54.207 -28.07,95.797 0,26.902 4.02,50.422 12.06,70.594 8.05,20.168 20.3,35.289 36.73,45.379 16.44,10.09 34.33,15.129 53.65,15.129 24.42,0 44.39,-6.84 59.91,-20.508 15.51,-13.672 25.47,-33.094 29.84,-58.242 l -37.19,-6.25 c -3.52,16.691 -9.77,29.25 -18.72,37.672 -8.96,8.418 -19.78,12.64 -32.48,12.64 -19.18,0 -34.76,-7.633 -46.76,-22.871 -11.99,-15.25 -17.97,-39.383 -17.97,-72.359 0,-33.473 5.79,-57.793 17.39,-72.949 11.58,-15.184 26.71,-22.762 45.37,-22.762 14.98,0 27.49,5.078 37.53,15.262 10.03,10.156 16.4,25.808 19.08,46.929"
         style="fill:#ffffff;fill-opacity:1;fill-rule:nonzero;stroke:none"
         id="path110" /><path
         d="m 4180.17,821.242 37.5,-5.621 c -4.09,-28.551 -14.58,-50.902 -31.45,-67.043 -16.88,-16.148 -37.6,-24.207 -62.17,-24.207 -30.79,0 -55.54,11.129 -74.25,33.41 -18.71,22.278 -28.07,54.207 -28.07,95.797 0,26.902 4.02,50.422 12.06,70.594 8.05,20.168 20.3,35.289 36.73,45.379 16.44,10.09 34.33,15.129 53.65,15.129 24.42,0 44.39,-6.84 59.91,-20.508 15.51,-13.672 25.47,-33.094 29.84,-58.242 l -37.19,-6.25 c -3.52,16.691 -9.77,29.25 -18.72,37.672 -8.96,8.418 -19.78,12.64 -32.48,12.64 -19.18,0 -34.76,-7.633 -46.76,-22.871 -11.99,-15.25 -17.97,-39.383 -17.97,-72.359 0,-33.473 5.79,-57.793 17.39,-72.949 11.58,-15.184 26.71,-22.762 45.37,-22.762 14.98,0 27.49,5.078 37.53,15.262 10.03,10.156 16.4,25.808 19.08,46.929 z"
         style="fill:none;stroke:#ffffff;stroke-width:10;stroke-linecap:butt;stroke-linejoin:miter;stroke-miterlimit:4;stroke-dasharray:none;stroke-opacity:1"
         id="path112" /><path
         d="m 4250.43,729.992 v 249.059 h 38.13 V 729.992 Z m 0,295.308 v 48.44 h 38.13 v -48.44 h -38.13"
         style="fill:#ffffff;fill-opacity:1;fill-rule:nonzero;stroke:none"
         id="path114" /><path
         d="m 4250.43,729.992 v 249.059 h 38.13 V 729.992 Z m 0,295.308 v 48.44 h 38.13 v -48.44 z"
         style="fill:none;stroke:#ffffff;stroke-width:10;stroke-linecap:butt;stroke-linejoin:miter;stroke-miterlimit:4;stroke-dasharray:none;stroke-opacity:1"
         id="path116" /><path
         d="m 4375.22,878.43 h 125.62 c -1.69,20.949 -6.5,36.679 -14.4,47.172 -12.15,16.257 -27.9,24.39 -47.24,24.39 -17.52,0 -32.24,-6.492 -44.18,-19.472 -11.93,-12.989 -18.53,-30.348 -19.8,-52.09 z m 125.2,-68.129 39.47,-5.621 c -6.21,-25.45 -17.72,-45.2 -34.5,-59.239 -16.79,-14.05 -38.24,-21.07 -64.33,-21.07 -32.88,0 -58.95,11.211 -78.2,33.649 -19.26,22.429 -28.89,53.89 -28.89,94.39 0,41.903 9.73,74.422 29.2,97.559 19.47,23.14 44.73,34.711 75.77,34.711 30.05,0 54.6,-11.34 73.64,-34.008 19.05,-22.672 28.58,-54.57 28.58,-95.68 0,-2.5 -0.08,-6.25 -0.22,-11.25 h -167.91 c 1.41,-27.371 8.4,-48.332 20.98,-62.871 12.58,-14.551 28.26,-21.82 47.06,-21.82 13.99,0 25.93,4.07 35.82,12.23 9.89,8.141 17.73,21.149 23.53,39.02"
         style="fill:#ffffff;fill-opacity:1;fill-rule:nonzero;stroke:none"
         id="path118" /><path
         d="m 4375.22,878.43 h 125.62 c -1.69,20.949 -6.5,36.679 -14.4,47.172 -12.15,16.257 -27.9,24.39 -47.24,24.39 -17.52,0 -32.24,-6.492 -44.18,-19.472 -11.93,-12.989 -18.53,-30.348 -19.8,-52.09 z m 125.2,-68.129 39.47,-5.621 c -6.21,-25.45 -17.72,-45.2 -34.5,-59.239 -16.79,-14.05 -38.24,-21.07 -64.33,-21.07 -32.88,0 -58.95,11.211 -78.2,33.649 -19.26,22.429 -28.89,53.89 -28.89,94.39 0,41.903 9.73,74.422 29.2,97.559 19.47,23.14 44.73,34.711 75.77,34.711 30.05,0 54.6,-11.34 73.64,-34.008 19.05,-22.672 28.58,-54.57 28.58,-95.68 0,-2.5 -0.08,-6.25 -0.22,-11.25 h -167.91 c 1.41,-27.371 8.4,-48.332 20.98,-62.871 12.58,-14.551 28.26,-21.82 47.06,-21.82 13.99,0 25.93,4.07 35.82,12.23 9.89,8.141 17.73,21.149 23.53,39.02 z"
         style="fill:none;stroke:#ffffff;stroke-width:10;stroke-linecap:butt;stroke-linejoin:miter;stroke-miterlimit:4;stroke-dasharray:none;stroke-opacity:1"
         id="path120" /><path
         d="m 4587.95,729.992 v 249.059 h 34.38 V 943.66 c 16.48,27.352 40.29,41.02 71.42,41.02 13.52,0 25.95,-2.7 37.29,-8.09 11.35,-5.399 19.83,-12.481 25.47,-21.231 5.63,-8.75 9.57,-19.148 11.83,-31.187 1.41,-7.813 2.11,-21.5 2.11,-41.043 V 729.992 h -38.12 V 881.5 c 0,17.199 -1.49,30.059 -4.43,38.59 -2.97,8.512 -8.21,15.32 -15.75,20.41 -7.54,5.082 -16.36,7.621 -26.5,7.621 -16.2,0 -30.18,-5.711 -41.93,-17.129 -11.76,-11.41 -17.64,-33.07 -17.64,-64.961 V 729.992 h -38.13"
         style="fill:#ffffff;fill-opacity:1;fill-rule:nonzero;stroke:none"
         id="path122" /><path
         d="m 4587.95,729.992 v 249.059 h 34.38 V 943.66 c 16.48,27.352 40.29,41.02 71.42,41.02 13.52,0 25.95,-2.7 37.29,-8.09 11.35,-5.399 19.83,-12.481 25.47,-21.231 5.63,-8.75 9.57,-19.148 11.83,-31.187 1.41,-7.813 2.11,-21.5 2.11,-41.043 V 729.992 h -38.12 V 881.5 c 0,17.199 -1.49,30.059 -4.43,38.59 -2.97,8.512 -8.21,15.32 -15.75,20.41 -7.54,5.082 -16.36,7.621 -26.5,7.621 -16.2,0 -30.18,-5.711 -41.93,-17.129 -11.76,-11.41 -17.64,-33.07 -17.64,-64.961 V 729.992 Z"
         style="fill:none;stroke:#ffffff;stroke-width:10;stroke-linecap:butt;stroke-linejoin:miter;stroke-miterlimit:4;stroke-dasharray:none;stroke-opacity:1"
         id="path124" /><path
         d="m 4975.69,821.242 37.5,-5.621 c -4.1,-28.551 -14.58,-50.902 -31.46,-67.043 -16.87,-16.148 -37.6,-24.207 -62.17,-24.207 -30.79,0 -55.53,11.129 -74.24,33.41 -18.71,22.278 -28.07,54.207 -28.07,95.797 0,26.902 4.02,50.422 12.07,70.594 8.04,20.168 20.27,35.289 36.72,45.379 16.44,10.09 34.32,15.129 53.65,15.129 24.42,0 44.38,-6.84 59.9,-20.508 15.52,-13.672 25.47,-33.094 29.85,-58.242 l -37.19,-6.25 c -3.52,16.691 -9.76,29.25 -18.73,37.672 -8.94,8.418 -19.77,12.64 -32.46,12.64 -19.19,0 -34.78,-7.633 -46.76,-22.871 -11.99,-15.25 -17.99,-39.383 -17.99,-72.359 0,-33.473 5.8,-57.793 17.39,-72.949 11.6,-15.184 26.72,-22.762 45.38,-22.762 14.98,0 27.49,5.078 37.53,15.262 10.04,10.156 16.39,25.808 19.08,46.929"
         style="fill:#ffffff;fill-opacity:1;fill-rule:nonzero;stroke:none"
         id="path126" /><path
         d="m 4975.69,821.242 37.5,-5.621 c -4.1,-28.551 -14.58,-50.902 -31.46,-67.043 -16.87,-16.148 -37.6,-24.207 -62.17,-24.207 -30.79,0 -55.53,11.129 -74.24,33.41 -18.71,22.278 -28.07,54.207 -28.07,95.797 0,26.902 4.02,50.422 12.07,70.594 8.04,20.168 20.27,35.289 36.72,45.379 16.44,10.09 34.32,15.129 53.65,15.129 24.42,0 44.38,-6.84 59.9,-20.508 15.52,-13.672 25.47,-33.094 29.85,-58.242 l -37.19,-6.25 c -3.52,16.691 -9.76,29.25 -18.73,37.672 -8.94,8.418 -19.77,12.64 -32.46,12.64 -19.19,0 -34.78,-7.633 -46.76,-22.871 -11.99,-15.25 -17.99,-39.383 -17.99,-72.359 0,-33.473 5.8,-57.793 17.39,-72.949 11.6,-15.184 26.72,-22.762 45.38,-22.762 14.98,0 27.49,5.078 37.53,15.262 10.04,10.156 16.39,25.808 19.08,46.929 z"
         style="fill:none;stroke:#ffffff;stroke-width:10;stroke-linecap:butt;stroke-linejoin:miter;stroke-miterlimit:4;stroke-dasharray:none;stroke-opacity:1"
         id="path128" /><path
         d="m 5074.39,878.43 h 125.62 c -1.69,20.949 -6.49,36.679 -14.4,47.172 -12.15,16.257 -27.89,24.39 -47.25,24.39 -17.51,0 -32.23,-6.492 -44.17,-19.472 -11.93,-12.989 -18.53,-30.348 -19.8,-52.09 z m 125.2,-68.129 39.46,-5.621 c -6.21,-25.45 -17.71,-45.2 -34.49,-59.239 -16.79,-14.05 -38.24,-21.07 -64.34,-21.07 -32.87,0 -58.94,11.211 -78.19,33.649 -19.26,22.429 -28.89,53.89 -28.89,94.39 0,41.903 9.74,74.422 29.21,97.559 19.46,23.14 44.72,34.711 75.76,34.711 30.05,0 54.6,-11.34 73.65,-34.008 19.05,-22.672 28.57,-54.57 28.57,-95.68 0,-2.5 -0.07,-6.25 -0.21,-11.25 H 5072.2 c 1.42,-27.371 8.41,-48.332 20.99,-62.871 12.58,-14.551 28.26,-21.82 47.05,-21.82 13.98,0 25.93,4.07 35.82,12.23 9.89,8.141 17.73,21.149 23.53,39.02"
         style="fill:#ffffff;fill-opacity:1;fill-rule:nonzero;stroke:none"
         id="path130" /><path
         d="m 5074.39,878.43 h 125.62 c -1.69,20.949 -6.49,36.679 -14.4,47.172 -12.15,16.257 -27.89,24.39 -47.25,24.39 -17.51,0 -32.23,-6.492 -44.17,-19.472 -11.93,-12.989 -18.53,-30.348 -19.8,-52.09 z m 125.2,-68.129 39.46,-5.621 c -6.21,-25.45 -17.71,-45.2 -34.49,-59.239 -16.79,-14.05 -38.24,-21.07 -64.34,-21.07 -32.87,0 -58.94,11.211 -78.19,33.649 -19.26,22.429 -28.89,53.89 -28.89,94.39 0,41.903 9.74,74.422 29.21,97.559 19.46,23.14 44.72,34.711 75.76,34.711 30.05,0 54.6,-11.34 73.65,-34.008 19.05,-22.672 28.57,-54.57 28.57,-95.68 0,-2.5 -0.07,-6.25 -0.21,-11.25 H 5072.2 c 1.42,-27.371 8.41,-48.332 20.99,-62.871 12.58,-14.551 28.26,-21.82 47.05,-21.82 13.98,0 25.93,4.07 35.82,12.23 9.89,8.141 17.73,21.149 23.53,39.02 z"
         style="fill:none;stroke:#ffffff;stroke-width:10;stroke-linecap:butt;stroke-linejoin:miter;stroke-miterlimit:4;stroke-dasharray:none;stroke-opacity:1"
         id="path132" /></g></g></svg>
